<?xml version="1.0" encoding="UTF-8" standalone="no"?>
<!-- Created with Inkscape (http://www.inkscape.org/) -->

<svg
   xmlns:dc="http://purl.org/dc/elements/1.1/"
   xmlns:cc="http://creativecommons.org/ns#"
   xmlns:rdf="http://www.w3.org/1999/02/22-rdf-syntax-ns#"
   xmlns:svg="http://www.w3.org/2000/svg"
   xmlns="http://www.w3.org/2000/svg"
   xmlns:xlink="http://www.w3.org/1999/xlink"
   xmlns:sodipodi="http://sodipodi.sourceforge.net/DTD/sodipodi-0.dtd"
   xmlns:inkscape="http://www.inkscape.org/namespaces/inkscape"
   width="640"
   height="400"
   id="svg2"
   version="1.1"
   inkscape:version="0.48.3.1 r9886"
   sodipodi:docname="jsplatform.svg">
  <defs
     id="defs4">
    <linearGradient
       inkscape:collect="always"
       id="linearGradient3923">
      <stop
         style="stop-color:#808080;stop-opacity:1;"
         offset="0"
         id="stop3925" />
      <stop
         style="stop-color:#808080;stop-opacity:0;"
         offset="1"
         id="stop3927" />
    </linearGradient>
    <filter
       inkscape:label="Drop Shadow"
       id="filter3778"
       color-interpolation-filters="sRGB">
      <feFlood
         result="flood"
         flood-color="rgb(0,0,0)"
         flood-opacity="0.8"
         id="feFlood3780" />
      <feComposite
         result="composite1"
         operator="in"
         in="flood"
         in2="SourceGraphic"
         id="feComposite3782" />
      <feGaussianBlur
         result="blur"
         stdDeviation="2"
         id="feGaussianBlur3784" />
      <feOffset
         result="offset"
         dy="0.4"
         dx="0.7"
         id="feOffset3786" />
      <feComposite
         result="composite2"
         operator="over"
         in="SourceGraphic"
         in2="offset"
         id="feComposite3788" />
    </filter>
    <filter
       inkscape:label="Drop Shadow"
       id="filter3766"
       color-interpolation-filters="sRGB">
      <feFlood
         result="flood"
         flood-color="rgb(0,0,0)"
         flood-opacity="0.8"
         id="feFlood3768" />
      <feComposite
         result="composite1"
         operator="in"
         in="flood"
         in2="SourceGraphic"
         id="feComposite3770" />
      <feGaussianBlur
         result="blur"
         stdDeviation="2"
         id="feGaussianBlur3772" />
      <feOffset
         result="offset"
         dy="0.4"
         dx="0.7"
         id="feOffset3774" />
      <feComposite
         result="composite2"
         operator="over"
         in="SourceGraphic"
         in2="offset"
         id="feComposite3776" />
    </filter>
    <filter
       inkscape:label="Drop Shadow"
       id="filter3754"
       color-interpolation-filters="sRGB">
      <feFlood
         result="flood"
         flood-color="rgb(0,0,0)"
         flood-opacity="0.8"
         id="feFlood3756" />
      <feComposite
         result="composite1"
         operator="in"
         in="flood"
         in2="SourceGraphic"
         id="feComposite3758" />
      <feGaussianBlur
         result="blur"
         stdDeviation="2"
         id="feGaussianBlur3760" />
      <feOffset
         result="offset"
         dy="0.4"
         dx="0.7"
         id="feOffset3762" />
      <feComposite
         result="composite2"
         operator="over"
         in="SourceGraphic"
         in2="offset"
         id="feComposite3764" />
    </filter>
    <filter
       inkscape:label="Drop Shadow"
       id="filter3742"
       color-interpolation-filters="sRGB">
      <feFlood
         result="flood"
         flood-color="rgb(0,0,0)"
         flood-opacity="0.8"
         id="feFlood3744" />
      <feComposite
         result="composite1"
         operator="in"
         in="flood"
         in2="SourceGraphic"
         id="feComposite3746" />
      <feGaussianBlur
         result="blur"
         stdDeviation="2"
         id="feGaussianBlur3748" />
      <feOffset
         result="offset"
         dy="0.4"
         dx="0.7"
         id="feOffset3750" />
      <feComposite
         result="composite2"
         operator="over"
         in="SourceGraphic"
         in2="offset"
         id="feComposite3752" />
    </filter>
    <radialGradient
       inkscape:collect="always"
       xlink:href="#linearGradient3923"
       id="radialGradient3931"
       cx="140.6658"
       cy="834.7157"
       fx="140.6658"
       fy="834.7157"
       r="320"
       gradientTransform="matrix(-0.20929466,1.3269913,-2.3942812,-0.37729084,2225.9746,846.27002)"
       gradientUnits="userSpaceOnUse" />
  </defs>
  <sodipodi:namedview
     id="base"
     pagecolor="#ffffff"
     bordercolor="#666666"
     borderopacity="1.0"
     inkscape:pageopacity="0.0"
     inkscape:pageshadow="2"
     inkscape:zoom="0.98994949"
     inkscape:cx="447.31991"
     inkscape:cy="231.72817"
     inkscape:document-units="px"
     inkscape:current-layer="text3699"
     showgrid="false"
     inkscape:window-width="1535"
     inkscape:window-height="876"
     inkscape:window-x="65"
     inkscape:window-y="24"
     inkscape:window-maximized="1" />
  <metadata
     id="metadata7">
    <rdf:RDF>
      <cc:Work
         rdf:about="">
        <dc:format>image/svg+xml</dc:format>
        <dc:type
           rdf:resource="http://purl.org/dc/dcmitype/StillImage" />
        <dc:title />
      </cc:Work>
    </rdf:RDF>
  </metadata>
  <g
     inkscape:label="Layer 1"
     inkscape:groupmode="layer"
     id="layer1"
     transform="translate(0,-652.36218)">
    <rect
       style="fill:url(#radialGradient3931);fill-opacity:1;stroke:none"
       id="rect3921"
       width="640"
       height="400"
       x="0"
       y="652.36218"
       rx="0.25803122"
       ry="0.19380301" />
    <g
       style="font-size:35.79085922px;font-style:normal;font-weight:normal;line-height:125%;letter-spacing:0px;word-spacing:0px;fill:#ffffff;fill-opacity:1;stroke:none;filter:url(#filter3778);font-family:Sans"
       id="text3689">
      <path
         d="m 235.78105,683.1178 6.72826,0 0,23.55765 c -1e-5,3.25054 -0.88546,5.6797 -2.65635,7.2875 -1.75926,1.60778 -4.42726,2.41168 -8.00401,2.41168 l -1.36313,0 0,-5.08551 1.04856,0 c 1.39808,0 2.45246,-0.3903 3.16316,-1.1709 0.72234,-0.78059 1.08351,-1.92818 1.08351,-3.44277 l 0,-23.55765"
         style="font-weight:bold;fill:#ffffff"
         id="path3036" />
      <path
         d="m 267.29029,683.93917 0,5.52242 c -1.43306,-0.64077 -2.83113,-1.12427 -4.19424,-1.45051 -1.36315,-0.3262 -2.65055,-0.48931 -3.8622,-0.48933 -1.60781,2e-5 -2.79617,0.22138 -3.56511,0.66409 -0.76895,0.44274 -1.15342,1.13013 -1.15341,2.06217 -1e-5,0.69906 0.2563,1.24664 0.76894,1.64274 0.52427,0.38449 1.46797,0.71653 2.83111,0.99613 l 2.86607,0.57671 c 2.901,0.58255 4.96316,1.468 6.1865,2.65635 1.2233,1.18838 1.83496,2.87773 1.83499,5.06805 -3e-5,2.87772 -0.85635,5.02144 -2.56898,6.43117 -1.70101,1.39808 -4.30494,2.09712 -7.81177,2.09712 -1.65441,0 -3.31463,-0.15729 -4.98066,-0.47186 -1.66606,-0.31456 -3.3321,-0.78059 -4.99814,-1.39808 l 0,-5.6797 c 1.66604,0.88546 3.27383,1.55537 4.82338,2.00974 1.56118,0.44273 3.06411,0.6641 4.50881,0.66409 1.46797,10e-6 2.59226,-0.24466 3.37286,-0.73399 0.78058,-0.48932 1.17088,-1.18836 1.1709,-2.09712 -2e-5,-0.81554 -0.26798,-1.44468 -0.8039,-1.88741 -0.52429,-0.44272 -1.57868,-0.83884 -3.16316,-1.18837 l -2.60392,-0.57671 c -2.60976,-0.55922 -4.52047,-1.45049 -5.73213,-2.67383 -1.20002,-1.2233 -1.80003,-2.87187 -1.80003,-4.94571 0,-2.59807 0.83885,-4.59616 2.51655,-5.99427 1.67769,-1.39805 4.08937,-2.09709 7.23506,-2.09712 1.43302,3e-5 2.90683,0.11071 4.42143,0.33205 1.51457,0.20974 3.08158,0.53013 4.70105,0.96118"
         style="font-weight:bold;fill:#ffffff"
         id="path3038" />
      <path
         d="m 274.9273,683.1178 11.16717,0 c 3.32042,2e-5 5.86609,0.73984 7.63701,2.21945 1.78253,1.46801 2.67381,3.56512 2.67383,6.29136 -2e-5,2.73792 -0.8913,4.84669 -2.67383,6.32632 -1.77092,1.46799 -4.31659,2.20198 -7.63701,2.20197 l -4.43891,0 0,9.05257 -6.72826,0 0,-26.09167 m 6.72826,4.8758 0,7.2875 3.72239,0 c 1.30486,10e-6 2.31264,-0.31456 3.02335,-0.94371 0.71067,-0.64077 1.06602,-1.5437 1.06604,-2.70878 -2e-5,-1.16505 -0.35537,-2.06215 -1.06604,-2.6913 -0.71071,-0.62912 -1.71849,-0.94369 -3.02335,-0.94371 l -3.72239,0"
         style="font-weight:bold;fill:#ffffff"
         id="path3040" />
      <path
         d="m 300.86169,682.01681 6.25641,0 0,27.19266 -6.25641,0 0,-27.19266"
         style="font-weight:bold;fill:#ffffff"
         id="path3042" />
      <path
         d="m 321.93776,700.40157 c -1.30489,0 -2.28937,0.22137 -2.95345,0.66408 -0.65245,0.44274 -0.97866,1.09517 -0.97866,1.95732 0,0.79225 0.26214,1.41556 0.78642,1.86993 0.53593,0.44273 1.27574,0.66409 2.21946,0.66409 1.1767,0 2.16701,-0.41942 2.97092,-1.25827 0.80388,-0.8505 1.20583,-1.91071 1.20584,-3.18064 l 0,-0.71651 -3.25053,0 m 9.55937,-2.35926 0,11.16716 -6.30884,0 0,-2.90101 c -0.83886,1.18837 -1.78256,2.05634 -2.83111,2.60392 -1.04857,0.53593 -2.32432,0.8039 -3.82725,0.8039 -2.02722,0 -3.67579,-0.58836 -4.94571,-1.76508 -1.25827,-1.18837 -1.88741,-2.72625 -1.8874,-4.61367 -10e-6,-2.29517 0.78641,-3.97869 2.35926,-5.05056 1.58448,-1.07185 4.06607,-1.60778 7.44478,-1.60779 l 3.68743,0 0,-0.48933 c -10e-6,-0.99029 -0.39031,-1.71264 -1.17089,-2.16703 -0.78061,-0.46601 -1.9981,-0.69902 -3.65248,-0.69904 -1.33984,2e-5 -2.58646,0.134 -3.73987,0.40195 -1.15342,0.26798 -2.22528,0.66993 -3.21559,1.20585 l 0,-4.77095 c 1.33983,-0.3262 2.68548,-0.57087 4.03696,-0.734 1.35147,-0.17474 2.70295,-0.26212 4.05444,-0.26214 3.53013,2e-5 6.0758,0.69906 7.63701,2.09713 1.57282,1.38644 2.35924,3.64667 2.35926,6.78069"
         style="font-weight:bold;fill:#ffffff"
         id="path3044" />
      <path
         d="m 344.18471,684.07898 0,5.55737 6.44865,0 0,4.47385 -6.44865,0 0,8.30111 c -10e-6,0.90875 0.18057,1.52624 0.54176,1.85245 0.36116,0.31458 1.07767,0.47186 2.14954,0.47186 l 3.21559,0 0,4.47385 -5.36513,0 c -2.46995,0 -4.22338,-0.51263 -5.26028,-1.53789 -1.02527,-1.0369 -1.53789,-2.79033 -1.53789,-5.26027 l 0,-8.30111 -3.11073,0 0,-4.47385 3.11073,0 0,-5.55737 6.25641,0"
         style="font-weight:bold;fill:#ffffff"
         id="path3046" />
      <path
         d="m 367.3579,682.01681 0,4.10686 -3.46025,0 c -0.88547,2e-5 -1.50295,0.16313 -1.85246,0.48933 -0.34953,0.31459 -0.52429,0.86799 -0.52428,1.66022 l 0,1.36313 5.34766,0 0,4.47385 -5.34766,0 0,15.09927 -6.25641,0 0,-15.09927 -3.11073,0 0,-4.47385 3.11073,0 0,-1.36313 c 0,-2.13205 0.59418,-3.70489 1.78255,-4.71852 1.18836,-1.02524 3.02917,-1.53786 5.52242,-1.53789 l 4.78843,0"
         style="font-weight:bold;fill:#ffffff"
         id="path3048" />
      <path
         d="m 379.38139,693.63835 c -1.38644,2e-5 -2.44665,0.501 -3.18063,1.50294 -0.72235,0.99032 -1.08352,2.42335 -1.08352,4.2991 0,1.87576 0.36117,3.31462 1.08352,4.31657 0.73398,0.99031 1.79419,1.48546 3.18063,1.48546 1.36311,0 2.40585,-0.49515 3.12821,-1.48546 0.72232,-1.00195 1.08349,-2.44081 1.08351,-4.31657 -2e-5,-1.87575 -0.36119,-3.30878 -1.08351,-4.2991 -0.72236,-1.00194 -1.7651,-1.50292 -3.12821,-1.50294 m 0,-4.47386 c 3.36703,2e-5 5.99425,0.90878 7.88168,2.72626 1.89904,1.81752 2.84856,4.33406 2.84859,7.54964 -3e-5,3.21559 -0.94955,5.73213 -2.84859,7.54963 -1.88743,1.8175 -4.51465,2.72626 -7.88168,2.72626 -3.3787,0 -6.0234,-0.90876 -7.93411,-2.72626 -1.89906,-1.8175 -2.84859,-4.33404 -2.84859,-7.54963 0,-3.21558 0.94953,-5.73212 2.84859,-7.54964 1.91071,-1.81748 4.55541,-2.72624 7.93411,-2.72626"
         style="font-weight:bold;fill:#ffffff"
         id="path3050" />
      <path
         d="m 409.21293,694.96653 c -0.5476,-0.2563 -1.09518,-0.44271 -1.64274,-0.55923 -0.53595,-0.12815 -1.0777,-0.19223 -1.62527,-0.19224 -1.60781,10e-6 -2.8486,0.51847 -3.72239,1.55536 -0.86216,1.02528 -1.29323,2.49908 -1.29322,4.42143 l 0,9.01762 -6.25641,0 0,-19.57312 6.25641,0 0,3.21558 c 0.80388,-1.28155 1.72428,-2.21361 2.7612,-2.79616 1.04855,-0.59416 2.301,-0.89126 3.75735,-0.89128 0.20969,2e-5 0.43688,0.0117 0.68156,0.035 0.24465,0.0117 0.59999,0.0466 1.06604,0.10485 l 0.0175,5.66223"
         style="font-weight:bold;fill:#ffffff"
         id="path3052" />
      <path
         d="m 430.4987,692.88688 c 0.79223,-1.21165 1.73011,-2.13205 2.81364,-2.76121 1.09514,-0.64076 2.29516,-0.96116 3.60006,-0.96118 2.24855,2e-5 3.96119,0.69324 5.13794,2.07965 1.17669,1.38645 1.76505,3.40201 1.76508,6.0467 l 0,11.91863 -6.29136,0 0,-10.20598 c 0.0116,-0.15145 0.0174,-0.30874 0.0175,-0.47186 0.0116,-0.1631 0.0174,-0.39611 0.0175,-0.69904 -3e-5,-1.38641 -0.20391,-2.38837 -0.61166,-3.00587 -0.4078,-0.62912 -1.06606,-0.94369 -1.97479,-0.9437 -1.18839,10e-6 -2.10879,0.48934 -2.76121,1.46798 -0.64081,0.97867 -0.97285,2.39422 -0.99613,4.24667 l 0,9.6118 -6.29136,0 0,-10.20598 c -2e-5,-2.16702 -0.18643,-3.55927 -0.55923,-4.17677 -0.37284,-0.62912 -1.03693,-0.94369 -1.99227,-0.9437 -1.20003,10e-6 -2.12626,0.49516 -2.77868,1.48546 -0.65245,0.97867 -0.97867,2.38257 -0.97866,4.21171 l 0,9.62928 -6.29136,0 0,-19.57312 6.29136,0 0,2.86606 c 0.76893,-1.10679 1.64856,-1.93982 2.63888,-2.49907 1.00194,-0.55921 2.10293,-0.83883 3.30296,-0.83885 1.35146,2e-5 2.54566,0.32624 3.58258,0.97866 1.03689,0.65246 1.82331,1.56703 2.35926,2.74373"
         style="font-weight:bold;fill:#ffffff"
         id="path3054" />
    </g>
    <text
       sodipodi:linespacing="125%"
       id="text3695"
       y="709.88202"
       x="448.36249"
       style="font-size:37.27790450999999905px;font-style:normal;font-weight:normal;line-height:125%;letter-spacing:0px;word-spacing:0px;fill:#4d4d4d;fill-opacity:1;stroke:none;filter:url(#filter3766);font-family:Sans"
       xml:space="preserve"
       inkscape:export-filename="/home/andrei/Desktop/logo.png"
       inkscape:export-xdpi="106.78783"
       inkscape:export-ydpi="106.78783"><tspan
         y="709.88202"
         x="448.36249"
         id="tspan3697"
         sodipodi:role="line"
         style="font-weight:bold;fill:#4d4d4d">2</tspan></text>
    <g
       style="font-size:14.19407177px;font-style:normal;font-weight:normal;line-height:125%;letter-spacing:0px;word-spacing:0px;fill:#cccccc;fill-opacity:1;stroke:none;filter:url(#filter3754);font-family:Sans"
       id="text3699">
      <path
         d="m 237.77632,719.62631 0,1.88515 c -0.53136,-0.22178 -1.04423,-0.38811 -1.53861,-0.49901 -0.4944,-0.11089 -0.96106,-0.16633 -1.4,-0.16634 -0.47129,1e-5 -0.82245,0.0601 -1.05347,0.1802 -0.2264,0.11552 -0.33961,0.29572 -0.3396,0.5406 -1e-5,0.19868 0.0855,0.35116 0.25643,0.45742 0.17558,0.10628 0.48746,0.18483 0.93565,0.23565 l 0.43663,0.0624 c 1.27062,0.16172 2.12541,0.4274 2.56436,0.79703 0.43894,0.36964 0.65841,0.94951 0.65842,1.73961 -1e-5,0.82706 -0.30496,1.44851 -0.91486,1.86436 -0.6099,0.41584 -1.52013,0.62376 -2.73069,0.62376 -0.51288,0 -1.04423,-0.0416 -1.59406,-0.12475 -0.54522,-0.0785 -1.1066,-0.19868 -1.68416,-0.3604 l 0,-1.88515 c 0.49439,0.24027 1.00033,0.42046 1.51782,0.54059 0.52211,0.12014 1.05115,0.1802 1.58713,0.1802 0.48515,0 0.85016,-0.067 1.09505,-0.20099 0.24488,-0.13399 0.36732,-0.33267 0.36733,-0.59604 -1e-5,-0.22178 -0.0855,-0.3858 -0.25644,-0.49208 -0.16634,-0.11089 -0.50132,-0.19636 -1.00495,-0.25643 l -0.43663,-0.0554 c -1.1043,-0.13861 -1.87822,-0.39505 -2.32179,-0.76931 -0.44356,-0.37425 -0.66534,-0.94257 -0.66534,-1.70495 0,-0.82244 0.28184,-1.43234 0.84554,-1.8297 0.5637,-0.39736 1.42772,-0.59604 2.59208,-0.59604 0.45742,0 0.93795,0.0347 1.44159,0.10396 0.50362,0.0693 1.05115,0.17789 1.64257,0.32574"
         style="font-weight:bold;fill:#cccccc"
         id="path3057" />
      <path
         d="m 247.91594,723.24413 0,0.70694 -5.801,0 c 0.0601,0.58218 0.2703,1.01881 0.6307,1.3099 0.36039,0.29109 0.86402,0.43663 1.51089,0.43663 0.5221,0 1.05577,-0.0762 1.60099,-0.22871 0.54983,-0.1571 1.11352,-0.39274 1.69109,-0.70693 l 0,1.91287 c -0.58681,0.22178 -1.17361,0.38812 -1.7604,0.49901 -0.5868,0.11551 -1.1736,0.17327 -1.7604,0.17327 -1.40462,0 -2.49736,-0.35578 -3.27822,-1.06733 -0.77624,-0.71617 -1.16435,-1.71881 -1.16435,-3.00792 0,-1.26601 0.38118,-2.26171 1.14356,-2.98713 0.767,-0.72541 1.82046,-1.08812 3.1604,-1.08812 1.2198,0 2.19472,0.36733 2.92476,1.10198 0.73464,0.73466 1.10197,1.71651 1.10198,2.94554 m -2.5505,-0.82475 c -1e-5,-0.47128 -0.13862,-0.85016 -0.41584,-1.13663 -0.27262,-0.29109 -0.6307,-0.43663 -1.07426,-0.43664 -0.48053,1e-5 -0.87096,0.13631 -1.17129,0.40891 -0.30033,0.268 -0.48746,0.65612 -0.56139,1.16436 l 3.22278,0"
         style="font-weight:bold;fill:#cccccc"
         id="path3059" />
      <path
         d="m 255.55357,721.4976 c -0.21717,-0.10165 -0.43433,-0.17557 -0.65149,-0.22178 -0.21255,-0.0508 -0.4274,-0.0762 -0.64455,-0.0762 -0.63763,0 -1.12971,0.20561 -1.47624,0.61683 -0.34192,0.40661 -0.51288,0.99109 -0.51287,1.75347 l 0,3.57624 -2.48119,0 0,-7.76238 2.48119,0 0,1.27524 c 0.3188,-0.50824 0.68382,-0.87788 1.09505,-1.10891 0.41583,-0.23563 0.91253,-0.35346 1.4901,-0.35346 0.0832,0 0.17326,0.005 0.27029,0.0139 0.097,0.005 0.23795,0.0185 0.42278,0.0416 l 0.007,2.24555"
         style="font-weight:bold;fill:#cccccc"
         id="path3061" />
      <path
         d="m 256.80109,719.38374 2.48119,0 0,7.76238 -2.48119,0 0,-7.76238 m 0,-3.02179 2.48119,0 0,2.02376 -2.48119,0 0,-2.02376"
         style="font-weight:bold;fill:#cccccc"
         id="path3063" />
      <path
         d="m 265.37437,720.97087 c -0.54984,0 -0.9703,0.19868 -1.26139,0.59604 -0.28647,0.39274 -0.42971,0.96106 -0.4297,1.70495 -1e-5,0.7439 0.14323,1.31452 0.4297,1.71188 0.29109,0.39274 0.71155,0.58911 1.26139,0.58911 0.54059,0 0.95412,-0.19637 1.24059,-0.58911 0.28646,-0.39736 0.4297,-0.96798 0.42971,-1.71188 -10e-6,-0.74389 -0.14325,-1.31221 -0.42971,-1.70495 -0.28647,-0.39736 -0.7,-0.59604 -1.24059,-0.59604 m 0,-1.77426 c 1.33531,0 2.37722,0.3604 3.12574,1.08119 0.75313,0.72079 1.1297,1.71881 1.12971,2.99406 -10e-6,1.27525 -0.37658,2.27327 -1.12971,2.99406 -0.74852,0.72079 -1.79043,1.08119 -3.12574,1.08119 -1.33994,0 -2.38879,-0.3604 -3.14654,-1.08119 -0.75314,-0.72079 -1.12971,-1.71881 -1.1297,-2.99406 -1e-5,-1.27525 0.37656,-2.27327 1.1297,-2.99406 0.75775,-0.72079 1.8066,-1.08119 3.14654,-1.08119"
         style="font-weight:bold;fill:#cccccc"
         id="path3065" />
      <path
         d="m 271.35556,724.12433 0,-4.74059 2.49505,0 0,0.77623 c 0,0.42047 -0.002,0.94952 -0.007,1.58713 -0.005,0.63301 -0.007,1.05578 -0.007,1.26832 0,0.62377 0.0162,1.07426 0.0485,1.35149 0.0323,0.27261 0.0878,0.47129 0.16633,0.59604 0.10165,0.16172 0.23333,0.28647 0.39505,0.37426 0.16634,0.0878 0.35578,0.13168 0.56832,0.13168 0.51749,0 0.92409,-0.19868 1.2198,-0.59604 0.29571,-0.39736 0.44356,-0.9495 0.44357,-1.65644 l 0,-3.83267 2.48119,0 0,7.76238 -2.48119,0 0,-1.12278 c -0.37426,0.45281 -0.77162,0.78779 -1.19208,1.00496 -0.41585,0.21254 -0.87558,0.31881 -1.37921,0.31881 -0.89637,0 -1.5802,-0.27492 -2.05149,-0.82475 -0.46667,-0.54984 -0.7,-1.34918 -0.7,-2.39803"
         style="font-weight:bold;fill:#cccccc"
         id="path3067" />
      <path
         d="m 287.62191,719.62631 0,1.88515 c -0.53136,-0.22178 -1.04423,-0.38811 -1.53861,-0.49901 -0.4944,-0.11089 -0.96106,-0.16633 -1.4,-0.16634 -0.47129,1e-5 -0.82245,0.0601 -1.05347,0.1802 -0.22641,0.11552 -0.33961,0.29572 -0.3396,0.5406 -1e-5,0.19868 0.0855,0.35116 0.25643,0.45742 0.17558,0.10628 0.48746,0.18483 0.93565,0.23565 l 0.43663,0.0624 c 1.27062,0.16172 2.12541,0.4274 2.56436,0.79703 0.43894,0.36964 0.65841,0.94951 0.65842,1.73961 -1e-5,0.82706 -0.30496,1.44851 -0.91486,1.86436 -0.6099,0.41584 -1.52014,0.62376 -2.73069,0.62376 -0.51288,0 -1.04423,-0.0416 -1.59406,-0.12475 -0.54522,-0.0785 -1.10661,-0.19868 -1.68416,-0.3604 l 0,-1.88515 c 0.49439,0.24027 1.00033,0.42046 1.51782,0.54059 0.52211,0.12014 1.05115,0.1802 1.58713,0.1802 0.48514,0 0.85016,-0.067 1.09505,-0.20099 0.24488,-0.13399 0.36732,-0.33267 0.36733,-0.59604 -10e-6,-0.22178 -0.0855,-0.3858 -0.25644,-0.49208 -0.16634,-0.11089 -0.50132,-0.19636 -1.00495,-0.25643 l -0.43663,-0.0554 c -1.1043,-0.13861 -1.87822,-0.39505 -2.32179,-0.76931 -0.44356,-0.37425 -0.66535,-0.94257 -0.66535,-1.70495 0,-0.82244 0.28185,-1.43234 0.84555,-1.8297 0.56369,-0.39736 1.42772,-0.59604 2.59208,-0.59604 0.45742,0 0.93795,0.0347 1.44159,0.10396 0.50362,0.0693 1.05115,0.17789 1.64257,0.32574"
         style="font-weight:bold;fill:#cccccc"
         id="path3069" />
      <path
         d="m 294.25459,719.38374 2.41188,0 1.30298,5.35049 1.3099,-5.35049 2.07228,0 1.30297,5.29505 1.3099,-5.29505 2.41188,0 -2.04455,7.76238 -2.70991,0 -1.3099,-5.33664 -1.30297,5.33664 -2.7099,0 -2.04456,-7.76238"
         style="font-weight:bold;fill:#cccccc"
         id="path3071" />
      <path
         d="m 315.80906,723.24413 0,0.70694 -5.80099,0 c 0.0601,0.58218 0.27029,1.01881 0.63069,1.3099 0.36039,0.29109 0.86402,0.43663 1.51089,0.43663 0.52211,0 1.05577,-0.0762 1.601,-0.22871 0.54982,-0.1571 1.11352,-0.39274 1.69109,-0.70693 l 0,1.91287 c -0.58681,0.22178 -1.17361,0.38812 -1.7604,0.49901 -0.58681,0.11551 -1.17361,0.17327 -1.7604,0.17327 -1.40462,0 -2.49736,-0.35578 -3.27822,-1.06733 -0.77624,-0.71617 -1.16436,-1.71881 -1.16436,-3.00792 0,-1.26601 0.38119,-2.26171 1.14357,-2.98713 0.76699,-0.72541 1.82046,-1.08812 3.1604,-1.08812 1.21979,0 2.19471,0.36733 2.92475,1.10198 0.73465,0.73466 1.10197,1.71651 1.10198,2.94554 m -2.55049,-0.82475 c -1e-5,-0.47128 -0.13862,-0.85016 -0.41585,-1.13663 -0.27261,-0.29109 -0.63069,-0.43663 -1.07425,-0.43664 -0.48054,1e-5 -0.87097,0.13631 -1.17129,0.40891 -0.30034,0.268 -0.48746,0.65612 -0.56139,1.16436 l 3.22278,0"
         style="font-weight:bold;fill:#cccccc"
         id="path3073" />
      <path
         d="m 321.81105,725.54513 c 0.53135,0 0.93564,-0.19406 1.21287,-0.58218 0.28184,-0.38812 0.42277,-0.95181 0.42278,-1.69109 -1e-5,-0.73927 -0.14094,-1.30297 -0.42278,-1.69109 -0.27723,-0.38812 -0.68152,-0.58218 -1.21287,-0.58218 -0.53136,0 -0.94027,0.19637 -1.22673,0.58911 -0.28186,0.38812 -0.42278,0.94951 -0.42278,1.68416 0,0.73465 0.14092,1.29835 0.42278,1.69109 0.28646,0.38812 0.69537,0.58218 1.22673,0.58218 m -1.64951,-5.02476 c 0.34191,-0.4528 0.72079,-0.78547 1.13664,-0.99802 0.41584,-0.21715 0.89405,-0.32574 1.43465,-0.32574 0.95643,0 1.74191,0.38119 2.35644,1.14356 0.61451,0.75776 0.92177,1.73499 0.92178,2.93169 -1e-5,1.1967 -0.30727,2.17624 -0.92178,2.93861 -0.61453,0.75776 -1.40001,1.13664 -2.35644,1.13664 -0.5406,0 -1.01881,-0.10627 -1.43465,-0.31881 -0.41585,-0.21717 -0.79473,-0.55215 -1.13664,-1.00496 l 0,1.12278 -2.48119,0 0,-10.78417 2.48119,0 0,4.15842"
         style="font-weight:bold;fill:#cccccc"
         id="path3075" />
      <path
         d="m 336.48334,720.97087 c -0.54984,0 -0.9703,0.19868 -1.26139,0.59604 -0.28647,0.39274 -0.4297,0.96106 -0.4297,1.70495 0,0.7439 0.14323,1.31452 0.4297,1.71188 0.29109,0.39274 0.71155,0.58911 1.26139,0.58911 0.54059,0 0.95412,-0.19637 1.2406,-0.58911 0.28646,-0.39736 0.42969,-0.96798 0.4297,-1.71188 -10e-6,-0.74389 -0.14324,-1.31221 -0.4297,-1.70495 -0.28648,-0.39736 -0.70001,-0.59604 -1.2406,-0.59604 m 0,-1.77426 c 1.33531,0 2.37722,0.3604 3.12575,1.08119 0.75312,0.72079 1.12969,1.71881 1.1297,2.99406 -10e-6,1.27525 -0.37658,2.27327 -1.1297,2.99406 -0.74853,0.72079 -1.79044,1.08119 -3.12575,1.08119 -1.33994,0 -2.38878,-0.3604 -3.14654,-1.08119 -0.75313,-0.72079 -1.1297,-1.71881 -1.1297,-2.99406 0,-1.27525 0.37657,-2.27327 1.1297,-2.99406 0.75776,-0.72079 1.8066,-1.08119 3.14654,-1.08119"
         style="font-weight:bold;fill:#cccccc"
         id="path3077" />
      <path
         d="m 345.02889,726.02334 0,4.07526 -2.48119,0 0,-10.71486 2.48119,0 0,1.13663 c 0.34191,-0.4528 0.72079,-0.78547 1.13664,-0.99802 0.41583,-0.21715 0.89405,-0.32574 1.43465,-0.32574 0.95643,0 1.74191,0.38119 2.35644,1.14356 0.61451,0.75776 0.92177,1.73499 0.92178,2.93169 -10e-6,1.1967 -0.30727,2.17624 -0.92178,2.93861 -0.61453,0.75776 -1.40001,1.13664 -2.35644,1.13664 -0.5406,0 -1.01882,-0.10627 -1.43465,-0.31881 -0.41585,-0.21717 -0.79473,-0.55215 -1.13664,-1.00496 m 1.64951,-5.02475 c -0.53136,0 -0.94027,0.19637 -1.22674,0.58911 -0.28185,0.38812 -0.42277,0.94951 -0.42277,1.68416 0,0.73465 0.14092,1.29835 0.42277,1.69109 0.28647,0.38812 0.69538,0.58218 1.22674,0.58218 0.53135,0 0.93564,-0.19406 1.21287,-0.58218 0.28184,-0.38812 0.42277,-0.95181 0.42277,-1.69109 0,-0.73927 -0.14093,-1.30297 -0.42277,-1.69109 -0.27723,-0.38812 -0.68152,-0.58218 -1.21287,-0.58218"
         style="font-weight:bold;fill:#cccccc"
         id="path3079" />
      <path
         d="m 360.47049,723.24413 0,0.70694 -5.80099,0 c 0.0601,0.58218 0.27029,1.01881 0.63069,1.3099 0.36039,0.29109 0.86402,0.43663 1.51089,0.43663 0.52211,0 1.05577,-0.0762 1.601,-0.22871 0.54982,-0.1571 1.11352,-0.39274 1.69109,-0.70693 l 0,1.91287 c -0.58681,0.22178 -1.17361,0.38812 -1.7604,0.49901 -0.58681,0.11551 -1.1736,0.17327 -1.7604,0.17327 -1.40462,0 -2.49736,-0.35578 -3.27822,-1.06733 -0.77624,-0.71617 -1.16436,-1.71881 -1.16436,-3.00792 0,-1.26601 0.38119,-2.26171 1.14357,-2.98713 0.76699,-0.72541 1.82046,-1.08812 3.1604,-1.08812 1.21979,0 2.19471,0.36733 2.92475,1.10198 0.73465,0.73466 1.10197,1.71651 1.10198,2.94554 M 357.92,722.41938 c -1e-5,-0.47128 -0.13862,-0.85016 -0.41585,-1.13663 -0.27261,-0.29109 -0.63069,-0.43663 -1.07425,-0.43664 -0.48054,1e-5 -0.87097,0.13631 -1.17129,0.40891 -0.30034,0.268 -0.48746,0.65612 -0.56139,1.16436 l 3.22278,0"
         style="font-weight:bold;fill:#cccccc"
         id="path3081" />
      <path
         d="m 368.10813,721.4976 c -0.21717,-0.10165 -0.43433,-0.17557 -0.65149,-0.22178 -0.21255,-0.0508 -0.4274,-0.0762 -0.64455,-0.0762 -0.63763,0 -1.12971,0.20561 -1.47624,0.61683 -0.34192,0.40661 -0.51288,0.99109 -0.51288,1.75347 l 0,3.57624 -2.48119,0 0,-7.76238 2.48119,0 0,1.27524 c 0.31881,-0.50824 0.68383,-0.87788 1.09505,-1.10891 0.41584,-0.23563 0.91254,-0.35346 1.49011,-0.35346 0.0832,0 0.17326,0.005 0.27029,0.0139 0.097,0.005 0.23795,0.0185 0.42278,0.0416 l 0.007,2.24555"
         style="font-weight:bold;fill:#cccccc"
         id="path3083" />
      <path
         d="m 372.83485,723.65305 c -0.5175,0 -0.90793,0.0878 -1.17129,0.26336 -0.25875,0.17558 -0.38812,0.43433 -0.38812,0.77624 0,0.31419 0.10396,0.56139 0.31188,0.74159 0.21254,0.17557 0.50594,0.26336 0.8802,0.26336 0.46667,0 0.8594,-0.16633 1.17822,-0.49901 0.31881,-0.33729 0.47821,-0.75775 0.47822,-1.26139 l 0,-0.28415 -1.28911,0 m 3.79109,-0.93565 0,4.42872 -2.50198,0 0,-1.1505 c -0.33268,0.47129 -0.70694,0.81551 -1.12277,1.03268 -0.41585,0.21254 -0.92179,0.31881 -1.51783,0.31881 -0.80396,0 -1.45776,-0.23334 -1.96138,-0.7 -0.49902,-0.47129 -0.74852,-1.08119 -0.74852,-1.82971 0,-0.91023 0.31188,-1.57788 0.93564,-2.00297 0.62839,-0.42508 1.61254,-0.63762 2.95248,-0.63762 l 1.46238,0 0,-0.19406 c -1e-5,-0.39274 -0.15479,-0.67921 -0.46436,-0.85941 -0.30957,-0.18481 -0.79241,-0.27722 -1.44851,-0.27723 -0.53136,1e-5 -1.02575,0.0531 -1.48317,0.15941 -0.45743,0.10628 -0.88251,0.26568 -1.27525,0.47822 l 0,-1.89208 c 0.53135,-0.12937 1.06501,-0.2264 1.60099,-0.29109 0.53597,-0.0693 1.07194,-0.10396 1.60792,-0.10396 1.4,0 2.40957,0.27723 3.02872,0.83168 0.62375,0.54984 0.93563,1.44621 0.93564,2.68911"
         style="font-weight:bold;fill:#cccccc"
         id="path3085" />
      <path
         d="m 381.65764,717.17977 0,2.20397 2.55743,0 0,1.77425 -2.55743,0 0,3.29209 c 0,0.36039 0.0716,0.60528 0.21486,0.73465 0.14323,0.12475 0.42738,0.18713 0.85247,0.18713 l 1.27525,0 0,1.77426 -2.12772,0 c -0.97955,0 -1.67493,-0.2033 -2.08614,-0.6099 -0.40661,-0.41122 -0.60991,-1.1066 -0.60991,-2.08614 l 0,-3.29209 -1.23366,0 0,-1.77425 1.23366,0 0,-2.20397 2.48119,0"
         style="font-weight:bold;fill:#cccccc"
         id="path3087" />
      <path
         d="m 385.73982,719.38374 2.4812,0 0,7.76238 -2.4812,0 0,-7.76238 m 0,-3.02179 2.4812,0 0,2.02376 -2.4812,0 0,-2.02376"
         style="font-weight:bold;fill:#cccccc"
         id="path3089" />
      <path
         d="m 398.423,722.41938 0,4.72674 -2.49505,0 0,-0.76931 0,-2.84852 c 0,-0.66996 -0.0162,-1.13201 -0.0485,-1.38614 -0.0277,-0.25412 -0.0786,-0.44125 -0.15248,-0.56138 -0.097,-0.16171 -0.22872,-0.28647 -0.39505,-0.37426 -0.16634,-0.0924 -0.35578,-0.13861 -0.56832,-0.13861 -0.51749,0 -0.92409,0.20099 -1.2198,0.60297 -0.29571,0.39736 -0.44357,0.94951 -0.44356,1.65643 l 0,3.81882 -2.48119,0 0,-7.76238 2.48119,0 0,1.13663 c 0.37425,-0.4528 0.77161,-0.78547 1.19208,-0.99802 0.42045,-0.21715 0.88481,-0.32574 1.39307,-0.32574 0.89636,0 1.57557,0.27492 2.03762,0.82475 0.46666,0.54984 0.69999,1.34918 0.7,2.39802"
         style="font-weight:bold;fill:#cccccc"
         id="path3091" />
      <path
         d="m 406.01905,725.82929 c -0.34192,0.4528 -0.71849,0.78548 -1.1297,0.99802 -0.41123,0.21254 -0.88714,0.31881 -1.42773,0.31881 -0.9472,0 -1.73037,-0.37195 -2.34951,-1.11584 -0.61914,-0.74852 -0.92871,-1.70033 -0.92871,-2.85545 0,-1.15973 0.30957,-2.10924 0.92871,-2.84852 0.61914,-0.74389 1.40231,-1.11583 2.34951,-1.11584 0.54059,10e-6 1.0165,0.10628 1.42773,0.31881 0.41121,0.21255 0.78778,0.54753 1.1297,1.00495 l 0,-1.15049 2.49505,0 0,6.97921 c -10e-6,1.24752 -0.39506,2.19934 -1.18515,2.85545 -0.78548,0.66072 -1.92674,0.99108 -3.42376,0.99109 -0.48516,-10e-6 -0.95413,-0.037 -1.40694,-0.11089 -0.4528,-0.0739 -0.90792,-0.18714 -1.36534,-0.33961 l 0,-1.93366 c 0.43432,0.2495 0.8594,0.43432 1.27525,0.55445 0.41583,0.12475 0.83399,0.18713 1.25445,0.18713 0.8132,0 1.40924,-0.17789 1.78812,-0.53366 0.37887,-0.35578 0.56831,-0.91254 0.56832,-1.6703 l 0,-0.53366 m -1.63565,-4.8307 c -0.51287,0 -0.91254,0.18944 -1.19901,0.56832 -0.28647,0.37888 -0.4297,0.91485 -0.4297,1.60792 0,0.71155 0.13861,1.25215 0.41584,1.62178 0.27723,0.36502 0.68152,0.54753 1.21287,0.54753 0.51749,0 0.91947,-0.18944 1.20595,-0.56832 0.28646,-0.37888 0.42969,-0.91254 0.4297,-1.60099 -10e-6,-0.69307 -0.14324,-1.22904 -0.4297,-1.60792 -0.28648,-0.37888 -0.68846,-0.56832 -1.20595,-0.56832"
         style="font-weight:bold;fill:#cccccc"
         id="path3093" />
      <path
         d="m 421.91114,719.62631 0,1.88515 c -0.53136,-0.22178 -1.04424,-0.38811 -1.53862,-0.49901 -0.49439,-0.11089 -0.96106,-0.16633 -1.4,-0.16634 -0.47129,1e-5 -0.82245,0.0601 -1.05347,0.1802 -0.2264,0.11552 -0.3396,0.29572 -0.3396,0.5406 0,0.19868 0.0855,0.35116 0.25643,0.45742 0.17558,0.10628 0.48746,0.18483 0.93565,0.23565 l 0.43663,0.0624 c 1.27063,0.16172 2.12541,0.4274 2.56436,0.79703 0.43894,0.36964 0.65841,0.94951 0.65842,1.73961 -1e-5,0.82706 -0.30496,1.44851 -0.91485,1.86436 -0.60991,0.41584 -1.52014,0.62376 -2.7307,0.62376 -0.51288,0 -1.04423,-0.0416 -1.59406,-0.12475 -0.54522,-0.0785 -1.1066,-0.19868 -1.68416,-0.3604 l 0,-1.88515 c 0.49439,0.24027 1.00033,0.42046 1.51782,0.54059 0.52211,0.12014 1.05116,0.1802 1.58713,0.1802 0.48515,0 0.85016,-0.067 1.09505,-0.20099 0.24488,-0.13399 0.36732,-0.33267 0.36733,-0.59604 -10e-6,-0.22178 -0.0855,-0.3858 -0.25644,-0.49208 -0.16634,-0.11089 -0.50132,-0.19636 -1.00495,-0.25643 l -0.43663,-0.0554 c -1.10429,-0.13861 -1.87822,-0.39505 -2.32179,-0.76931 -0.44356,-0.37425 -0.66534,-0.94257 -0.66534,-1.70495 0,-0.82244 0.28185,-1.43234 0.84554,-1.8297 0.5637,-0.39736 1.42772,-0.59604 2.59208,-0.59604 0.45743,0 0.93795,0.0347 1.44159,0.10396 0.50362,0.0693 1.05115,0.17789 1.64258,0.32574"
         style="font-weight:bold;fill:#cccccc"
         id="path3095" />
      <path
         d="m 423.28342,719.38374 2.48119,0 2.08614,5.26733 1.77426,-5.26733 2.48119,0 -3.26436,8.49703 c -0.32806,0.86403 -0.71156,1.467 -1.15049,1.80891 -0.43433,0.34654 -1.00958,0.5198 -1.72575,0.51981 l -1.43465,0 0,-1.62872 0.77623,0 c 0.42046,0 0.72542,-0.067 0.91486,-0.20099 0.19405,-0.13399 0.34422,-0.37426 0.45049,-0.72079 l 0.0693,-0.21485 -3.45842,-8.0604"
         style="font-weight:bold;fill:#cccccc"
         id="path3097" />
      <path
         d="m 439.62601,719.62631 0,1.88515 c -0.53136,-0.22178 -1.04423,-0.38811 -1.53862,-0.49901 -0.49439,-0.11089 -0.96106,-0.16633 -1.4,-0.16634 -0.47129,1e-5 -0.82244,0.0601 -1.05346,0.1802 -0.22641,0.11552 -0.33961,0.29572 -0.33961,0.5406 0,0.19868 0.0855,0.35116 0.25644,0.45742 0.17557,0.10628 0.48745,0.18483 0.93564,0.23565 l 0.43664,0.0624 c 1.27062,0.16172 2.1254,0.4274 2.56436,0.79703 0.43893,0.36964 0.6584,0.94951 0.65841,1.73961 -10e-6,0.82706 -0.30496,1.44851 -0.91485,1.86436 -0.60991,0.41584 -1.52014,0.62376 -2.7307,0.62376 -0.51287,0 -1.04422,-0.0416 -1.59406,-0.12475 -0.54521,-0.0785 -1.1066,-0.19868 -1.68416,-0.3604 l 0,-1.88515 c 0.49439,0.24027 1.00033,0.42046 1.51783,0.54059 0.52211,0.12014 1.05115,0.1802 1.58713,0.1802 0.48514,0 0.85016,-0.067 1.09505,-0.20099 0.24488,-0.13399 0.36732,-0.33267 0.36732,-0.59604 0,-0.22178 -0.0855,-0.3858 -0.25643,-0.49208 -0.16634,-0.11089 -0.50133,-0.19636 -1.00495,-0.25643 l -0.43664,-0.0554 c -1.10429,-0.13861 -1.87822,-0.39505 -2.32178,-0.76931 -0.44357,-0.37425 -0.66535,-0.94257 -0.66535,-1.70495 0,-0.82244 0.28185,-1.43234 0.84555,-1.8297 0.56369,-0.39736 1.42772,-0.59604 2.59208,-0.59604 0.45742,0 0.93795,0.0347 1.44158,0.10396 0.50363,0.0693 1.05115,0.17789 1.64258,0.32574"
         style="font-weight:bold;fill:#cccccc"
         id="path3099" />
      <path
         d="m 444.727,717.17977 0,2.20397 2.55742,0 0,1.77425 -2.55742,0 0,3.29209 c -10e-6,0.36039 0.0716,0.60528 0.21485,0.73465 0.14323,0.12475 0.42739,0.18713 0.85247,0.18713 l 1.27525,0 0,1.77426 -2.12772,0 c -0.97954,0 -1.67492,-0.2033 -2.08614,-0.6099 -0.40661,-0.41122 -0.60991,-1.1066 -0.6099,-2.08614 l 0,-3.29209 -1.23367,0 0,-1.77425 1.23367,0 0,-2.20397 2.48119,0"
         style="font-weight:bold;fill:#cccccc"
         id="path3101" />
      <path
         d="m 456.5577,723.24413 0,0.70694 -5.801,0 c 0.0601,0.58218 0.2703,1.01881 0.6307,1.3099 0.36039,0.29109 0.86402,0.43663 1.51089,0.43663 0.52211,0 1.05577,-0.0762 1.60099,-0.22871 0.54983,-0.1571 1.11352,-0.39274 1.69109,-0.70693 l 0,1.91287 c -0.58681,0.22178 -1.17361,0.38812 -1.7604,0.49901 -0.5868,0.11551 -1.1736,0.17327 -1.76039,0.17327 -1.40463,0 -2.49737,-0.35578 -3.27823,-1.06733 -0.77623,-0.71617 -1.16435,-1.71881 -1.16435,-3.00792 0,-1.26601 0.38118,-2.26171 1.14356,-2.98713 0.767,-0.72541 1.82046,-1.08812 3.1604,-1.08812 1.2198,0 2.19472,0.36733 2.92476,1.10198 0.73464,0.73466 1.10197,1.71651 1.10198,2.94554 m -2.5505,-0.82475 c -1e-5,-0.47128 -0.13862,-0.85016 -0.41584,-1.13663 -0.27261,-0.29109 -0.6307,-0.43663 -1.07426,-0.43664 -0.48053,1e-5 -0.87096,0.13631 -1.17129,0.40891 -0.30033,0.268 -0.48746,0.65612 -0.56138,1.16436 l 3.22277,0"
         style="font-weight:bold;fill:#cccccc"
         id="path3103" />
      <path
         d="m 465.62305,720.67285 c 0.31419,-0.48053 0.68613,-0.84554 1.11585,-1.09506 0.43431,-0.25411 0.91022,-0.38118 1.42772,-0.38118 0.89174,0 1.57095,0.27492 2.03763,0.82475 0.46665,0.54984 0.69998,1.34918 0.7,2.39802 l 0,4.72674 -2.49506,0 0,-4.04753 c 0.005,-0.0601 0.007,-0.12244 0.007,-0.18713 0.005,-0.0647 0.007,-0.15709 0.007,-0.27723 -1e-5,-0.54983 -0.0809,-0.94719 -0.24258,-1.19208 -0.16173,-0.2495 -0.42278,-0.37425 -0.78317,-0.37425 -0.47129,0 -0.83631,0.19406 -1.09505,0.58217 -0.25413,0.38813 -0.38582,0.94951 -0.39505,1.68416 l 0,3.81189 -2.49505,0 0,-4.04753 c -10e-6,-0.8594 -0.0739,-1.41155 -0.22178,-1.65644 -0.14786,-0.2495 -0.41123,-0.37425 -0.7901,-0.37425 -0.47591,0 -0.84324,0.19637 -1.10198,0.5891 -0.25875,0.38813 -0.38813,0.94489 -0.38812,1.6703 l 0,3.81882 -2.49505,0 0,-7.76238 2.49505,0 0,1.13663 c 0.30495,-0.43894 0.65379,-0.7693 1.04653,-0.99109 0.39736,-0.22177 0.83399,-0.33267 1.30991,-0.33267 0.53596,0 1.00956,0.12938 1.42079,0.38812 0.41121,0.25875 0.72309,0.62146 0.93564,1.08812"
         style="font-weight:bold;fill:#cccccc"
         id="path3105" />
    </g>
    <g
       id="g3731"
       style="filter:url(#filter3742)"
       inkscape:export-filename="/home/andrei/Desktop/logo-16x16.png"
       inkscape:export-xdpi="21.41"
       inkscape:export-ydpi="21.41"
       transform="translate(-63.747856,13.59864)">
      <path
         inkscape:connector-curvature="0"
         id="rect3707"
         d="m 231.63559,673.53464 c -0.16761,0 -0.31564,0.11675 -0.31564,0.2428 l 0,36.03188 c 0,0.12605 0.14803,0.21852 0.31564,0.21852 l 35.8862,0 c 0.16762,0 0.29136,-0.0925 0.29136,-0.21852 l 0,-36.03188 c 0,-0.12605 -0.12374,-0.2428 -0.29136,-0.2428 l -35.8862,0 z m 4.61325,4.71036 26.63543,0 c 0.12436,0 0.21852,0.0765 0.21852,0.16996 l 0,26.75683 c 0,0.0935 -0.0942,0.14568 -0.21852,0.14568 l -26.63543,0 c -0.12436,0 -0.21852,-0.0521 -0.21852,-0.14568 l 0,-26.75683 c 0,-0.0935 0.0942,-0.16996 0.21852,-0.16996 z"
         style="fill:#4d4d4d;fill-opacity:1;stroke:none" />
      <path
         inkscape:connector-curvature="0"
         style="fill:#ff6600;fill-opacity:1;stroke:none"
         d="m 242.68174,662.93908 c -0.16761,0 -0.31564,0.11675 -0.31564,0.2428 l 0,36.03188 c 0,0.12605 0.14803,0.21852 0.31564,0.21852 l 35.8862,0 c 0.16762,0 0.29137,-0.0925 0.29137,-0.21852 l 0,-36.03188 c 0,-0.12605 -0.12375,-0.2428 -0.29137,-0.2428 l -35.8862,0 z m 4.61325,4.71037 26.63543,0 c 0.12436,0 0.21852,0.0765 0.21852,0.16996 l 0,26.75683 c 0,0.0935 -0.0942,0.14568 -0.21852,0.14568 l -26.63543,0 c -0.12436,0 -0.21852,-0.0521 -0.21852,-0.14568 l 0,-26.75683 c 0,-0.0935 0.0942,-0.16996 0.21852,-0.16996 z"
         id="path3713" />
      <path
         id="path3715"
         d="m 251.2025,682.67313 c -0.16761,0 -0.31564,0.11676 -0.31564,0.24281 l 0,36.03188 c 0,0.12604 0.14803,0.21852 0.31564,0.21852 l 35.8862,0 c 0.16762,0 0.29137,-0.0925 0.29137,-0.21852 l 0,-36.03188 c 0,-0.12605 -0.12375,-0.24281 -0.29137,-0.24281 l -35.8862,0 z m 4.61325,4.71037 26.63543,0 c 0.12436,0 0.21852,0.0765 0.21852,0.16996 l 0,26.75683 c 0,0.0935 -0.0942,0.14568 -0.21852,0.14568 l -26.63543,0 c -0.12436,0 -0.21852,-0.0521 -0.21852,-0.14568 l 0,-26.75683 c 0,-0.0935 0.0942,-0.16996 0.21852,-0.16996 z"
         style="fill:#00aad4;fill-opacity:1;stroke:none"
         inkscape:connector-curvature="0" />
      <rect
         ry="0.19479175"
         rx="0.25902182"
         y="682.71936"
         x="263.08035"
         height="4.6428571"
         width="4.6428571"
         id="rect3719"
         style="fill:#ffffff;fill-opacity:1;stroke:none" />
      <rect
         style="fill:#ffffff;fill-opacity:1;stroke:none"
         id="rect3721"
         width="4.6428571"
         height="4.6428571"
         x="274.15179"
         y="682.71936"
         rx="0.25902182"
         ry="0.19479175" />
      <rect
         ry="0.19479175"
         rx="0.25902182"
         y="694.72827"
         x="263.125"
         height="4.6428571"
         width="4.6428571"
         id="rect3723"
         style="fill:#ffffff;fill-opacity:1;stroke:none" />
      <rect
         style="fill:#ffffff;fill-opacity:1;stroke:none"
         id="rect3725"
         width="4.6428571"
         height="4.6428571"
         x="250.89285"
         y="694.72827"
         rx="0.25902182"
         ry="0.19479175" />
      <rect
         ry="0.19479175"
         rx="0.25902182"
         y="705.26398"
         x="250.89285"
         height="4.6428571"
         width="4.6428571"
         id="rect3727"
         style="fill:#ffffff;fill-opacity:1;stroke:none" />
      <rect
         style="fill:#ffffff;fill-opacity:1;stroke:none"
         id="rect3729"
         width="4.6428571"
         height="4.6428571"
         x="242.30655"
         y="673.69672"
         rx="0.25902182"
         ry="0.19479175" />
    </g>
  </g>
</svg>
