<?xml version="1.0" encoding="UTF-8" standalone="no"?>
<!-- Created with Inkscape (http://www.inkscape.org/) -->

<svg
   xmlns:dc="http://purl.org/dc/elements/1.1/"
   xmlns:cc="http://creativecommons.org/ns#"
   xmlns:rdf="http://www.w3.org/1999/02/22-rdf-syntax-ns#"
   xmlns:svg="http://www.w3.org/2000/svg"
   xmlns="http://www.w3.org/2000/svg"
   xmlns:xlink="http://www.w3.org/1999/xlink"
   xmlns:sodipodi="http://sodipodi.sourceforge.net/DTD/sodipodi-0.dtd"
   xmlns:inkscape="http://www.inkscape.org/namespaces/inkscape"
   width="640"
   height="400"
   id="svg2"
   version="1.1"
   inkscape:version="0.48.3.1 r9886"
   sodipodi:docname="jsplatform.svg">
  <defs
     id="defs4">
    <linearGradient
       inkscape:collect="always"
       id="linearGradient3923">
      <stop
         style="stop-color:#808080;stop-opacity:1;"
         offset="0"
         id="stop3925" />
      <stop
         style="stop-color:#808080;stop-opacity:0;"
         offset="1"
         id="stop3927" />
    </linearGradient>
    <filter
       inkscape:label="Drop Shadow"
       id="filter3778"
       color-interpolation-filters="sRGB">
      <feFlood
         result="flood"
         flood-color="rgb(0,0,0)"
         flood-opacity="0.8"
         id="feFlood3780" />
      <feComposite
         result="composite1"
         operator="in"
         in="flood"
         in2="SourceGraphic"
         id="feComposite3782" />
      <feGaussianBlur
         result="blur"
         stdDeviation="2"
         id="feGaussianBlur3784" />
      <feOffset
         result="offset"
         dy="0.4"
         dx="0.7"
         id="feOffset3786" />
      <feComposite
         result="composite2"
         operator="over"
         in="SourceGraphic"
         in2="offset"
         id="feComposite3788" />
    </filter>
    <filter
       inkscape:label="Drop Shadow"
       id="filter3766"
       color-interpolation-filters="sRGB">
      <feFlood
         result="flood"
         flood-color="rgb(0,0,0)"
         flood-opacity="0.8"
         id="feFlood3768" />
      <feComposite
         result="composite1"
         operator="in"
         in="flood"
         in2="SourceGraphic"
         id="feComposite3770" />
      <feGaussianBlur
         result="blur"
         stdDeviation="2"
         id="feGaussianBlur3772" />
      <feOffset
         result="offset"
         dy="0.4"
         dx="0.7"
         id="feOffset3774" />
      <feComposite
         result="composite2"
         operator="over"
         in="SourceGraphic"
         in2="offset"
         id="feComposite3776" />
    </filter>
    <filter
       inkscape:label="Drop Shadow"
       id="filter3754"
       color-interpolation-filters="sRGB">
      <feFlood
         result="flood"
         flood-color="rgb(0,0,0)"
         flood-opacity="0.8"
         id="feFlood3756" />
      <feComposite
         result="composite1"
         operator="in"
         in="flood"
         in2="SourceGraphic"
         id="feComposite3758" />
      <feGaussianBlur
         result="blur"
         stdDeviation="2"
         id="feGaussianBlur3760" />
      <feOffset
         result="offset"
         dy="0.4"
         dx="0.7"
         id="feOffset3762" />
      <feComposite
         result="composite2"
         operator="over"
         in="SourceGraphic"
         in2="offset"
         id="feComposite3764" />
    </filter>
    <filter
       inkscape:label="Drop Shadow"
       id="filter3742"
       color-interpolation-filters="sRGB">
      <feFlood
         result="flood"
         flood-color="rgb(0,0,0)"
         flood-opacity="0.8"
         id="feFlood3744" />
      <feComposite
         result="composite1"
         operator="in"
         in="flood"
         in2="SourceGraphic"
         id="feComposite3746" />
      <feGaussianBlur
         result="blur"
         stdDeviation="2"
         id="feGaussianBlur3748" />
      <feOffset
         result="offset"
         dy="0.4"
         dx="0.7"
         id="feOffset3750" />
      <feComposite
         result="composite2"
         operator="over"
         in="SourceGraphic"
         in2="offset"
         id="feComposite3752" />
    </filter>
    <radialGradient
       inkscape:collect="always"
       xlink:href="#linearGradient3923"
       id="radialGradient3931"
       cx="140.6658"
       cy="834.7157"
       fx="140.6658"
       fy="834.7157"
       r="320"
       gradientTransform="matrix(-0.20929466,1.3269913,-2.3942812,-0.37729084,2225.9746,846.27002)"
       gradientUnits="userSpaceOnUse" />
    <filter
       id="filter3384"
       style="color-interpolation-filters:sRGB;"
       inkscape:label="Drop Shadow">
      <feFlood
         id="feFlood3386"
         flood-opacity="0.9"
         flood-color="rgb(0,0,0)"
         result="flood" />
      <feComposite
         id="feComposite3388"
         in2="SourceGraphic"
         in="flood"
         operator="in"
         result="composite1" />
      <feGaussianBlur
         id="feGaussianBlur3390"
         in="composite"
         stdDeviation="3.5"
         result="blur" />
      <feOffset
         id="feOffset3392"
         dx="0"
         dy="0"
         result="offset" />
      <feComposite
         id="feComposite3394"
         in2="offset"
         in="SourceGraphic"
         operator="over"
         result="composite2" />
    </filter>
    <filter
       id="filter3396"
       style="color-interpolation-filters:sRGB;"
       inkscape:label="Drop Shadow">
      <feFlood
         id="feFlood3398"
         flood-opacity="0.9"
         flood-color="rgb(0,0,0)"
         result="flood" />
      <feComposite
         id="feComposite3400"
         in2="SourceGraphic"
         in="flood"
         operator="in"
         result="composite1" />
      <feGaussianBlur
         id="feGaussianBlur3402"
         in="composite"
         stdDeviation="3.5"
         result="blur" />
      <feOffset
         id="feOffset3404"
         dx="0"
         dy="0"
         result="offset" />
      <feComposite
         id="feComposite3406"
         in2="offset"
         in="SourceGraphic"
         operator="over"
         result="composite2" />
    </filter>
  </defs>
  <sodipodi:namedview
     id="base"
     pagecolor="#ffffff"
     bordercolor="#666666"
     borderopacity="1.0"
     inkscape:pageopacity="0.0"
     inkscape:pageshadow="2"
     inkscape:zoom="1.4"
     inkscape:cx="489.19605"
     inkscape:cy="229.5308"
     inkscape:document-units="px"
     inkscape:current-layer="layer1"
     showgrid="false"
     inkscape:window-width="1535"
     inkscape:window-height="876"
     inkscape:window-x="65"
     inkscape:window-y="24"
     inkscape:window-maximized="1" />
  <metadata
     id="metadata7">
    <rdf:RDF>
      <cc:Work
         rdf:about="">
        <dc:format>image/svg+xml</dc:format>
        <dc:type
           rdf:resource="http://purl.org/dc/dcmitype/StillImage" />
        <dc:title />
      </cc:Work>
    </rdf:RDF>
  </metadata>
  <g
     inkscape:label="Layer 1"
     inkscape:groupmode="layer"
     id="layer1"
     transform="translate(0,-652.36218)">
    <rect
       style="fill:url(#radialGradient3931);fill-opacity:1;stroke:none"
       id="rect3921"
       width="640"
       height="400"
       x="0"
       y="652.36218"
       rx="0.25803122"
       ry="0.19380301" />
    <g
       id="g3731"
       style="filter:url(#filter3742)"
       inkscape:export-filename="/home/andrei/Desktop/logo-16x16.png"
       inkscape:export-xdpi="21.41"
       inkscape:export-ydpi="21.41"
       transform="translate(-63.747856,13.59864)">
      <path
         inkscape:connector-curvature="0"
         id="rect3707"
         d="m 231.63559,673.53464 c -0.16761,0 -0.31564,0.11675 -0.31564,0.2428 l 0,36.03188 c 0,0.12605 0.14803,0.21852 0.31564,0.21852 l 35.8862,0 c 0.16762,0 0.29136,-0.0925 0.29136,-0.21852 l 0,-36.03188 c 0,-0.12605 -0.12374,-0.2428 -0.29136,-0.2428 l -35.8862,0 z m 4.61325,4.71036 26.63543,0 c 0.12436,0 0.21852,0.0765 0.21852,0.16996 l 0,26.75683 c 0,0.0935 -0.0942,0.14568 -0.21852,0.14568 l -26.63543,0 c -0.12436,0 -0.21852,-0.0521 -0.21852,-0.14568 l 0,-26.75683 c 0,-0.0935 0.0942,-0.16996 0.21852,-0.16996 z"
         style="fill:#4d4d4d;fill-opacity:1;stroke:none" />
      <path
         inkscape:connector-curvature="0"
         style="fill:#ff6600;fill-opacity:1;stroke:none"
         d="m 242.68174,662.93908 c -0.16761,0 -0.31564,0.11675 -0.31564,0.2428 l 0,36.03188 c 0,0.12605 0.14803,0.21852 0.31564,0.21852 l 35.8862,0 c 0.16762,0 0.29137,-0.0925 0.29137,-0.21852 l 0,-36.03188 c 0,-0.12605 -0.12375,-0.2428 -0.29137,-0.2428 l -35.8862,0 z m 4.61325,4.71037 26.63543,0 c 0.12436,0 0.21852,0.0765 0.21852,0.16996 l 0,26.75683 c 0,0.0935 -0.0942,0.14568 -0.21852,0.14568 l -26.63543,0 c -0.12436,0 -0.21852,-0.0521 -0.21852,-0.14568 l 0,-26.75683 c 0,-0.0935 0.0942,-0.16996 0.21852,-0.16996 z"
         id="path3713" />
      <path
         id="path3715"
         d="m 251.2025,682.67313 c -0.16761,0 -0.31564,0.11676 -0.31564,0.24281 l 0,36.03188 c 0,0.12604 0.14803,0.21852 0.31564,0.21852 l 35.8862,0 c 0.16762,0 0.29137,-0.0925 0.29137,-0.21852 l 0,-36.03188 c 0,-0.12605 -0.12375,-0.24281 -0.29137,-0.24281 l -35.8862,0 z m 4.61325,4.71037 26.63543,0 c 0.12436,0 0.21852,0.0765 0.21852,0.16996 l 0,26.75683 c 0,0.0935 -0.0942,0.14568 -0.21852,0.14568 l -26.63543,0 c -0.12436,0 -0.21852,-0.0521 -0.21852,-0.14568 l 0,-26.75683 c 0,-0.0935 0.0942,-0.16996 0.21852,-0.16996 z"
         style="fill:#00aad4;fill-opacity:1;stroke:none"
         inkscape:connector-curvature="0" />
      <rect
         ry="0.19479175"
         rx="0.25902182"
         y="682.71936"
         x="263.08035"
         height="4.6428571"
         width="4.6428571"
         id="rect3719"
         style="fill:#ffffff;fill-opacity:1;stroke:none" />
      <rect
         style="fill:#ffffff;fill-opacity:1;stroke:none"
         id="rect3721"
         width="4.6428571"
         height="4.6428571"
         x="274.15179"
         y="682.71936"
         rx="0.25902182"
         ry="0.19479175" />
      <rect
         ry="0.19479175"
         rx="0.25902182"
         y="694.72827"
         x="263.125"
         height="4.6428571"
         width="4.6428571"
         id="rect3723"
         style="fill:#ffffff;fill-opacity:1;stroke:none" />
      <rect
         style="fill:#ffffff;fill-opacity:1;stroke:none"
         id="rect3725"
         width="4.6428571"
         height="4.6428571"
         x="250.89285"
         y="694.72827"
         rx="0.25902182"
         ry="0.19479175" />
      <rect
         ry="0.19479175"
         rx="0.25902182"
         y="705.26398"
         x="250.89285"
         height="4.6428571"
         width="4.6428571"
         id="rect3727"
         style="fill:#ffffff;fill-opacity:1;stroke:none" />
      <rect
         style="fill:#ffffff;fill-opacity:1;stroke:none"
         id="rect3729"
         width="4.6428571"
         height="4.6428571"
         x="242.30655"
         y="673.69672"
         rx="0.25902182"
         ry="0.19479175" />
    </g>
    <g
       id="g3171"
       transform="translate(0.71428569,2.1428571)">
      <g
         style="font-size:38.06494904px;font-style:normal;font-weight:normal;line-height:125%;letter-spacing:0px;word-spacing:0px;fill:#000000;fill-opacity:1;stroke:none;font-family:Sans"
         id="g3149">
        <path
           d="m 243.45338,690.51737 c 1.12756,2e-5 1.98253,-0.2478 2.56492,-0.74346 0.58236,-0.49562 0.87354,-1.22668 0.87356,-2.19319 -2e-5,-0.95408 -0.2912,-1.67895 -0.87356,-2.17461 -0.58239,-0.50801 -1.43736,-0.76202 -2.56492,-0.76204 l -3.95891,0 0,5.8733 3.95891,0 m 0.24162,12.13692 c 1.43733,0 2.51534,-0.30357 3.23404,-0.91073 0.73104,-0.60715 1.09657,-1.52408 1.09659,-2.75079 -2e-5,-1.20191 -0.35935,-2.10025 -1.07801,-2.69503 -0.71869,-0.60714 -1.8029,-0.91072 -3.25262,-0.91073 l -4.20053,0 0,7.26728 4.20053,0 m 6.65393,-9.9809 c 1.53646,0.44609 2.72598,1.27009 3.56859,2.47199 0.84256,1.20193 1.26385,2.67645 1.26388,4.42357 -3e-5,2.67644 -0.90457,4.67138 -2.71362,5.98482 -1.8091,1.31344 -4.55988,1.97016 -8.25236,1.97016 l -11.87671,0 0,-27.7495 10.74294,0 c 3.85356,3e-5 6.64152,0.5824 8.36388,1.74712 1.73471,1.16477 2.60207,3.02961 2.6021,5.59451 -3e-5,1.35063 -0.316,2.50298 -0.94791,3.45707 -0.63196,0.94173 -1.54889,1.64181 -2.75079,2.10026"
           style="font-weight:bold;fill:#000000"
           id="path3151"
           inkscape:connector-curvature="0" />
        <path
           d="m 276.5,692.37601 c -0.58239,-0.27259 -1.16477,-0.47084 -1.74712,-0.59477 -0.57,-0.13628 -1.14618,-0.20443 -1.72854,-0.20445 -1.70996,2e-5 -3.02959,0.55142 -3.9589,1.65419 -0.91694,1.09042 -1.3754,2.65787 -1.3754,4.70236 l 0,9.59059 -6.65393,0 0,-20.81677 6.65393,0 0,3.41989 c 0.85497,-1.36298 1.83385,-2.35425 2.93666,-2.97382 1.11517,-0.63192 2.44719,-0.94788 3.99607,-0.94791 0.22302,3e-5 0.46465,0.0124 0.72487,0.0372 0.26019,0.0124 0.63812,0.0496 1.13377,0.11152 l 0.0186,6.02199"
           style="font-weight:bold;fill:#000000"
           id="path3153"
           inkscape:connector-curvature="0" />
        <path
           d="m 289.7521,690.96344 c -1.47453,2e-5 -2.6021,0.53283 -3.38272,1.59843 -0.76825,1.05325 -1.15237,2.57733 -1.15236,4.57226 -10e-6,1.99495 0.38411,3.52523 1.15236,4.59084 0.78062,1.05323 1.90819,1.57985 3.38272,1.57984 1.44973,10e-6 2.55871,-0.52661 3.32697,-1.57984 0.76822,-1.06561 1.15234,-2.59589 1.15235,-4.59084 -1e-5,-1.99493 -0.38413,-3.51901 -1.15235,-4.57226 -0.76826,-1.0656 -1.87724,-1.59841 -3.32697,-1.59843 m 0,-4.75812 c 3.58097,3e-5 6.37512,0.96652 8.38247,2.89948 2.0197,1.933 3.02956,4.60944 3.02958,8.02933 -2e-5,3.4199 -1.00988,6.09634 -3.02958,8.02932 -2.00735,1.93299 -4.8015,2.89948 -8.38247,2.89948 -3.59338,0 -6.40612,-0.96649 -8.43822,-2.89948 -2.01973,-1.93298 -3.02959,-4.60942 -3.02959,-8.02932 0,-3.41989 1.00986,-6.09633 3.02959,-8.02933 2.0321,-1.93296 4.84484,-2.89945 8.43822,-2.89948"
           style="font-weight:bold;fill:#000000"
           id="path3155"
           inkscape:connector-curvature="0" />
        <path
           d="m 304.15656,686.70716 6.46807,0 3.49425,14.3487 3.51283,-14.3487 5.55733,0 3.49424,14.20001 3.51283,-14.20001 6.46807,0 -5.48299,20.81677 -7.26728,0 -3.51283,-14.31153 -3.49424,14.31153 -7.26729,0 -5.48299,-20.81677"
           style="font-weight:bold;fill:#000000"
           id="path3157"
           inkscape:connector-curvature="0" />
        <path
           d="m 357.44377,687.35768 0,5.0555 c -1.42497,-0.59475 -2.80037,-1.04082 -4.12618,-1.33822 -1.32584,-0.29736 -2.57733,-0.44606 -3.75445,-0.44607 -1.26389,1e-5 -2.2056,0.1611 -2.82513,0.48324 -0.60717,0.30979 -0.91075,0.79304 -0.91074,1.44974 -10e-6,0.53283 0.22923,0.94173 0.6877,1.22671 0.47084,0.285 1.30723,0.49565 2.50916,0.63193 l 1.17095,0.16728 c 3.40749,0.4337 5.69981,1.14617 6.87696,2.13744 1.17712,0.99128 1.76569,2.54634 1.76571,4.66518 -2e-5,2.21798 -0.81782,3.88456 -2.4534,4.99975 -1.63562,1.11518 -4.07663,1.67277 -7.32304,1.67277 -1.37541,0 -2.80036,-0.11152 -4.27488,-0.33455 -1.46213,-0.21065 -2.96763,-0.53281 -4.51649,-0.9665 l 0,-5.0555 c 1.32582,0.64434 2.68263,1.12758 4.07042,1.44974 1.40017,0.32217 2.81893,0.48325 4.25629,0.48325 1.30103,0 2.27991,-0.17967 2.93665,-0.53901 0.6567,-0.35933 0.98506,-0.89214 0.98508,-1.59843 -2e-5,-0.59476 -0.22925,-1.03463 -0.6877,-1.31963 -0.44609,-0.29738 -1.34443,-0.52661 -2.69503,-0.6877 l -1.17094,-0.14869 c -2.96144,-0.37172 -5.03692,-1.05942 -6.22645,-2.06309 -1.18953,-1.00366 -1.78429,-2.52774 -1.78429,-4.57226 0,-2.20556 0.75584,-3.84117 2.26754,-4.90681 1.51169,-1.0656 3.82879,-1.5984 6.95131,-1.59843 1.22669,3e-5 2.51535,0.093 3.86598,0.2788 1.35059,0.18588 2.81891,0.47707 4.40497,0.87356"
           style="font-weight:bold;fill:#000000"
           id="path3159"
           inkscape:connector-curvature="0" />
        <path
           d="m 384.63568,697.05978 0,1.89581 -15.55681,0 c 0.16107,1.56127 0.72486,2.73221 1.69136,3.51283 0.96648,0.78064 2.31709,1.17095 4.05183,1.17095 1.40016,0 2.83131,-0.20445 4.29346,-0.61335 1.4745,-0.42129 2.9862,-1.05323 4.53508,-1.89582 l 0,5.12985 c -1.57367,0.59477 -3.14731,1.04084 -4.72094,1.33822 -1.57367,0.30977 -3.14731,0.46466 -4.72095,0.46466 -3.76685,0 -6.6973,-0.9541 -8.79137,-2.8623 -2.08168,-1.92059 -3.12251,-4.60942 -3.12251,-8.0665 0,-3.3951 1.02225,-6.06535 3.06675,-8.01074 2.05689,-1.94536 4.88202,-2.91804 8.4754,-2.91807 3.27119,3e-5 5.88568,0.9851 7.84346,2.95524 1.97014,1.97018 2.95522,4.60325 2.95524,7.89922 m -6.83979,-2.21178 c -2e-5,-1.26386 -0.37175,-2.27992 -1.11519,-3.04817 -0.73108,-0.78061 -1.69137,-1.17093 -2.88089,-1.17094 -1.28867,1e-5 -2.3357,0.36555 -3.1411,1.0966 -0.80542,0.71868 -1.30725,1.75952 -1.5055,3.12251 l 8.64268,0"
           style="font-weight:bold;fill:#000000"
           id="path3161"
           inkscape:connector-curvature="0" />
        <path
           d="m 405.11788,692.37601 c -0.58239,-0.27259 -1.16476,-0.47084 -1.74712,-0.59477 -0.57,-0.13628 -1.14617,-0.20443 -1.72853,-0.20445 -1.70996,2e-5 -3.0296,0.55142 -3.95891,1.65419 -0.91694,1.09042 -1.3754,2.65787 -1.37539,4.70236 l 0,9.59059 -6.65393,0 0,-20.81677 6.65393,0 0,3.41989 c 0.85496,-1.36298 1.83385,-2.35425 2.93665,-2.97382 1.11517,-0.63192 2.4472,-0.94788 3.99608,-0.94791 0.22302,3e-5 0.46464,0.0124 0.72487,0.0372 0.26019,0.0124 0.63811,0.0496 1.13377,0.11152 l 0.0186,6.02199"
           style="font-weight:bold;fill:#000000"
           id="path3163"
           inkscape:connector-curvature="0" />
      </g>
      <g
         style="font-size:36.7256279px;font-style:normal;font-weight:normal;line-height:125%;letter-spacing:0px;word-spacing:0px;fill:#000000;fill-opacity:1;stroke:none;font-family:Sans"
         id="g3165">
        <path
           d="m 431.48345,685.65039 c -2.10408,2e-5 -3.73593,0.77709 -4.89555,2.33122 -1.15964,1.55416 -1.73946,3.74191 -1.73945,6.56327 -1e-5,2.80942 0.57981,4.9912 1.73945,6.54534 1.15962,1.55415 2.79147,2.33122 4.89555,2.33121 2.11601,10e-6 3.75384,-0.77706 4.91349,-2.33121 1.15961,-1.55414 1.73942,-3.73592 1.73945,-6.54534 -3e-5,-2.82136 -0.57984,-5.00911 -1.73945,-6.56327 -1.15965,-1.55413 -2.79748,-2.3312 -4.91349,-2.33122 m 0,-5.00315 c 4.30377,3e-5 7.67506,1.23139 10.1139,3.69408 2.43878,2.46274 3.65818,5.86392 3.65821,10.20356 -3e-5,4.3277 -1.21943,7.7229 -3.65821,10.18562 -2.43884,2.46272 -5.81013,3.69408 -10.1139,3.69408 -4.29184,0 -7.66313,-1.23136 -10.11389,-3.69408 -2.43882,-2.46272 -3.65822,-5.85792 -3.65822,-10.18562 0,-4.33964 1.2194,-7.74082 3.65822,-10.20356 2.45076,-2.46269 5.82205,-3.69405 10.11389,-3.69408"
           style="font-weight:bold;fill:#000000"
           id="path3167"
           inkscape:connector-curvature="0" />
        <path
           d="m 469.08777,681.97424 0,5.66665 c -1.47048,-0.6575 -2.90507,-1.15363 -4.30379,-1.48839 -1.39874,-0.33472 -2.71976,-0.50209 -3.96306,-0.50211 -1.6498,2e-5 -2.8692,0.22716 -3.65822,0.68143 -0.78904,0.45431 -1.18355,1.15965 -1.18354,2.11603 -10e-6,0.71731 0.263,1.2792 0.78903,1.68565 0.53796,0.39453 1.50631,0.73524 2.90505,1.02215 l 2.94092,0.59177 c 2.97677,0.59776 5.09279,1.50634 6.34808,2.72573 1.25525,1.21941 1.88288,2.95288 1.88291,5.2004 -3e-5,2.95288 -0.87871,5.15259 -2.63607,6.59914 -1.74544,1.43459 -4.41737,2.15189 -8.0158,2.15189 -1.69761,0 -3.40119,-0.16139 -5.11074,-0.48417 -1.70957,-0.32279 -3.41913,-0.80099 -5.12868,-1.4346 l 0,-5.82804 c 1.70955,0.90858 3.35934,1.59599 4.94935,2.06223 1.60196,0.45429 3.14415,0.68144 4.62657,0.68143 1.50631,10e-6 2.65996,-0.25105 3.46096,-0.75316 0.80097,-0.5021 1.20146,-1.2194 1.20147,-2.15189 -10e-6,-0.83684 -0.27498,-1.48241 -0.82489,-1.93671 -0.53799,-0.45427 -1.61991,-0.86074 -3.24577,-1.2194 l -2.67193,-0.59177 c -2.67792,-0.57383 -4.63853,-1.48838 -5.88184,-2.74366 -1.23136,-1.25526 -1.84704,-2.94688 -1.84704,-5.07488 0,-2.66594 0.86075,-4.71621 2.58227,-6.15083 1.72151,-1.43457 4.19618,-2.15186 7.42403,-2.15189 1.47044,3e-5 2.98274,0.1136 4.5369,0.34072 1.55413,0.21521 3.16207,0.54397 4.82383,0.98628"
           style="font-weight:bold;fill:#000000"
           id="path3169"
           inkscape:connector-curvature="0" />
      </g>
    </g>
    <g
       style="font-size:38.06494904px;font-style:normal;font-weight:normal;line-height:125%;letter-spacing:0px;word-spacing:0px;fill:#ffffff;fill-opacity:1;stroke:none;font-family:Sans"
       id="text3085">
      <path
         d="m 243.45338,690.51737 c 1.12756,2e-5 1.98253,-0.2478 2.56492,-0.74346 0.58236,-0.49562 0.87354,-1.22668 0.87356,-2.19319 -2e-5,-0.95408 -0.2912,-1.67895 -0.87356,-2.17461 -0.58239,-0.50801 -1.43736,-0.76202 -2.56492,-0.76204 l -3.95891,0 0,5.8733 3.95891,0 m 0.24162,12.13692 c 1.43733,0 2.51534,-0.30357 3.23404,-0.91073 0.73104,-0.60715 1.09657,-1.52408 1.09659,-2.75079 -2e-5,-1.20191 -0.35935,-2.10025 -1.07801,-2.69503 -0.71869,-0.60714 -1.8029,-0.91072 -3.25262,-0.91073 l -4.20053,0 0,7.26728 4.20053,0 m 6.65393,-9.9809 c 1.53646,0.44609 2.72598,1.27009 3.56859,2.47199 0.84256,1.20193 1.26385,2.67645 1.26388,4.42357 -3e-5,2.67644 -0.90457,4.67138 -2.71362,5.98482 -1.8091,1.31344 -4.55988,1.97016 -8.25236,1.97016 l -11.87671,0 0,-27.7495 10.74294,0 c 3.85356,3e-5 6.64152,0.5824 8.36388,1.74712 1.73471,1.16477 2.60207,3.02961 2.6021,5.59451 -3e-5,1.35063 -0.316,2.50298 -0.94791,3.45707 -0.63196,0.94173 -1.54889,1.64181 -2.75079,2.10026"
         style="font-weight:bold;fill:#ffffff"
         id="path3094" />
      <path
         d="m 276.5,692.37601 c -0.58239,-0.27259 -1.16477,-0.47084 -1.74712,-0.59477 -0.57,-0.13628 -1.14618,-0.20443 -1.72854,-0.20445 -1.70996,2e-5 -3.02959,0.55142 -3.9589,1.65419 -0.91694,1.09042 -1.3754,2.65787 -1.3754,4.70236 l 0,9.59059 -6.65393,0 0,-20.81677 6.65393,0 0,3.41989 c 0.85497,-1.36298 1.83385,-2.35425 2.93666,-2.97382 1.11517,-0.63192 2.44719,-0.94788 3.99607,-0.94791 0.22302,3e-5 0.46465,0.0124 0.72487,0.0372 0.26019,0.0124 0.63812,0.0496 1.13377,0.11152 l 0.0186,6.02199"
         style="font-weight:bold;fill:#ffffff"
         id="path3096" />
      <path
         d="m 289.7521,690.96344 c -1.47453,2e-5 -2.6021,0.53283 -3.38272,1.59843 -0.76825,1.05325 -1.15237,2.57733 -1.15236,4.57226 -10e-6,1.99495 0.38411,3.52523 1.15236,4.59084 0.78062,1.05323 1.90819,1.57985 3.38272,1.57984 1.44973,10e-6 2.55871,-0.52661 3.32697,-1.57984 0.76822,-1.06561 1.15234,-2.59589 1.15235,-4.59084 -1e-5,-1.99493 -0.38413,-3.51901 -1.15235,-4.57226 -0.76826,-1.0656 -1.87724,-1.59841 -3.32697,-1.59843 m 0,-4.75812 c 3.58097,3e-5 6.37512,0.96652 8.38247,2.89948 2.0197,1.933 3.02956,4.60944 3.02958,8.02933 -2e-5,3.4199 -1.00988,6.09634 -3.02958,8.02932 -2.00735,1.93299 -4.8015,2.89948 -8.38247,2.89948 -3.59338,0 -6.40612,-0.96649 -8.43822,-2.89948 -2.01973,-1.93298 -3.02959,-4.60942 -3.02959,-8.02932 0,-3.41989 1.00986,-6.09633 3.02959,-8.02933 2.0321,-1.93296 4.84484,-2.89945 8.43822,-2.89948"
         style="font-weight:bold;fill:#ffffff"
         id="path3098" />
      <path
         d="m 304.15656,686.70716 6.46807,0 3.49425,14.3487 3.51283,-14.3487 5.55733,0 3.49424,14.20001 3.51283,-14.20001 6.46807,0 -5.48299,20.81677 -7.26728,0 -3.51283,-14.31153 -3.49424,14.31153 -7.26729,0 -5.48299,-20.81677"
         style="font-weight:bold;fill:#ffffff"
         id="path3100" />
      <path
         d="m 357.44377,687.35768 0,5.0555 c -1.42497,-0.59475 -2.80037,-1.04082 -4.12618,-1.33822 -1.32584,-0.29736 -2.57733,-0.44606 -3.75445,-0.44607 -1.26389,1e-5 -2.2056,0.1611 -2.82513,0.48324 -0.60717,0.30979 -0.91075,0.79304 -0.91074,1.44974 -10e-6,0.53283 0.22923,0.94173 0.6877,1.22671 0.47084,0.285 1.30723,0.49565 2.50916,0.63193 l 1.17095,0.16728 c 3.40749,0.4337 5.69981,1.14617 6.87696,2.13744 1.17712,0.99128 1.76569,2.54634 1.76571,4.66518 -2e-5,2.21798 -0.81782,3.88456 -2.4534,4.99975 -1.63562,1.11518 -4.07663,1.67277 -7.32304,1.67277 -1.37541,0 -2.80036,-0.11152 -4.27488,-0.33455 -1.46213,-0.21065 -2.96763,-0.53281 -4.51649,-0.9665 l 0,-5.0555 c 1.32582,0.64434 2.68263,1.12758 4.07042,1.44974 1.40017,0.32217 2.81893,0.48325 4.25629,0.48325 1.30103,0 2.27991,-0.17967 2.93665,-0.53901 0.6567,-0.35933 0.98506,-0.89214 0.98508,-1.59843 -2e-5,-0.59476 -0.22925,-1.03463 -0.6877,-1.31963 -0.44609,-0.29738 -1.34443,-0.52661 -2.69503,-0.6877 l -1.17094,-0.14869 c -2.96144,-0.37172 -5.03692,-1.05942 -6.22645,-2.06309 -1.18953,-1.00366 -1.78429,-2.52774 -1.78429,-4.57226 0,-2.20556 0.75584,-3.84117 2.26754,-4.90681 1.51169,-1.0656 3.82879,-1.5984 6.95131,-1.59843 1.22669,3e-5 2.51535,0.093 3.86598,0.2788 1.35059,0.18588 2.81891,0.47707 4.40497,0.87356"
         style="font-weight:bold;fill:#ffffff"
         id="path3102" />
      <path
         d="m 384.63568,697.05978 0,1.89581 -15.55681,0 c 0.16107,1.56127 0.72486,2.73221 1.69136,3.51283 0.96648,0.78064 2.31709,1.17095 4.05183,1.17095 1.40016,0 2.83131,-0.20445 4.29346,-0.61335 1.4745,-0.42129 2.9862,-1.05323 4.53508,-1.89582 l 0,5.12985 c -1.57367,0.59477 -3.14731,1.04084 -4.72094,1.33822 -1.57367,0.30977 -3.14731,0.46466 -4.72095,0.46466 -3.76685,0 -6.6973,-0.9541 -8.79137,-2.8623 -2.08168,-1.92059 -3.12251,-4.60942 -3.12251,-8.0665 0,-3.3951 1.02225,-6.06535 3.06675,-8.01074 2.05689,-1.94536 4.88202,-2.91804 8.4754,-2.91807 3.27119,3e-5 5.88568,0.9851 7.84346,2.95524 1.97014,1.97018 2.95522,4.60325 2.95524,7.89922 m -6.83979,-2.21178 c -2e-5,-1.26386 -0.37175,-2.27992 -1.11519,-3.04817 -0.73108,-0.78061 -1.69137,-1.17093 -2.88089,-1.17094 -1.28867,1e-5 -2.3357,0.36555 -3.1411,1.0966 -0.80542,0.71868 -1.30725,1.75952 -1.5055,3.12251 l 8.64268,0"
         style="font-weight:bold;fill:#ffffff"
         id="path3104" />
      <path
         d="m 405.11788,692.37601 c -0.58239,-0.27259 -1.16476,-0.47084 -1.74712,-0.59477 -0.57,-0.13628 -1.14617,-0.20443 -1.72853,-0.20445 -1.70996,2e-5 -3.0296,0.55142 -3.95891,1.65419 -0.91694,1.09042 -1.3754,2.65787 -1.37539,4.70236 l 0,9.59059 -6.65393,0 0,-20.81677 6.65393,0 0,3.41989 c 0.85496,-1.36298 1.83385,-2.35425 2.93665,-2.97382 1.11517,-0.63192 2.4472,-0.94788 3.99608,-0.94791 0.22302,3e-5 0.46464,0.0124 0.72487,0.0372 0.26019,0.0124 0.63811,0.0496 1.13377,0.11152 l 0.0186,6.02199"
         style="font-weight:bold;fill:#ffffff"
         id="path3106" />
    </g>
    <g
       style="font-size:36.7256279px;font-style:normal;font-weight:normal;line-height:125%;letter-spacing:0px;word-spacing:0px;fill:#d40000;fill-opacity:1;stroke:none;font-family:Sans"
       id="text3089">
      <path
         d="m 431.48345,685.65039 c -2.10408,2e-5 -3.73593,0.77709 -4.89555,2.33122 -1.15964,1.55416 -1.73946,3.74191 -1.73945,6.56327 -1e-5,2.80942 0.57981,4.9912 1.73945,6.54534 1.15962,1.55415 2.79147,2.33122 4.89555,2.33121 2.11601,10e-6 3.75384,-0.77706 4.91349,-2.33121 1.15961,-1.55414 1.73942,-3.73592 1.73945,-6.54534 -3e-5,-2.82136 -0.57984,-5.00911 -1.73945,-6.56327 -1.15965,-1.55413 -2.79748,-2.3312 -4.91349,-2.33122 m 0,-5.00315 c 4.30377,3e-5 7.67506,1.23139 10.1139,3.69408 2.43878,2.46274 3.65818,5.86392 3.65821,10.20356 -3e-5,4.3277 -1.21943,7.7229 -3.65821,10.18562 -2.43884,2.46272 -5.81013,3.69408 -10.1139,3.69408 -4.29184,0 -7.66313,-1.23136 -10.11389,-3.69408 -2.43882,-2.46272 -3.65822,-5.85792 -3.65822,-10.18562 0,-4.33964 1.2194,-7.74082 3.65822,-10.20356 2.45076,-2.46269 5.82205,-3.69405 10.11389,-3.69408"
         style="font-weight:bold;fill:#d40000"
         id="path3109" />
      <path
         d="m 469.08777,681.97424 0,5.66665 c -1.47048,-0.6575 -2.90507,-1.15363 -4.30379,-1.48839 -1.39874,-0.33472 -2.71976,-0.50209 -3.96306,-0.50211 -1.6498,2e-5 -2.8692,0.22716 -3.65822,0.68143 -0.78904,0.45431 -1.18355,1.15965 -1.18354,2.11603 -10e-6,0.71731 0.263,1.2792 0.78903,1.68565 0.53796,0.39453 1.50631,0.73524 2.90505,1.02215 l 2.94092,0.59177 c 2.97677,0.59776 5.09279,1.50634 6.34808,2.72573 1.25525,1.21941 1.88288,2.95288 1.88291,5.2004 -3e-5,2.95288 -0.87871,5.15259 -2.63607,6.59914 -1.74544,1.43459 -4.41737,2.15189 -8.0158,2.15189 -1.69761,0 -3.40119,-0.16139 -5.11074,-0.48417 -1.70957,-0.32279 -3.41913,-0.80099 -5.12868,-1.4346 l 0,-5.82804 c 1.70955,0.90858 3.35934,1.59599 4.94935,2.06223 1.60196,0.45429 3.14415,0.68144 4.62657,0.68143 1.50631,10e-6 2.65996,-0.25105 3.46096,-0.75316 0.80097,-0.5021 1.20146,-1.2194 1.20147,-2.15189 -10e-6,-0.83684 -0.27498,-1.48241 -0.82489,-1.93671 -0.53799,-0.45427 -1.61991,-0.86074 -3.24577,-1.2194 l -2.67193,-0.59177 c -2.67792,-0.57383 -4.63853,-1.48838 -5.88184,-2.74366 -1.23136,-1.25526 -1.84704,-2.94688 -1.84704,-5.07488 0,-2.66594 0.86075,-4.71621 2.58227,-6.15083 1.72151,-1.43457 4.19618,-2.15186 7.42403,-2.15189 1.47044,3e-5 2.98274,0.1136 4.5369,0.34072 1.55413,0.21521 3.16207,0.54397 4.82383,0.98628"
         style="font-weight:bold;fill:#d40000"
         id="path3111" />
    </g>
    <g
       style="font-size:14.15760708px;font-style:normal;font-weight:normal;line-height:125%;letter-spacing:0px;word-spacing:0px;fill:#000000;fill-opacity:1;stroke:none;font-family:Sans"
       id="text3184">
      <path
         d="m 238.55471,722.21527 0,1.88031 c -0.53,-0.22121 -1.04155,-0.38712 -1.53466,-0.49773 -0.49313,-0.1106 -0.9586,-0.16591 -1.39641,-0.16591 -0.47008,0 -0.82033,0.0599 -1.05076,0.17973 -0.22582,0.11522 -0.33873,0.29496 -0.33873,0.53921 0,0.19817 0.0853,0.35026 0.25578,0.45625 0.17512,0.106 0.4862,0.18435 0.93324,0.23504 l 0.43551,0.0622 c 1.26736,0.16131 2.11995,0.4263 2.55777,0.79499 0.43781,0.36869 0.65672,0.94707 0.65673,1.73513 -1e-5,0.82494 -0.30418,1.4448 -0.91251,1.85957 -0.60834,0.41478 -1.51623,0.62216 -2.72368,0.62216 -0.51155,0 -1.04154,-0.0415 -1.58996,-0.12443 -0.54382,-0.0784 -1.10376,-0.19817 -1.67983,-0.35947 l 0,-1.88031 c 0.49311,0.23965 0.99775,0.41939 1.51392,0.53921 0.52077,0.11982 1.04845,0.17974 1.58305,0.17973 0.4839,1e-5 0.84798,-0.0668 1.09224,-0.20047 0.24425,-0.13365 0.36638,-0.33182 0.36638,-0.59451 0,-0.22121 -0.0853,-0.38481 -0.25577,-0.49081 -0.16592,-0.11061 -0.50004,-0.19587 -1.00237,-0.25578 l -0.43552,-0.0553 c -1.10145,-0.13826 -1.87339,-0.39404 -2.31582,-0.76734 -0.44242,-0.37329 -0.66363,-0.94014 -0.66363,-1.70057 0,-0.82032 0.28112,-1.42866 0.84337,-1.825 0.56225,-0.39633 1.42405,-0.5945 2.58542,-0.59451 0.45625,1e-5 0.93554,0.0346 1.43788,0.10369 0.50233,0.0691 1.04845,0.17744 1.63836,0.32491"
         style="font-weight:bold"
         id="path3244" />
      <path
         d="m 248.66827,725.8238 0,0.70512 -5.78609,0 c 0.0599,0.58068 0.2696,1.01619 0.62908,1.30653 0.35946,0.29035 0.8618,0.43552 1.50701,0.43551 0.52076,1e-5 1.05305,-0.076 1.59687,-0.22812 0.54842,-0.15669 1.11067,-0.39173 1.68675,-0.70512 l 0,1.90796 c -0.5853,0.22122 -1.17059,0.38712 -1.75587,0.49773 -0.5853,0.11522 -1.17059,0.17282 -1.75588,0.17282 -1.40102,0 -2.49095,-0.35486 -3.2698,-1.06458 -0.77424,-0.71433 -1.16137,-1.7144 -1.16136,-3.0002 -1e-5,-1.26275 0.3802,-2.2559 1.14062,-2.97946 0.76503,-0.72354 1.81579,-1.08531 3.15228,-1.08532 1.21667,1e-5 2.18908,0.36639 2.91724,1.09915 0.73276,0.73277 1.09915,1.7121 1.09915,2.93798 m -2.54394,-0.82263 c -10e-6,-0.47008 -0.13826,-0.84798 -0.41477,-1.13372 -0.27192,-0.29033 -0.62908,-0.43551 -1.0715,-0.43551 -0.4793,0 -0.86873,0.13596 -1.16828,0.40786 -0.29956,0.2673 -0.48621,0.65443 -0.55995,1.16137 l 3.2145,0"
         style="font-weight:bold"
         id="path3246" />
      <path
         d="m 256.28628,724.08175 c -0.21661,-0.10138 -0.43321,-0.17512 -0.64981,-0.22121 -0.212,-0.0507 -0.4263,-0.076 -0.6429,-0.076 -0.63599,0 -1.1268,0.20508 -1.47244,0.61524 -0.34104,0.40557 -0.51156,0.98855 -0.51156,1.74897 l 0,3.56705 -2.47481,0 0,-7.74244 2.47481,0 0,1.27197 c 0.31799,-0.50694 0.68207,-0.87563 1.09224,-1.10606 0.41477,-0.23503 0.91019,-0.35255 1.48627,-0.35256 0.083,1e-5 0.17282,0.005 0.2696,0.0138 0.0968,0.005 0.23734,0.0184 0.42169,0.0415 l 0.007,2.23978"
         style="font-weight:bold"
         id="path3248" />
      <path
         d="m 257.5306,721.97332 2.47482,0 0,7.74244 -2.47482,0 0,-7.74244 m 0,-3.01402 2.47482,0 0,2.01856 -2.47482,0 0,-2.01856"
         style="font-weight:bold"
         id="path3250" />
      <path
         d="m 266.08185,723.55637 c -0.54842,10e-6 -0.96781,0.19818 -1.25814,0.59451 -0.28574,0.39174 -0.42861,0.95859 -0.4286,1.70057 -10e-6,0.74199 0.14286,1.31115 0.4286,1.70749 0.29033,0.39173 0.70972,0.58759 1.25814,0.58759 0.5392,0 0.95167,-0.19586 1.23741,-0.58759 0.28573,-0.39634 0.42859,-0.9655 0.4286,-1.70749 -10e-6,-0.74198 -0.14287,-1.30883 -0.4286,-1.70057 -0.28574,-0.39633 -0.69821,-0.5945 -1.23741,-0.59451 m 0,-1.7697 c 1.33188,1e-5 2.37112,0.35948 3.11772,1.07841 0.75119,0.71895 1.12679,1.7144 1.1268,2.98637 -10e-6,1.27198 -0.37561,2.26743 -1.1268,2.98637 -0.7466,0.71894 -1.78584,1.07841 -3.11772,1.07841 -1.33649,0 -2.38264,-0.35947 -3.13845,-1.07841 -0.7512,-0.71894 -1.1268,-1.71439 -1.1268,-2.98637 0,-1.27197 0.3756,-2.26742 1.1268,-2.98637 0.75581,-0.71893 1.80196,-1.0784 3.13845,-1.07841"
         style="font-weight:bold"
         id="path3252" />
      <path
         d="m 272.04768,726.70174 0,-4.72842 2.48864,0 0,0.77424 c 0,0.41939 -0.002,0.94707 -0.007,1.58305 -0.005,0.63139 -0.007,1.05307 -0.007,1.26506 0,0.62217 0.0161,1.07151 0.0484,1.34802 0.0323,0.27191 0.0876,0.47008 0.16591,0.59451 0.10138,0.1613 0.23273,0.28573 0.39403,0.37329 0.16591,0.0876 0.35486,0.13135 0.56686,0.13135 0.51616,0 0.92171,-0.19817 1.21667,-0.59451 0.29494,-0.39634 0.44242,-0.94706 0.44243,-1.65218 l 0,-3.82283 2.47481,0 0,7.74244 -2.47481,0 0,-1.11989 c -0.37331,0.45164 -0.76965,0.78577 -1.18902,1.00237 -0.41478,0.212 -0.87334,0.31799 -1.37567,0.31799 -0.89407,0 -1.57614,-0.27421 -2.04621,-0.82263 -0.46547,-0.54842 -0.69821,-1.34571 -0.69821,-2.39186"
         style="font-weight:bold"
         id="path3254" />
      <path
         d="m 288.27224,722.21527 0,1.88031 c -0.52999,-0.22121 -1.04155,-0.38712 -1.53466,-0.49773 -0.49312,-0.1106 -0.95859,-0.16591 -1.3964,-0.16591 -0.47008,0 -0.82034,0.0599 -1.05076,0.17973 -0.22583,0.11522 -0.33874,0.29496 -0.33874,0.53921 0,0.19817 0.0853,0.35026 0.25578,0.45625 0.17512,0.106 0.4862,0.18435 0.93324,0.23504 l 0.43551,0.0622 c 1.26736,0.16131 2.11995,0.4263 2.55778,0.79499 0.4378,0.36869 0.65671,0.94707 0.65672,1.73513 -10e-6,0.82494 -0.30417,1.4448 -0.9125,1.85957 -0.60834,0.41478 -1.51624,0.62216 -2.72368,0.62216 -0.51156,0 -1.04155,-0.0415 -1.58997,-0.12443 -0.54381,-0.0784 -1.10376,-0.19817 -1.67983,-0.35947 l 0,-1.88031 c 0.49312,0.23965 0.99776,0.41939 1.51392,0.53921 0.52077,0.11982 1.04845,0.17974 1.58306,0.17973 0.48389,1e-5 0.84797,-0.0668 1.09223,-0.20047 0.24425,-0.13365 0.36638,-0.33182 0.36639,-0.59451 -1e-5,-0.22121 -0.0853,-0.38481 -0.25578,-0.49081 -0.16592,-0.11061 -0.50004,-0.19587 -1.00237,-0.25578 l -0.43551,-0.0553 c -1.10146,-0.13826 -1.8734,-0.39404 -2.31582,-0.76734 -0.44243,-0.37329 -0.66364,-0.94014 -0.66364,-1.70057 0,-0.82032 0.28112,-1.42866 0.84337,-1.825 0.56225,-0.39633 1.42406,-0.5945 2.58543,-0.59451 0.45624,1e-5 0.93554,0.0346 1.43788,0.10369 0.50233,0.0691 1.04845,0.17744 1.63835,0.32491"
         style="font-weight:bold"
         id="path3256" />
      <path
         d="m 294.88788,721.97332 2.40569,0 1.29963,5.33675 1.30653,-5.33675 2.06696,0 1.29962,5.28145 1.30654,-5.28145 2.40569,0 -2.03931,7.74244 -2.70294,0 -1.30654,-5.32293 -1.29962,5.32293 -2.70294,0 -2.03931,-7.74244"
         style="font-weight:bold"
         id="path3258" />
      <path
         d="m 316.38699,725.8238 0,0.70512 -5.7861,0 c 0.0599,0.58068 0.2696,1.01619 0.62908,1.30653 0.35946,0.29035 0.8618,0.43552 1.50701,0.43551 0.52076,1e-5 1.05306,-0.076 1.59688,-0.22812 0.54841,-0.15669 1.11066,-0.39173 1.68674,-0.70512 l 0,1.90796 c -0.5853,0.22122 -1.17059,0.38712 -1.75587,0.49773 -0.5853,0.11522 -1.17059,0.17282 -1.75588,0.17282 -1.40101,0 -2.49095,-0.35486 -3.2698,-1.06458 -0.77424,-0.71433 -1.16136,-1.7144 -1.16136,-3.0002 0,-1.26275 0.38021,-2.2559 1.14062,-2.97946 0.76503,-0.72354 1.81579,-1.08531 3.15228,-1.08532 1.21667,1e-5 2.18908,0.36639 2.91725,1.09915 0.73275,0.73277 1.09914,1.7121 1.09915,2.93798 m -2.54395,-0.82263 c -10e-6,-0.47008 -0.13826,-0.84798 -0.41477,-1.13372 -0.27192,-0.29033 -0.62908,-0.43551 -1.0715,-0.43551 -0.4793,0 -0.86873,0.13596 -1.16828,0.40786 -0.29956,0.2673 -0.48621,0.65443 -0.55994,1.16137 l 3.21449,0"
         style="font-weight:bold"
         id="path3260" />
      <path
         d="m 322.37355,728.11888 c 0.52998,0 0.93323,-0.19356 1.20975,-0.58068 0.28112,-0.38712 0.42168,-0.94937 0.42169,-1.68675 -1e-5,-0.73737 -0.14057,-1.29962 -0.42169,-1.68674 -0.27652,-0.38712 -0.67977,-0.58068 -1.20975,-0.58069 -0.53,10e-6 -0.93786,0.19587 -1.22358,0.5876 -0.28113,0.38713 -0.42169,0.94707 -0.42169,1.67983 0,0.73277 0.14056,1.29502 0.42169,1.68675 0.28572,0.38712 0.69358,0.58068 1.22358,0.58068 m -1.64527,-5.01185 c 0.34103,-0.45163 0.71894,-0.78345 1.13371,-0.99545 0.41477,-0.2166 0.89176,-0.3249 1.43097,-0.32491 0.95398,1e-5 1.73744,0.38022 2.35039,1.14063 0.61293,0.75581 0.9194,1.73053 0.91941,2.92415 -1e-5,1.19363 -0.30648,2.17065 -0.91941,2.93107 -0.61295,0.75581 -1.39641,1.13371 -2.35039,1.13371 -0.53921,0 -1.0162,-0.10599 -1.43097,-0.31799 -0.41477,-0.2166 -0.79268,-0.55073 -1.13371,-1.00237 l 0,1.11989 -2.47482,0 0,-10.75646 2.47482,0 0,4.14773"
         style="font-weight:bold"
         id="path3262" />
      <path
         d="m 337.00814,723.55637 c -0.54842,10e-6 -0.96781,0.19818 -1.25814,0.59451 -0.28574,0.39174 -0.42861,0.95859 -0.4286,1.70057 -10e-6,0.74199 0.14286,1.31115 0.4286,1.70749 0.29033,0.39173 0.70972,0.58759 1.25814,0.58759 0.5392,0 0.95167,-0.19586 1.23741,-0.58759 0.28573,-0.39634 0.42859,-0.9655 0.4286,-1.70749 -10e-6,-0.74198 -0.14287,-1.30883 -0.4286,-1.70057 -0.28574,-0.39633 -0.69821,-0.5945 -1.23741,-0.59451 m 0,-1.7697 c 1.33188,1e-5 2.37112,0.35948 3.11772,1.07841 0.75119,0.71895 1.12679,1.7144 1.1268,2.98637 -10e-6,1.27198 -0.37561,2.26743 -1.1268,2.98637 -0.7466,0.71894 -1.78584,1.07841 -3.11772,1.07841 -1.33649,0 -2.38264,-0.35947 -3.13845,-1.07841 -0.7512,-0.71894 -1.1268,-1.71439 -1.1268,-2.98637 0,-1.27197 0.3756,-2.26742 1.1268,-2.98637 0.75581,-0.71893 1.80196,-1.0784 3.13845,-1.07841"
         style="font-weight:bold"
         id="path3264" />
      <path
         d="m 345.53175,728.59587 0,4.06478 -2.47482,0 0,-10.68733 2.47482,0 0,1.13371 c 0.34103,-0.45163 0.71893,-0.78345 1.13371,-0.99545 0.41477,-0.2166 0.89176,-0.3249 1.43097,-0.32491 0.95397,1e-5 1.73743,0.38022 2.35038,1.14063 0.61294,0.75581 0.91941,1.73053 0.91942,2.92415 -10e-6,1.19363 -0.30648,2.17065 -0.91942,2.93107 -0.61295,0.75581 -1.39641,1.13371 -2.35038,1.13371 -0.53921,0 -1.0162,-0.10599 -1.43097,-0.31799 -0.41478,-0.2166 -0.79268,-0.55073 -1.13371,-1.00237 m 1.64526,-5.01185 c -0.52999,10e-6 -0.93785,0.19587 -1.22358,0.5876 -0.28113,0.38713 -0.42169,0.94707 -0.42168,1.67983 -10e-6,0.73277 0.14055,1.29502 0.42168,1.68675 0.28573,0.38712 0.69359,0.58068 1.22358,0.58068 0.52999,0 0.93324,-0.19356 1.20976,-0.58068 0.28112,-0.38712 0.42168,-0.94937 0.42169,-1.68675 -1e-5,-0.73737 -0.14057,-1.29962 -0.42169,-1.68674 -0.27652,-0.38712 -0.67977,-0.58068 -1.20976,-0.58069"
         style="font-weight:bold"
         id="path3266" />
      <path
         d="m 360.93367,725.8238 0,0.70512 -5.78609,0 c 0.0599,0.58068 0.2696,1.01619 0.62907,1.30653 0.35947,0.29035 0.8618,0.43552 1.50701,0.43551 0.52077,1e-5 1.05306,-0.076 1.59688,-0.22812 0.54842,-0.15669 1.11066,-0.39173 1.68675,-0.70512 l 0,1.90796 c -0.5853,0.22122 -1.17059,0.38712 -1.75588,0.49773 -0.5853,0.11522 -1.17059,0.17282 -1.75587,0.17282 -1.40102,0 -2.49095,-0.35486 -3.2698,-1.06458 -0.77425,-0.71433 -1.16137,-1.7144 -1.16137,-3.0002 0,-1.26275 0.38021,-2.2559 1.14063,-2.97946 0.76502,-0.72354 1.81578,-1.08531 3.15228,-1.08532 1.21666,1e-5 2.18907,0.36639 2.91724,1.09915 0.73276,0.73277 1.09914,1.7121 1.09915,2.93798 m -2.54394,-0.82263 c -10e-6,-0.47008 -0.13827,-0.84798 -0.41478,-1.13372 -0.27191,-0.29033 -0.62908,-0.43551 -1.0715,-0.43551 -0.4793,0 -0.86872,0.13596 -1.16828,0.40786 -0.29956,0.2673 -0.48621,0.65443 -0.55994,1.16137 l 3.2145,0"
         style="font-weight:bold"
         id="path3268" />
      <path
         d="m 368.55168,724.08175 c -0.21662,-0.10138 -0.43322,-0.17512 -0.64982,-0.22121 -0.212,-0.0507 -0.4263,-0.076 -0.6429,-0.076 -0.63599,0 -1.1268,0.20508 -1.47244,0.61524 -0.34104,0.40557 -0.51156,0.98855 -0.51156,1.74897 l 0,3.56705 -2.47481,0 0,-7.74244 2.47481,0 0,1.27197 c 0.31799,-0.50694 0.68207,-0.87563 1.09224,-1.10606 0.41477,-0.23503 0.91019,-0.35255 1.48627,-0.35256 0.0829,1e-5 0.17282,0.005 0.26961,0.0138 0.0968,0.005 0.23733,0.0184 0.42168,0.0415 l 0.007,2.23978"
         style="font-weight:bold"
         id="path3270" />
      <path
         d="m 373.26627,726.23166 c -0.51617,0 -0.90559,0.0876 -1.16828,0.26269 -0.25808,0.17513 -0.38712,0.43321 -0.38712,0.77424 0,0.31339 0.10369,0.55995 0.31108,0.73968 0.21199,0.17513 0.50464,0.2627 0.87794,0.26269 0.46546,1e-5 0.85719,-0.1659 1.17519,-0.49772 0.31799,-0.33643 0.47698,-0.75581 0.47699,-1.25815 l 0,-0.28343 -1.2858,0 m 3.78135,-0.93324 0,4.41734 -2.49555,0 0,-1.14754 c -0.33183,0.47008 -0.70512,0.81342 -1.11989,1.03002 -0.41478,0.212 -0.91942,0.31799 -1.51392,0.31799 -0.8019,0 -1.45402,-0.23273 -1.95635,-0.6982 -0.49773,-0.47007 -0.7466,-1.07841 -0.7466,-1.825 0,-0.90789 0.31108,-1.57383 0.93324,-1.99783 0.62677,-0.42399 1.6084,-0.63598 2.9449,-0.63599 l 1.45862,0 0,-0.19356 c -1e-5,-0.39172 -0.1544,-0.67745 -0.46317,-0.8572 -0.30878,-0.18433 -0.79037,-0.27651 -1.44479,-0.27651 -0.52999,0 -1.02311,0.053 -1.47936,0.159 -0.45625,0.106 -0.88024,0.265 -1.27197,0.47698 l 0,-1.88722 c 0.52998,-0.12903 1.06228,-0.22581 1.59688,-0.29034 0.53459,-0.0691 1.06919,-0.10368 1.60379,-0.10369 1.3964,1e-5 2.40337,0.27652 3.02093,0.82955 0.62215,0.54843 0.93323,1.44249 0.93324,2.6822"
         style="font-weight:bold"
         id="path3272" />
      <path
         d="m 382.06638,719.77502 0,2.1983 2.55086,0 0,1.7697 -2.55086,0 0,3.28362 c 0,0.35948 0.0714,0.60373 0.2143,0.73277 0.14286,0.12443 0.42629,0.18665 0.85029,0.18665 l 1.27197,0 0,1.7697 -2.12226,0 c -0.97702,0 -1.67062,-0.20278 -2.08078,-0.60834 -0.40556,-0.41016 -0.60833,-1.10375 -0.60833,-2.08078 l 0,-3.28362 -1.2305,0 0,-1.7697 1.2305,0 0,-2.1983 2.47481,0"
         style="font-weight:bold"
         id="path3274" />
      <path
         d="m 386.13808,721.97332 2.47482,0 0,7.74244 -2.47482,0 0,-7.74244 m 0,-3.01402 2.47482,0 0,2.01856 -2.47482,0 0,-2.01856"
         style="font-weight:bold"
         id="path3276" />
      <path
         d="m 398.78869,725.00117 0,4.71459 -2.48865,0 0,-0.76733 0,-2.8412 c 0,-0.66824 -0.0161,-1.1291 -0.0484,-1.38258 -0.0276,-0.25347 -0.0784,-0.44012 -0.15208,-0.55994 -0.0968,-0.1613 -0.22813,-0.28573 -0.39403,-0.3733 -0.16592,-0.0922 -0.35487,-0.13825 -0.56686,-0.13826 -0.51617,10e-6 -0.92173,0.20048 -1.21667,0.60142 -0.29495,0.39635 -0.44243,0.94707 -0.44243,1.65218 l 0,3.80901 -2.47481,0 0,-7.74244 2.47481,0 0,1.13371 c 0.3733,-0.45163 0.76964,-0.78345 1.18902,-0.99545 0.41938,-0.2166 0.88254,-0.3249 1.38949,-0.32491 0.89406,1e-5 1.57153,0.27422 2.03239,0.82263 0.46546,0.54843 0.6982,1.34572 0.69821,2.39187"
         style="font-weight:bold"
         id="path3278" />
      <path
         d="m 406.36521,728.40231 c -0.34104,0.45164 -0.71664,0.78346 -1.1268,0.99546 -0.41017,0.21199 -0.88485,0.31799 -1.42406,0.31799 -0.94476,0 -1.72592,-0.37099 -2.34347,-1.11298 -0.61755,-0.74659 -0.92633,-1.69596 -0.92632,-2.84811 -10e-6,-1.15675 0.30877,-2.10382 0.92632,-2.8412 0.61755,-0.74197 1.39871,-1.11297 2.34347,-1.11297 0.53921,0 1.01389,0.106 1.42406,0.31799 0.41016,0.212 0.78576,0.54612 1.1268,1.00237 l 0,-1.14754 2.48864,0 0,6.96128 c 0,1.24432 -0.39404,2.19369 -1.1821,2.84811 -0.78347,0.65903 -1.92179,0.98855 -3.41497,0.98855 -0.48391,0 -0.95168,-0.0369 -1.40332,-0.11061 -0.45164,-0.0737 -0.90559,-0.18665 -1.36184,-0.33873 l 0,-1.9287 c 0.43321,0.24887 0.8572,0.43321 1.27197,0.55303 0.41477,0.12444 0.83185,0.18665 1.25124,0.18665 0.81111,0 1.40561,-0.17743 1.78353,-0.53229 0.37789,-0.35486 0.56685,-0.9102 0.56685,-1.66601 l 0,-0.53229 m -1.63144,-4.81829 c -0.51156,10e-6 -0.9102,0.18896 -1.19593,0.56686 -0.28574,0.37791 -0.4286,0.91251 -0.4286,1.60379 0,0.70973 0.13825,1.24893 0.41477,1.61762 0.27651,0.36408 0.67977,0.54612 1.20976,0.54612 0.51616,0 0.9171,-0.18895 1.20284,-0.56686 0.28573,-0.3779 0.4286,-0.91019 0.4286,-1.59688 0,-0.69128 -0.14287,-1.22588 -0.4286,-1.60379 -0.28574,-0.3779 -0.68668,-0.56685 -1.20284,-0.56686"
         style="font-weight:bold"
         id="path3280" />
      <path
         d="m 422.21648,722.21527 0,1.88031 c -0.52999,-0.22121 -1.04155,-0.38712 -1.53466,-0.49773 -0.49312,-0.1106 -0.95859,-0.16591 -1.3964,-0.16591 -0.47008,0 -0.82034,0.0599 -1.05076,0.17973 -0.22583,0.11522 -0.33874,0.29496 -0.33874,0.53921 0,0.19817 0.0853,0.35026 0.25578,0.45625 0.17513,0.106 0.48621,0.18435 0.93324,0.23504 l 0.43551,0.0622 c 1.26736,0.16131 2.11995,0.4263 2.55778,0.79499 0.4378,0.36869 0.65671,0.94707 0.65672,1.73513 -1e-5,0.82494 -0.30417,1.4448 -0.9125,1.85957 -0.60834,0.41478 -1.51623,0.62216 -2.72368,0.62216 -0.51156,0 -1.04155,-0.0415 -1.58997,-0.12443 -0.54381,-0.0784 -1.10376,-0.19817 -1.67983,-0.35947 l 0,-1.88031 c 0.49312,0.23965 0.99776,0.41939 1.51392,0.53921 0.52077,0.11982 1.04846,0.17974 1.58306,0.17973 0.48389,1e-5 0.84797,-0.0668 1.09223,-0.20047 0.24425,-0.13365 0.36638,-0.33182 0.36639,-0.59451 -10e-6,-0.22121 -0.0853,-0.38481 -0.25578,-0.49081 -0.16591,-0.11061 -0.50004,-0.19587 -1.00237,-0.25578 l -0.43551,-0.0553 c -1.10146,-0.13826 -1.8734,-0.39404 -2.31582,-0.76734 -0.44243,-0.37329 -0.66364,-0.94014 -0.66364,-1.70057 0,-0.82032 0.28112,-1.42866 0.84337,-1.825 0.56225,-0.39633 1.42406,-0.5945 2.58543,-0.59451 0.45624,1e-5 0.93554,0.0346 1.43788,0.10369 0.50233,0.0691 1.04845,0.17744 1.63835,0.32491"
         style="font-weight:bold"
         id="path3282" />
      <path
         d="m 423.58524,721.97332 2.47481,0 2.08078,5.2538 1.7697,-5.2538 2.47482,0 -3.25597,8.47521 c -0.32722,0.8618 -0.70973,1.46322 -1.14754,1.80426 -0.43321,0.34564 -1.00698,0.51847 -1.72131,0.51847 l -1.43097,0 0,-1.62453 0.77424,0 c 0.41938,0 0.72355,-0.0668 0.9125,-0.20048 0.19356,-0.13365 0.34334,-0.37329 0.44934,-0.71894 l 0.0691,-0.2143 -3.44953,-8.03969"
         style="font-weight:bold"
         id="path3284" />
      <path
         d="m 439.88584,722.21527 0,1.88031 c -0.52999,-0.22121 -1.04155,-0.38712 -1.53466,-0.49773 -0.49313,-0.1106 -0.95859,-0.16591 -1.39641,-0.16591 -0.47008,0 -0.82033,0.0599 -1.05076,0.17973 -0.22582,0.11522 -0.33873,0.29496 -0.33873,0.53921 0,0.19817 0.0853,0.35026 0.25578,0.45625 0.17512,0.106 0.4862,0.18435 0.93324,0.23504 l 0.43551,0.0622 c 1.26736,0.16131 2.11995,0.4263 2.55777,0.79499 0.43781,0.36869 0.65672,0.94707 0.65673,1.73513 -1e-5,0.82494 -0.30418,1.4448 -0.9125,1.85957 -0.60835,0.41478 -1.51624,0.62216 -2.72368,0.62216 -0.51156,0 -1.04155,-0.0415 -1.58997,-0.12443 -0.54382,-0.0784 -1.10376,-0.19817 -1.67983,-0.35947 l 0,-1.88031 c 0.49312,0.23965 0.99776,0.41939 1.51392,0.53921 0.52077,0.11982 1.04845,0.17974 1.58305,0.17973 0.4839,1e-5 0.84798,-0.0668 1.09224,-0.20047 0.24425,-0.13365 0.36638,-0.33182 0.36638,-0.59451 0,-0.22121 -0.0853,-0.38481 -0.25577,-0.49081 -0.16592,-0.11061 -0.50004,-0.19587 -1.00237,-0.25578 l -0.43552,-0.0553 c -1.10145,-0.13826 -1.87339,-0.39404 -2.31581,-0.76734 -0.44243,-0.37329 -0.66364,-0.94014 -0.66364,-1.70057 0,-0.82032 0.28112,-1.42866 0.84337,-1.825 0.56225,-0.39633 1.42405,-0.5945 2.58542,-0.59451 0.45625,1e-5 0.93554,0.0346 1.43788,0.10369 0.50234,0.0691 1.04845,0.17744 1.63836,0.32491"
         style="font-weight:bold"
         id="path3286" />
      <path
         d="m 444.97373,719.77502 0,2.1983 2.55086,0 0,1.7697 -2.55086,0 0,3.28362 c 0,0.35948 0.0714,0.60373 0.2143,0.73277 0.14286,0.12443 0.42629,0.18665 0.85029,0.18665 l 1.27197,0 0,1.7697 -2.12226,0 c -0.97702,0 -1.67062,-0.20278 -2.08078,-0.60834 -0.40556,-0.41016 -0.60834,-1.10375 -0.60833,-2.08078 l 0,-3.28362 -1.2305,0 0,-1.7697 1.2305,0 0,-2.1983 2.47481,0"
         style="font-weight:bold"
         id="path3288" />
      <path
         d="m 456.77403,725.8238 0,0.70512 -5.78609,0 c 0.0599,0.58068 0.2696,1.01619 0.62907,1.30653 0.35947,0.29035 0.86181,0.43552 1.50701,0.43551 0.52077,1e-5 1.05306,-0.076 1.59688,-0.22812 0.54842,-0.15669 1.11067,-0.39173 1.68675,-0.70512 l 0,1.90796 c -0.5853,0.22122 -1.17059,0.38712 -1.75588,0.49773 -0.58529,0.11522 -1.17058,0.17282 -1.75587,0.17282 -1.40102,0 -2.49095,-0.35486 -3.2698,-1.06458 -0.77424,-0.71433 -1.16137,-1.7144 -1.16137,-3.0002 0,-1.26275 0.38021,-2.2559 1.14063,-2.97946 0.76503,-0.72354 1.81579,-1.08531 3.15228,-1.08532 1.21666,1e-5 2.18908,0.36639 2.91724,1.09915 0.73276,0.73277 1.09914,1.7121 1.09915,2.93798 m -2.54394,-0.82263 c -1e-5,-0.47008 -0.13827,-0.84798 -0.41478,-1.13372 -0.27191,-0.29033 -0.62907,-0.43551 -1.07149,-0.43551 -0.4793,0 -0.86873,0.13596 -1.16828,0.40786 -0.29957,0.2673 -0.48621,0.65443 -0.55995,1.16137 l 3.2145,0"
         style="font-weight:bold"
         id="path3290" />
      <path
         d="m 465.81609,723.25912 c 0.31338,-0.47929 0.68437,-0.84337 1.11298,-1.09224 0.4332,-0.25347 0.90788,-0.3802 1.42406,-0.38021 0.88944,1e-5 1.56691,0.27422 2.03239,0.82263 0.46545,0.54843 0.69819,1.34572 0.6982,2.39187 l 0,4.71459 -2.48864,0 0,-4.03713 c 0.005,-0.0599 0.007,-0.12212 0.007,-0.18665 0.005,-0.0645 0.007,-0.15669 0.007,-0.27651 -1e-5,-0.54842 -0.0807,-0.94476 -0.24195,-1.18902 -0.16131,-0.24886 -0.42169,-0.37329 -0.78115,-0.3733 -0.47009,10e-6 -0.83417,0.19357 -1.09224,0.58068 -0.25348,0.38713 -0.38483,0.94708 -0.39404,1.67984 l 0,3.80209 -2.48864,0 0,-4.03713 c -1e-5,-0.85719 -0.0737,-1.40792 -0.22121,-1.65218 -0.14748,-0.24886 -0.41017,-0.37329 -0.78807,-0.3733 -0.47469,10e-6 -0.84107,0.19587 -1.09915,0.5876 -0.25809,0.38712 -0.38713,0.94246 -0.38712,1.666 l 0,3.80901 -2.48865,0 0,-7.74244 2.48865,0 0,1.13371 c 0.30416,-0.43781 0.65211,-0.76732 1.04384,-0.98854 0.39634,-0.22121 0.83185,-0.33181 1.30654,-0.33182 0.53459,1e-5 1.00697,0.12905 1.41714,0.38712 0.41016,0.25809 0.72124,0.61986 0.93324,1.08533"
         style="font-weight:bold"
         id="path3292" />
    </g>
    <g
       style="font-size:14.15760708px;font-style:normal;font-weight:normal;line-height:125%;letter-spacing:0px;word-spacing:0px;fill:#ffffff;fill-opacity:1;stroke:none;font-family:Sans"
       id="text3188">
      <path
         d="m 237.12615,720.78668 0,1.88031 c -0.52999,-0.22121 -1.04155,-0.38712 -1.53466,-0.49773 -0.49313,-0.1106 -0.95859,-0.1659 -1.39641,-0.16591 -0.47008,1e-5 -0.82033,0.0599 -1.05076,0.17973 -0.22582,0.11523 -0.33873,0.29496 -0.33873,0.53921 0,0.19818 0.0853,0.35026 0.25578,0.45625 0.17512,0.106 0.4862,0.18435 0.93324,0.23504 l 0.43551,0.0622 c 1.26736,0.1613 2.11995,0.4263 2.55777,0.79498 0.43781,0.36869 0.65672,0.94707 0.65673,1.73514 -1e-5,0.82494 -0.30418,1.44479 -0.9125,1.85956 -0.60834,0.41478 -1.51624,0.62216 -2.72368,0.62216 -0.51156,0 -1.04155,-0.0415 -1.58997,-0.12443 -0.54382,-0.0783 -1.10376,-0.19817 -1.67983,-0.35947 l 0,-1.88031 c 0.49312,0.23965 0.99776,0.41939 1.51392,0.53921 0.52077,0.11983 1.04845,0.17974 1.58305,0.17974 0.4839,0 0.84798,-0.0668 1.09224,-0.20048 0.24425,-0.13365 0.36638,-0.33182 0.36638,-0.59451 0,-0.22121 -0.0853,-0.38481 -0.25577,-0.49081 -0.16592,-0.11061 -0.50004,-0.19587 -1.00237,-0.25578 l -0.43551,-0.0553 c -1.10146,-0.13826 -1.8734,-0.39403 -2.31582,-0.76733 -0.44243,-0.3733 -0.66364,-0.94015 -0.66364,-1.70058 0,-0.82032 0.28112,-1.42865 0.84337,-1.825 0.56225,-0.39633 1.42405,-0.5945 2.58542,-0.59451 0.45625,10e-6 0.93554,0.0346 1.43789,0.10369 0.50233,0.0691 1.04844,0.17744 1.63835,0.32491"
         style="font-weight:bold;fill:#ffffff"
         id="path3193" />
      <path
         d="m 247.23972,724.39521 0,0.70512 -5.7861,0 c 0.0599,0.58068 0.2696,1.01619 0.62908,1.30653 0.35946,0.29035 0.8618,0.43552 1.50701,0.43552 0.52076,0 1.05306,-0.076 1.59688,-0.22813 0.54841,-0.15669 1.11066,-0.39173 1.68674,-0.70512 l 0,1.90796 c -0.5853,0.22122 -1.17059,0.38713 -1.75587,0.49773 -0.5853,0.11522 -1.17059,0.17282 -1.75588,0.17282 -1.40101,0 -2.49095,-0.35486 -3.2698,-1.06458 -0.77424,-0.71433 -1.16136,-1.7144 -1.16136,-3.0002 0,-1.26275 0.38021,-2.2559 1.14062,-2.97945 0.76503,-0.72355 1.81579,-1.08532 3.15228,-1.08533 1.21667,10e-6 2.18908,0.36639 2.91725,1.09915 0.73275,0.73277 1.09914,1.7121 1.09915,2.93798 m -2.54395,-0.82263 c -1e-5,-0.47007 -0.13826,-0.84798 -0.41477,-1.13372 -0.27192,-0.29033 -0.62908,-0.4355 -1.0715,-0.43551 -0.4793,1e-5 -0.86873,0.13596 -1.16828,0.40786 -0.29956,0.2673 -0.48621,0.65443 -0.55994,1.16137 l 3.21449,0"
         style="font-weight:bold;fill:#ffffff"
         id="path3195" />
      <path
         d="m 254.85772,722.65316 c -0.21661,-0.10138 -0.43321,-0.17512 -0.64981,-0.22121 -0.212,-0.0507 -0.4263,-0.076 -0.6429,-0.076 -0.63599,0 -1.1268,0.20509 -1.47244,0.61524 -0.34104,0.40557 -0.51156,0.98855 -0.51156,1.74897 l 0,3.56705 -2.47481,0 0,-7.74244 2.47481,0 0,1.27197 c 0.31799,-0.50694 0.68207,-0.87562 1.09224,-1.10606 0.41477,-0.23503 0.91019,-0.35255 1.48627,-0.35256 0.083,10e-6 0.17282,0.005 0.26961,0.0138 0.0968,0.005 0.23733,0.0184 0.42168,0.0415 l 0.007,2.23978"
         style="font-weight:bold;fill:#ffffff"
         id="path3197" />
      <path
         d="m 256.10205,720.54473 2.47481,0 0,7.74244 -2.47481,0 0,-7.74244 m 0,-3.01402 2.47481,0 0,2.01856 -2.47481,0 0,-2.01856"
         style="font-weight:bold;fill:#ffffff"
         id="path3199" />
      <path
         d="m 264.6533,722.12778 c -0.54843,10e-6 -0.96781,0.19818 -1.25815,0.59451 -0.28574,0.39174 -0.4286,0.95859 -0.4286,1.70057 0,0.74199 0.14286,1.31115 0.4286,1.70749 0.29034,0.39173 0.70972,0.5876 1.25815,0.58759 0.5392,10e-6 0.95166,-0.19586 1.2374,-0.58759 0.28573,-0.39634 0.4286,-0.9655 0.4286,-1.70749 0,-0.74198 -0.14287,-1.30883 -0.4286,-1.70057 -0.28574,-0.39633 -0.6982,-0.5945 -1.2374,-0.59451 m 0,-1.7697 c 1.33187,10e-6 2.37111,0.35948 3.11771,1.07841 0.75119,0.71895 1.12679,1.71441 1.1268,2.98637 -10e-6,1.27198 -0.37561,2.26743 -1.1268,2.98637 -0.7466,0.71894 -1.78584,1.07841 -3.11771,1.07841 -1.3365,0 -2.38265,-0.35947 -3.13846,-1.07841 -0.7512,-0.71894 -1.1268,-1.71439 -1.1268,-2.98637 0,-1.27196 0.3756,-2.26742 1.1268,-2.98637 0.75581,-0.71893 1.80196,-1.0784 3.13846,-1.07841"
         style="font-weight:bold;fill:#ffffff"
         id="path3201" />
      <path
         d="m 270.61912,725.27315 0,-4.72842 2.48865,0 0,0.77424 c -1e-5,0.41939 -0.002,0.94708 -0.007,1.58306 -0.005,0.63138 -0.007,1.05306 -0.007,1.26506 0,0.62216 0.0161,1.0715 0.0484,1.34801 0.0323,0.27191 0.0876,0.47008 0.16591,0.59451 0.10139,0.1613 0.23273,0.28573 0.39404,0.3733 0.1659,0.0876 0.35485,0.13134 0.56685,0.13134 0.51616,0 0.92172,-0.19817 1.21667,-0.59451 0.29495,-0.39634 0.44242,-0.94706 0.44243,-1.65218 l 0,-3.82283 2.47481,0 0,7.74244 -2.47481,0 0,-1.11989 c -0.37331,0.45164 -0.76964,0.78577 -1.18902,1.00237 -0.41478,0.212 -0.87333,0.31799 -1.37567,0.31799 -0.89407,0 -1.57614,-0.27421 -2.04621,-0.82263 -0.46547,-0.54842 -0.69821,-1.34571 -0.69821,-2.39186"
         style="font-weight:bold;fill:#ffffff"
         id="path3203" />
      <path
         d="m 286.84368,720.78668 0,1.88031 c -0.52999,-0.22121 -1.04154,-0.38712 -1.53466,-0.49773 -0.49312,-0.1106 -0.95859,-0.1659 -1.3964,-0.16591 -0.47008,1e-5 -0.82034,0.0599 -1.05076,0.17973 -0.22583,0.11523 -0.33874,0.29496 -0.33873,0.53921 -10e-6,0.19818 0.0853,0.35026 0.25577,0.45625 0.17513,0.106 0.48621,0.18435 0.93324,0.23504 l 0.43552,0.0622 c 1.26735,0.1613 2.11994,0.4263 2.55777,0.79498 0.43781,0.36869 0.65671,0.94707 0.65672,1.73514 -10e-6,0.82494 -0.30417,1.44479 -0.9125,1.85956 -0.60834,0.41478 -1.51623,0.62216 -2.72368,0.62216 -0.51156,0 -1.04155,-0.0415 -1.58997,-0.12443 -0.54381,-0.0783 -1.10376,-0.19817 -1.67983,-0.35947 l 0,-1.88031 c 0.49312,0.23965 0.99776,0.41939 1.51392,0.53921 0.52077,0.11983 1.04846,0.17974 1.58306,0.17974 0.4839,0 0.84797,-0.0668 1.09223,-0.20048 0.24425,-0.13365 0.36638,-0.33182 0.36639,-0.59451 -1e-5,-0.22121 -0.0853,-0.38481 -0.25578,-0.49081 -0.16591,-0.11061 -0.50004,-0.19587 -1.00237,-0.25578 l -0.43551,-0.0553 c -1.10146,-0.13826 -1.8734,-0.39403 -2.31582,-0.76733 -0.44243,-0.3733 -0.66364,-0.94015 -0.66364,-1.70058 0,-0.82032 0.28112,-1.42865 0.84337,-1.825 0.56225,-0.39633 1.42406,-0.5945 2.58543,-0.59451 0.45624,10e-6 0.93554,0.0346 1.43788,0.10369 0.50233,0.0691 1.04845,0.17744 1.63835,0.32491"
         style="font-weight:bold;fill:#ffffff"
         id="path3205" />
      <path
         d="m 293.45933,720.54473 2.40568,0 1.29963,5.33675 1.30653,-5.33675 2.06696,0 1.29962,5.28145 1.30654,-5.28145 2.40569,0 -2.03931,7.74244 -2.70294,0 -1.30653,-5.32293 -1.29963,5.32293 -2.70294,0 -2.0393,-7.74244"
         style="font-weight:bold;fill:#ffffff"
         id="path3207" />
      <path
         d="m 314.95843,724.39521 0,0.70512 -5.78609,0 c 0.0599,0.58068 0.26959,1.01619 0.62907,1.30653 0.35947,0.29035 0.8618,0.43552 1.50701,0.43552 0.52077,0 1.05306,-0.076 1.59688,-0.22813 0.54841,-0.15669 1.11066,-0.39173 1.68674,-0.70512 l 0,1.90796 c -0.5853,0.22122 -1.17059,0.38713 -1.75587,0.49773 -0.5853,0.11522 -1.17059,0.17282 -1.75588,0.17282 -1.40101,0 -2.49094,-0.35486 -3.26979,-1.06458 -0.77425,-0.71433 -1.16137,-1.7144 -1.16137,-3.0002 0,-1.26275 0.38021,-2.2559 1.14063,-2.97945 0.76502,-0.72355 1.81578,-1.08532 3.15228,-1.08533 1.21666,10e-6 2.18907,0.36639 2.91724,1.09915 0.73276,0.73277 1.09914,1.7121 1.09915,2.93798 m -2.54395,-0.82263 c 0,-0.47007 -0.13826,-0.84798 -0.41477,-1.13372 -0.27191,-0.29033 -0.62908,-0.4355 -1.0715,-0.43551 -0.4793,1e-5 -0.86872,0.13596 -1.16828,0.40786 -0.29956,0.2673 -0.48621,0.65443 -0.55994,1.16137 l 3.21449,0"
         style="font-weight:bold;fill:#ffffff"
         id="path3209" />
      <path
         d="m 320.94499,726.69029 c 0.52998,0 0.93323,-0.19356 1.20976,-0.58068 0.28111,-0.38712 0.42168,-0.94937 0.42168,-1.68675 0,-0.73737 -0.14057,-1.29962 -0.42168,-1.68674 -0.27653,-0.38712 -0.67978,-0.58068 -1.20976,-0.58069 -0.52999,10e-6 -0.93785,0.19587 -1.22358,0.5876 -0.28113,0.38713 -0.42169,0.94707 -0.42169,1.67983 0,0.73277 0.14056,1.29502 0.42169,1.68675 0.28573,0.38712 0.69359,0.58068 1.22358,0.58068 m -1.64527,-5.01185 c 0.34103,-0.45163 0.71894,-0.78345 1.13372,-0.99545 0.41476,-0.2166 0.89175,-0.3249 1.43096,-0.32491 0.95398,10e-6 1.73744,0.38022 2.35039,1.14063 0.61293,0.75581 0.9194,1.73053 0.91941,2.92415 -1e-5,1.19363 -0.30648,2.17065 -0.91941,2.93107 -0.61295,0.75581 -1.39641,1.13371 -2.35039,1.13371 -0.53921,0 -1.0162,-0.10599 -1.43096,-0.31799 -0.41478,-0.2166 -0.79269,-0.55073 -1.13372,-1.00237 l 0,1.11989 -2.47482,0 0,-10.75646 2.47482,0 0,4.14773"
         style="font-weight:bold;fill:#ffffff"
         id="path3211" />
      <path
         d="m 335.57958,722.12778 c -0.54842,10e-6 -0.96781,0.19818 -1.25814,0.59451 -0.28574,0.39174 -0.42861,0.95859 -0.4286,1.70057 -10e-6,0.74199 0.14286,1.31115 0.4286,1.70749 0.29033,0.39173 0.70972,0.5876 1.25814,0.58759 0.5392,10e-6 0.95167,-0.19586 1.23741,-0.58759 0.28573,-0.39634 0.42859,-0.9655 0.4286,-1.70749 -10e-6,-0.74198 -0.14287,-1.30883 -0.4286,-1.70057 -0.28574,-0.39633 -0.69821,-0.5945 -1.23741,-0.59451 m 0,-1.7697 c 1.33188,10e-6 2.37112,0.35948 3.11772,1.07841 0.75119,0.71895 1.12679,1.71441 1.1268,2.98637 -10e-6,1.27198 -0.37561,2.26743 -1.1268,2.98637 -0.7466,0.71894 -1.78584,1.07841 -3.11772,1.07841 -1.33649,0 -2.38264,-0.35947 -3.13845,-1.07841 -0.7512,-0.71894 -1.1268,-1.71439 -1.1268,-2.98637 0,-1.27196 0.3756,-2.26742 1.1268,-2.98637 0.75581,-0.71893 1.80196,-1.0784 3.13845,-1.07841"
         style="font-weight:bold;fill:#ffffff"
         id="path3213" />
      <path
         d="m 344.10319,727.16728 0,4.06478 -2.47482,0 0,-10.68733 2.47482,0 0,1.13371 c 0.34103,-0.45163 0.71893,-0.78345 1.13371,-0.99545 0.41477,-0.2166 0.89176,-0.3249 1.43097,-0.32491 0.95397,10e-6 1.73743,0.38022 2.35039,1.14063 0.61293,0.75581 0.9194,1.73053 0.91941,2.92415 -1e-5,1.19363 -0.30648,2.17065 -0.91941,2.93107 -0.61296,0.75581 -1.39642,1.13371 -2.35039,1.13371 -0.53921,0 -1.0162,-0.10599 -1.43097,-0.31799 -0.41478,-0.2166 -0.79268,-0.55073 -1.13371,-1.00237 m 1.64527,-5.01185 c -0.53,10e-6 -0.93786,0.19587 -1.22359,0.5876 -0.28112,0.38713 -0.42169,0.94707 -0.42168,1.67983 -10e-6,0.73277 0.14056,1.29502 0.42168,1.68675 0.28573,0.38712 0.69359,0.58068 1.22359,0.58068 0.52998,0 0.93323,-0.19356 1.20975,-0.58068 0.28112,-0.38712 0.42168,-0.94937 0.42169,-1.68675 -1e-5,-0.73737 -0.14057,-1.29962 -0.42169,-1.68674 -0.27652,-0.38712 -0.67977,-0.58068 -1.20975,-0.58069"
         style="font-weight:bold;fill:#ffffff"
         id="path3215" />
      <path
         d="m 359.50511,724.39521 0,0.70512 -5.78609,0 c 0.0599,0.58068 0.2696,1.01619 0.62907,1.30653 0.35947,0.29035 0.86181,0.43552 1.50701,0.43552 0.52077,0 1.05306,-0.076 1.59688,-0.22813 0.54842,-0.15669 1.11067,-0.39173 1.68675,-0.70512 l 0,1.90796 c -0.5853,0.22122 -1.17059,0.38713 -1.75588,0.49773 -0.58529,0.11522 -1.17059,0.17282 -1.75587,0.17282 -1.40102,0 -2.49095,-0.35486 -3.2698,-1.06458 -0.77425,-0.71433 -1.16137,-1.7144 -1.16137,-3.0002 0,-1.26275 0.38021,-2.2559 1.14063,-2.97945 0.76503,-0.72355 1.81578,-1.08532 3.15228,-1.08533 1.21666,10e-6 2.18908,0.36639 2.91724,1.09915 0.73276,0.73277 1.09914,1.7121 1.09915,2.93798 m -2.54394,-0.82263 c -10e-6,-0.47007 -0.13827,-0.84798 -0.41478,-1.13372 -0.27191,-0.29033 -0.62908,-0.4355 -1.0715,-0.43551 -0.47929,1e-5 -0.86872,0.13596 -1.16827,0.40786 -0.29957,0.2673 -0.48621,0.65443 -0.55995,1.16137 l 3.2145,0"
         style="font-weight:bold;fill:#ffffff"
         id="path3217" />
      <path
         d="m 367.12312,722.65316 c -0.21661,-0.10138 -0.43322,-0.17512 -0.64981,-0.22121 -0.21201,-0.0507 -0.42631,-0.076 -0.6429,-0.076 -0.636,0 -1.12681,0.20509 -1.47245,0.61524 -0.34104,0.40557 -0.51156,0.98855 -0.51155,1.74897 l 0,3.56705 -2.47482,0 0,-7.74244 2.47482,0 0,1.27197 c 0.31798,-0.50694 0.68206,-0.87562 1.09223,-1.10606 0.41477,-0.23503 0.91019,-0.35255 1.48627,-0.35256 0.0829,10e-6 0.17282,0.005 0.26961,0.0138 0.0968,0.005 0.23733,0.0184 0.42168,0.0415 l 0.007,2.23978"
         style="font-weight:bold;fill:#ffffff"
         id="path3219" />
      <path
         d="m 371.83771,724.80307 c -0.51617,10e-6 -0.90559,0.0876 -1.16828,0.26269 -0.25808,0.17513 -0.38712,0.43321 -0.38712,0.77425 0,0.31338 0.10369,0.55994 0.31108,0.73968 0.21199,0.17512 0.50464,0.26269 0.87794,0.26269 0.46546,0 0.85719,-0.16591 1.17519,-0.49773 0.31799,-0.33643 0.47698,-0.75581 0.47699,-1.25815 l 0,-0.28343 -1.2858,0 m 3.78135,-0.93324 0,4.41734 -2.49555,0 0,-1.14754 c -0.33182,0.47008 -0.70512,0.81342 -1.11989,1.03002 -0.41478,0.212 -0.91942,0.31799 -1.51392,0.31799 -0.8019,0 -1.45402,-0.23273 -1.95635,-0.6982 -0.49773,-0.47007 -0.74659,-1.07841 -0.74659,-1.825 0,-0.90789 0.31108,-1.57383 0.93324,-1.99783 0.62676,-0.42398 1.60839,-0.63598 2.94489,-0.63598 l 1.45862,0 0,-0.19357 c -1e-5,-0.39172 -0.15439,-0.67745 -0.46316,-0.85719 -0.30879,-0.18434 -0.79038,-0.27651 -1.4448,-0.27652 -0.52999,1e-5 -1.02311,0.053 -1.47936,0.159 -0.45625,0.106 -0.88024,0.265 -1.27197,0.47699 l 0,-1.88722 c 0.52999,-0.12904 1.06228,-0.22582 1.59688,-0.29035 0.53459,-0.0691 1.06919,-0.10368 1.60379,-0.10369 1.3964,10e-6 2.40338,0.27652 3.02093,0.82955 0.62216,0.54843 0.93324,1.44249 0.93324,2.6822"
         style="font-weight:bold;fill:#ffffff"
         id="path3221" />
      <path
         d="m 380.63782,718.34643 0,2.1983 2.55086,0 0,1.7697 -2.55086,0 0,3.28362 c 0,0.35948 0.0714,0.60373 0.2143,0.73277 0.14287,0.12444 0.42629,0.18665 0.85029,0.18665 l 1.27197,0 0,1.7697 -2.12226,0 c -0.97702,0 -1.67061,-0.20278 -2.08078,-0.60833 -0.40556,-0.41017 -0.60833,-1.10376 -0.60833,-2.08079 l 0,-3.28362 -1.2305,0 0,-1.7697 1.2305,0 0,-2.1983 2.47481,0"
         style="font-weight:bold;fill:#ffffff"
         id="path3223" />
      <path
         d="m 384.70953,720.54473 2.47481,0 0,7.74244 -2.47481,0 0,-7.74244 m 0,-3.01402 2.47481,0 0,2.01856 -2.47481,0 0,-2.01856"
         style="font-weight:bold;fill:#ffffff"
         id="path3225" />
      <path
         d="m 397.36013,723.57258 0,4.71459 -2.48864,0 0,-0.76733 0,-2.8412 c -10e-6,-0.66824 -0.0161,-1.1291 -0.0484,-1.38258 -0.0277,-0.25347 -0.0784,-0.44011 -0.15209,-0.55994 -0.0968,-0.1613 -0.22813,-0.28573 -0.39403,-0.3733 -0.16592,-0.0922 -0.35487,-0.13825 -0.56686,-0.13826 -0.51617,10e-6 -0.92172,0.20048 -1.21667,0.60142 -0.29495,0.39635 -0.44243,0.94708 -0.44242,1.65219 l 0,3.809 -2.47482,0 0,-7.74244 2.47482,0 0,1.13371 c 0.37329,-0.45163 0.76963,-0.78345 1.18901,-0.99545 0.41938,-0.2166 0.88254,-0.3249 1.3895,-0.32491 0.89406,10e-6 1.57152,0.27422 2.03239,0.82264 0.46546,0.54842 0.69819,1.34571 0.6982,2.39186"
         style="font-weight:bold;fill:#ffffff"
         id="path3227" />
      <path
         d="m 404.93665,726.97372 c -0.34104,0.45164 -0.71664,0.78346 -1.1268,0.99546 -0.41017,0.21199 -0.88485,0.31799 -1.42405,0.31799 -0.94477,0 -1.72593,-0.37099 -2.34347,-1.11298 -0.61756,-0.74659 -0.92633,-1.69596 -0.92633,-2.84811 0,-1.15675 0.30877,-2.10382 0.92633,-2.8412 0.61754,-0.74197 1.3987,-1.11297 2.34347,-1.11297 0.5392,0 1.01388,0.106 1.42405,0.31799 0.41016,0.212 0.78576,0.54613 1.1268,1.00237 l 0,-1.14754 2.48865,0 0,6.96128 c -10e-6,1.24432 -0.39405,2.19369 -1.18211,2.84812 -0.78347,0.65902 -1.92179,0.98854 -3.41497,0.98854 -0.48391,0 -0.95168,-0.0369 -1.40332,-0.11061 -0.45164,-0.0737 -0.90559,-0.18665 -1.36184,-0.33873 l 0,-1.9287 c 0.43321,0.24887 0.8572,0.43321 1.27198,0.55304 0.41477,0.12443 0.83184,0.18664 1.25123,0.18664 0.81111,0 1.40562,-0.17743 1.78353,-0.53229 0.3779,-0.35486 0.56685,-0.9102 0.56685,-1.66601 l 0,-0.53229 m -1.63144,-4.81829 c -0.51156,10e-6 -0.9102,0.18896 -1.19593,0.56686 -0.28574,0.37791 -0.4286,0.91251 -0.4286,1.60379 0,0.70973 0.13826,1.24893 0.41477,1.61762 0.27652,0.36408 0.67977,0.54612 1.20976,0.54612 0.51616,0 0.91711,-0.18895 1.20284,-0.56686 0.28573,-0.3779 0.4286,-0.91019 0.4286,-1.59688 0,-0.69128 -0.14287,-1.22588 -0.4286,-1.60379 -0.28573,-0.3779 -0.68668,-0.56685 -1.20284,-0.56686"
         style="font-weight:bold;fill:#ffffff"
         id="path3229" />
      <path
         d="m 420.78793,720.78668 0,1.88031 c -0.53,-0.22121 -1.04155,-0.38712 -1.53467,-0.49773 -0.49312,-0.1106 -0.95859,-0.1659 -1.3964,-0.16591 -0.47008,1e-5 -0.82034,0.0599 -1.05076,0.17973 -0.22583,0.11523 -0.33874,0.29496 -0.33873,0.53921 -1e-5,0.19818 0.0852,0.35026 0.25577,0.45625 0.17513,0.106 0.48621,0.18435 0.93324,0.23504 l 0.43552,0.0622 c 1.26735,0.1613 2.11994,0.4263 2.55777,0.79498 0.43781,0.36869 0.65671,0.94707 0.65672,1.73514 -1e-5,0.82494 -0.30417,1.44479 -0.9125,1.85956 -0.60834,0.41478 -1.51623,0.62216 -2.72368,0.62216 -0.51156,0 -1.04155,-0.0415 -1.58997,-0.12443 -0.54381,-0.0783 -1.10376,-0.19817 -1.67983,-0.35947 l 0,-1.88031 c 0.49312,0.23965 0.99776,0.41939 1.51392,0.53921 0.52077,0.11983 1.04846,0.17974 1.58306,0.17974 0.4839,0 0.84797,-0.0668 1.09223,-0.20048 0.24426,-0.13365 0.36638,-0.33182 0.36639,-0.59451 -10e-6,-0.22121 -0.0853,-0.38481 -0.25578,-0.49081 -0.16591,-0.11061 -0.50004,-0.19587 -1.00237,-0.25578 l -0.43551,-0.0553 c -1.10146,-0.13826 -1.8734,-0.39403 -2.31582,-0.76733 -0.44243,-0.3733 -0.66364,-0.94015 -0.66364,-1.70058 0,-0.82032 0.28113,-1.42865 0.84337,-1.825 0.56225,-0.39633 1.42406,-0.5945 2.58543,-0.59451 0.45624,10e-6 0.93554,0.0346 1.43788,0.10369 0.50233,0.0691 1.04845,0.17744 1.63836,0.32491"
         style="font-weight:bold;fill:#ffffff"
         id="path3231" />
      <path
         d="m 422.15668,720.54473 2.47481,0 2.08079,5.2538 1.7697,-5.2538 2.47481,0 -3.25597,8.47521 c -0.32722,0.8618 -0.70973,1.46322 -1.14754,1.80426 -0.43321,0.34564 -1.00698,0.51847 -1.72131,0.51847 l -1.43097,0 0,-1.62453 0.77424,0 c 0.41938,0 0.72355,-0.0668 0.91251,-0.20047 0.19355,-0.13365 0.34333,-0.3733 0.44933,-0.71895 l 0.0691,-0.2143 -3.44953,-8.03969"
         style="font-weight:bold;fill:#ffffff"
         id="path3233" />
      <path
         d="m 438.45728,720.78668 0,1.88031 c -0.52999,-0.22121 -1.04155,-0.38712 -1.53466,-0.49773 -0.49312,-0.1106 -0.95859,-0.1659 -1.3964,-0.16591 -0.47009,1e-5 -0.82034,0.0599 -1.05076,0.17973 -0.22583,0.11523 -0.33874,0.29496 -0.33874,0.53921 0,0.19818 0.0853,0.35026 0.25578,0.45625 0.17512,0.106 0.4862,0.18435 0.93324,0.23504 l 0.43551,0.0622 c 1.26736,0.1613 2.11995,0.4263 2.55777,0.79498 0.43781,0.36869 0.65672,0.94707 0.65673,1.73514 -1e-5,0.82494 -0.30418,1.44479 -0.9125,1.85956 -0.60834,0.41478 -1.51624,0.62216 -2.72368,0.62216 -0.51156,0 -1.04155,-0.0415 -1.58997,-0.12443 -0.54381,-0.0783 -1.10376,-0.19817 -1.67983,-0.35947 l 0,-1.88031 c 0.49312,0.23965 0.99776,0.41939 1.51392,0.53921 0.52077,0.11983 1.04845,0.17974 1.58305,0.17974 0.4839,0 0.84798,-0.0668 1.09224,-0.20048 0.24425,-0.13365 0.36638,-0.33182 0.36639,-0.59451 -10e-6,-0.22121 -0.0853,-0.38481 -0.25578,-0.49081 -0.16592,-0.11061 -0.50004,-0.19587 -1.00237,-0.25578 l -0.43551,-0.0553 c -1.10146,-0.13826 -1.8734,-0.39403 -2.31582,-0.76733 -0.44243,-0.3733 -0.66364,-0.94015 -0.66364,-1.70058 0,-0.82032 0.28112,-1.42865 0.84337,-1.825 0.56225,-0.39633 1.42406,-0.5945 2.58542,-0.59451 0.45625,10e-6 0.93554,0.0346 1.43789,0.10369 0.50233,0.0691 1.04845,0.17744 1.63835,0.32491"
         style="font-weight:bold;fill:#ffffff"
         id="path3235" />
      <path
         d="m 443.54517,718.34643 0,2.1983 2.55086,0 0,1.7697 -2.55086,0 0,3.28362 c 0,0.35948 0.0714,0.60373 0.2143,0.73277 0.14286,0.12444 0.42629,0.18665 0.85029,0.18665 l 1.27197,0 0,1.7697 -2.12226,0 c -0.97702,0 -1.67062,-0.20278 -2.08078,-0.60833 -0.40556,-0.41017 -0.60833,-1.10376 -0.60833,-2.08079 l 0,-3.28362 -1.2305,0 0,-1.7697 1.2305,0 0,-2.1983 2.47481,0"
         style="font-weight:bold;fill:#ffffff"
         id="path3237" />
      <path
         d="m 455.34547,724.39521 0,0.70512 -5.78609,0 c 0.0599,0.58068 0.2696,1.01619 0.62908,1.30653 0.35946,0.29035 0.8618,0.43552 1.50701,0.43552 0.52076,0 1.05305,-0.076 1.59688,-0.22813 0.54841,-0.15669 1.11066,-0.39173 1.68674,-0.70512 l 0,1.90796 c -0.5853,0.22122 -1.17059,0.38713 -1.75587,0.49773 -0.5853,0.11522 -1.17059,0.17282 -1.75588,0.17282 -1.40102,0 -2.49095,-0.35486 -3.2698,-1.06458 -0.77424,-0.71433 -1.16136,-1.7144 -1.16136,-3.0002 0,-1.26275 0.3802,-2.2559 1.14062,-2.97945 0.76503,-0.72355 1.81579,-1.08532 3.15228,-1.08533 1.21667,10e-6 2.18908,0.36639 2.91724,1.09915 0.73276,0.73277 1.09915,1.7121 1.09915,2.93798 m -2.54394,-0.82263 c -1e-5,-0.47007 -0.13826,-0.84798 -0.41477,-1.13372 -0.27192,-0.29033 -0.62908,-0.4355 -1.0715,-0.43551 -0.4793,1e-5 -0.86873,0.13596 -1.16828,0.40786 -0.29956,0.2673 -0.48621,0.65443 -0.55995,1.16137 l 3.2145,0"
         style="font-weight:bold;fill:#ffffff"
         id="path3239" />
      <path
         d="m 464.38754,721.83053 c 0.31337,-0.47929 0.68436,-0.84337 1.11297,-1.09224 0.4332,-0.25346 0.90788,-0.3802 1.42406,-0.38021 0.88945,10e-6 1.56691,0.27422 2.03239,0.82264 0.46545,0.54842 0.69819,1.34571 0.6982,2.39186 l 0,4.71459 -2.48864,0 0,-4.03713 c 0.005,-0.0599 0.007,-0.12212 0.007,-0.18665 0.005,-0.0645 0.007,-0.15669 0.007,-0.27651 -2e-5,-0.54842 -0.0807,-0.94476 -0.24196,-1.18902 -0.16131,-0.24886 -0.42169,-0.37329 -0.78115,-0.3733 -0.47009,10e-6 -0.83417,0.19357 -1.09224,0.58069 -0.25348,0.38712 -0.38483,0.94707 -0.39404,1.67983 l 0,3.80209 -2.48864,0 0,-4.03713 c 0,-0.85719 -0.0737,-1.40792 -0.22121,-1.65218 -0.14748,-0.24886 -0.41017,-0.37329 -0.78807,-0.3733 -0.47469,10e-6 -0.84107,0.19587 -1.09915,0.5876 -0.25809,0.38713 -0.38713,0.94246 -0.38712,1.66601 l 0,3.809 -2.48864,0 0,-7.74244 2.48864,0 0,1.13371 c 0.30416,-0.43781 0.65211,-0.76732 1.04384,-0.98854 0.39634,-0.2212 0.83185,-0.33181 1.30654,-0.33182 0.53459,10e-6 1.00697,0.12905 1.41715,0.38712 0.41015,0.25809 0.72123,0.61987 0.93324,1.08533"
         style="font-weight:bold;fill:#ffffff"
         id="path3241" />
    </g>
  </g>
</svg>
