<?xml version="1.0" encoding="UTF-8" standalone="no"?>
<!-- Created with Inkscape (http://www.inkscape.org/) -->

<svg
   xmlns:dc="http://purl.org/dc/elements/1.1/"
   xmlns:cc="http://creativecommons.org/ns#"
   xmlns:rdf="http://www.w3.org/1999/02/22-rdf-syntax-ns#"
   xmlns:svg="http://www.w3.org/2000/svg"
   xmlns="http://www.w3.org/2000/svg"
   xmlns:xlink="http://www.w3.org/1999/xlink"
   xmlns:sodipodi="http://sodipodi.sourceforge.net/DTD/sodipodi-0.dtd"
   xmlns:inkscape="http://www.inkscape.org/namespaces/inkscape"
   width="640"
   height="400"
   id="svg2"
   version="1.1"
   inkscape:version="0.48.3.1 r9886"
   sodipodi:docname="jsplatform.svg">
  <defs
     id="defs4">
    <linearGradient
       inkscape:collect="always"
       id="linearGradient3923">
      <stop
         style="stop-color:#808080;stop-opacity:1;"
         offset="0"
         id="stop3925" />
      <stop
         style="stop-color:#808080;stop-opacity:0;"
         offset="1"
         id="stop3927" />
    </linearGradient>
    <filter
       inkscape:label="Drop Shadow"
       id="filter3778"
       color-interpolation-filters="sRGB">
      <feFlood
         result="flood"
         flood-color="rgb(0,0,0)"
         flood-opacity="0.8"
         id="feFlood3780" />
      <feComposite
         result="composite1"
         operator="in"
         in="flood"
         in2="SourceGraphic"
         id="feComposite3782" />
      <feGaussianBlur
         result="blur"
         stdDeviation="2"
         id="feGaussianBlur3784" />
      <feOffset
         result="offset"
         dy="0.4"
         dx="0.7"
         id="feOffset3786" />
      <feComposite
         result="composite2"
         operator="over"
         in="SourceGraphic"
         in2="offset"
         id="feComposite3788" />
    </filter>
    <filter
       inkscape:label="Drop Shadow"
       id="filter3766"
       color-interpolation-filters="sRGB">
      <feFlood
         result="flood"
         flood-color="rgb(0,0,0)"
         flood-opacity="0.8"
         id="feFlood3768" />
      <feComposite
         result="composite1"
         operator="in"
         in="flood"
         in2="SourceGraphic"
         id="feComposite3770" />
      <feGaussianBlur
         result="blur"
         stdDeviation="2"
         id="feGaussianBlur3772" />
      <feOffset
         result="offset"
         dy="0.4"
         dx="0.7"
         id="feOffset3774" />
      <feComposite
         result="composite2"
         operator="over"
         in="SourceGraphic"
         in2="offset"
         id="feComposite3776" />
    </filter>
    <filter
       inkscape:label="Drop Shadow"
       id="filter3754"
       color-interpolation-filters="sRGB">
      <feFlood
         result="flood"
         flood-color="rgb(0,0,0)"
         flood-opacity="0.8"
         id="feFlood3756" />
      <feComposite
         result="composite1"
         operator="in"
         in="flood"
         in2="SourceGraphic"
         id="feComposite3758" />
      <feGaussianBlur
         result="blur"
         stdDeviation="2"
         id="feGaussianBlur3760" />
      <feOffset
         result="offset"
         dy="0.4"
         dx="0.7"
         id="feOffset3762" />
      <feComposite
         result="composite2"
         operator="over"
         in="SourceGraphic"
         in2="offset"
         id="feComposite3764" />
    </filter>
    <filter
       inkscape:label="Drop Shadow"
       id="filter3742"
       color-interpolation-filters="sRGB">
      <feFlood
         result="flood"
         flood-color="rgb(0,0,0)"
         flood-opacity="0.8"
         id="feFlood3744" />
      <feComposite
         result="composite1"
         operator="in"
         in="flood"
         in2="SourceGraphic"
         id="feComposite3746" />
      <feGaussianBlur
         result="blur"
         stdDeviation="2"
         id="feGaussianBlur3748" />
      <feOffset
         result="offset"
         dy="0.4"
         dx="0.7"
         id="feOffset3750" />
      <feComposite
         result="composite2"
         operator="over"
         in="SourceGraphic"
         in2="offset"
         id="feComposite3752" />
    </filter>
    <radialGradient
       inkscape:collect="always"
       xlink:href="#linearGradient3923"
       id="radialGradient3931"
       cx="140.6658"
       cy="834.7157"
       fx="140.6658"
       fy="834.7157"
       r="320"
       gradientTransform="matrix(-0.20929466,1.3269913,-2.3942812,-0.37729084,2225.9746,846.27002)"
       gradientUnits="userSpaceOnUse" />
    <filter
       id="filter3384"
       style="color-interpolation-filters:sRGB;"
       inkscape:label="Drop Shadow">
      <feFlood
         id="feFlood3386"
         flood-opacity="0.9"
         flood-color="rgb(0,0,0)"
         result="flood" />
      <feComposite
         id="feComposite3388"
         in2="SourceGraphic"
         in="flood"
         operator="in"
         result="composite1" />
      <feGaussianBlur
         id="feGaussianBlur3390"
         in="composite"
         stdDeviation="3.5"
         result="blur" />
      <feOffset
         id="feOffset3392"
         dx="0"
         dy="0"
         result="offset" />
      <feComposite
         id="feComposite3394"
         in2="offset"
         in="SourceGraphic"
         operator="over"
         result="composite2" />
    </filter>
    <filter
       id="filter3396"
       style="color-interpolation-filters:sRGB;"
       inkscape:label="Drop Shadow">
      <feFlood
         id="feFlood3398"
         flood-opacity="0.9"
         flood-color="rgb(0,0,0)"
         result="flood" />
      <feComposite
         id="feComposite3400"
         in2="SourceGraphic"
         in="flood"
         operator="in"
         result="composite1" />
      <feGaussianBlur
         id="feGaussianBlur3402"
         in="composite"
         stdDeviation="3.5"
         result="blur" />
      <feOffset
         id="feOffset3404"
         dx="0"
         dy="0"
         result="offset" />
      <feComposite
         id="feComposite3406"
         in2="offset"
         in="SourceGraphic"
         operator="over"
         result="composite2" />
    </filter>
  </defs>
  <sodipodi:namedview
     id="base"
     pagecolor="#ffffff"
     bordercolor="#666666"
     borderopacity="1.0"
     inkscape:pageopacity="0.0"
     inkscape:pageshadow="2"
     inkscape:zoom="1.4"
     inkscape:cx="489.19605"
     inkscape:cy="229.5308"
     inkscape:document-units="px"
     inkscape:current-layer="text3060"
     showgrid="false"
     inkscape:window-width="1535"
     inkscape:window-height="876"
     inkscape:window-x="65"
     inkscape:window-y="24"
     inkscape:window-maximized="1" />
  <metadata
     id="metadata7">
    <rdf:RDF>
      <cc:Work
         rdf:about="">
        <dc:format>image/svg+xml</dc:format>
        <dc:type
           rdf:resource="http://purl.org/dc/dcmitype/StillImage" />
        <dc:title />
      </cc:Work>
    </rdf:RDF>
  </metadata>
  <g
     inkscape:label="Layer 1"
     inkscape:groupmode="layer"
     id="layer1"
     transform="translate(0,-652.36218)">
    <rect
       style="fill:url(#radialGradient3931);fill-opacity:1;stroke:none"
       id="rect3921"
       width="640"
       height="400"
       x="0"
       y="652.36218"
       rx="0.25803122"
       ry="0.19380301" />
    <g
       style="font-size:14.19407177px;font-style:normal;font-weight:normal;line-height:125%;letter-spacing:0px;word-spacing:0px;fill:#cccccc;fill-opacity:1;stroke:none;filter:url(#filter3754);font-family:Sans"
       id="text3699">
      <path
         d="m 237.77632,719.62631 0,1.88515 c -0.53136,-0.22178 -1.04423,-0.38811 -1.53861,-0.49901 -0.4944,-0.11089 -0.96106,-0.16633 -1.4,-0.16634 -0.47129,1e-5 -0.82245,0.0601 -1.05347,0.1802 -0.2264,0.11552 -0.33961,0.29572 -0.3396,0.5406 -1e-5,0.19868 0.0855,0.35116 0.25643,0.45742 0.17558,0.10628 0.48746,0.18483 0.93565,0.23565 l 0.43663,0.0624 c 1.27062,0.16172 2.12541,0.4274 2.56436,0.79703 0.43894,0.36964 0.65841,0.94951 0.65842,1.73961 -1e-5,0.82706 -0.30496,1.44851 -0.91486,1.86436 -0.6099,0.41584 -1.52013,0.62376 -2.73069,0.62376 -0.51288,0 -1.04423,-0.0416 -1.59406,-0.12475 -0.54522,-0.0785 -1.1066,-0.19868 -1.68416,-0.3604 l 0,-1.88515 c 0.49439,0.24027 1.00033,0.42046 1.51782,0.54059 0.52211,0.12014 1.05115,0.1802 1.58713,0.1802 0.48515,0 0.85016,-0.067 1.09505,-0.20099 0.24488,-0.13399 0.36732,-0.33267 0.36733,-0.59604 -1e-5,-0.22178 -0.0855,-0.3858 -0.25644,-0.49208 -0.16634,-0.11089 -0.50132,-0.19636 -1.00495,-0.25643 l -0.43663,-0.0554 c -1.1043,-0.13861 -1.87822,-0.39505 -2.32179,-0.76931 -0.44356,-0.37425 -0.66534,-0.94257 -0.66534,-1.70495 0,-0.82244 0.28184,-1.43234 0.84554,-1.8297 0.5637,-0.39736 1.42772,-0.59604 2.59208,-0.59604 0.45742,0 0.93795,0.0347 1.44159,0.10396 0.50362,0.0693 1.05115,0.17789 1.64257,0.32574"
         style="font-weight:bold;fill:#cccccc"
         id="path3057" />
      <path
         d="m 247.91594,723.24413 0,0.70694 -5.801,0 c 0.0601,0.58218 0.2703,1.01881 0.6307,1.3099 0.36039,0.29109 0.86402,0.43663 1.51089,0.43663 0.5221,0 1.05577,-0.0762 1.60099,-0.22871 0.54983,-0.1571 1.11352,-0.39274 1.69109,-0.70693 l 0,1.91287 c -0.58681,0.22178 -1.17361,0.38812 -1.7604,0.49901 -0.5868,0.11551 -1.1736,0.17327 -1.7604,0.17327 -1.40462,0 -2.49736,-0.35578 -3.27822,-1.06733 -0.77624,-0.71617 -1.16435,-1.71881 -1.16435,-3.00792 0,-1.26601 0.38118,-2.26171 1.14356,-2.98713 0.767,-0.72541 1.82046,-1.08812 3.1604,-1.08812 1.2198,0 2.19472,0.36733 2.92476,1.10198 0.73464,0.73466 1.10197,1.71651 1.10198,2.94554 m -2.5505,-0.82475 c -1e-5,-0.47128 -0.13862,-0.85016 -0.41584,-1.13663 -0.27262,-0.29109 -0.6307,-0.43663 -1.07426,-0.43664 -0.48053,1e-5 -0.87096,0.13631 -1.17129,0.40891 -0.30033,0.268 -0.48746,0.65612 -0.56139,1.16436 l 3.22278,0"
         style="font-weight:bold;fill:#cccccc"
         id="path3059" />
      <path
         d="m 255.55357,721.4976 c -0.21717,-0.10165 -0.43433,-0.17557 -0.65149,-0.22178 -0.21255,-0.0508 -0.4274,-0.0762 -0.64455,-0.0762 -0.63763,0 -1.12971,0.20561 -1.47624,0.61683 -0.34192,0.40661 -0.51288,0.99109 -0.51287,1.75347 l 0,3.57624 -2.48119,0 0,-7.76238 2.48119,0 0,1.27524 c 0.3188,-0.50824 0.68382,-0.87788 1.09505,-1.10891 0.41583,-0.23563 0.91253,-0.35346 1.4901,-0.35346 0.0832,0 0.17326,0.005 0.27029,0.0139 0.097,0.005 0.23795,0.0185 0.42278,0.0416 l 0.007,2.24555"
         style="font-weight:bold;fill:#cccccc"
         id="path3061" />
      <path
         d="m 256.80109,719.38374 2.48119,0 0,7.76238 -2.48119,0 0,-7.76238 m 0,-3.02179 2.48119,0 0,2.02376 -2.48119,0 0,-2.02376"
         style="font-weight:bold;fill:#cccccc"
         id="path3063" />
      <path
         d="m 265.37437,720.97087 c -0.54984,0 -0.9703,0.19868 -1.26139,0.59604 -0.28647,0.39274 -0.42971,0.96106 -0.4297,1.70495 -1e-5,0.7439 0.14323,1.31452 0.4297,1.71188 0.29109,0.39274 0.71155,0.58911 1.26139,0.58911 0.54059,0 0.95412,-0.19637 1.24059,-0.58911 0.28646,-0.39736 0.4297,-0.96798 0.42971,-1.71188 -10e-6,-0.74389 -0.14325,-1.31221 -0.42971,-1.70495 -0.28647,-0.39736 -0.7,-0.59604 -1.24059,-0.59604 m 0,-1.77426 c 1.33531,0 2.37722,0.3604 3.12574,1.08119 0.75313,0.72079 1.1297,1.71881 1.12971,2.99406 -10e-6,1.27525 -0.37658,2.27327 -1.12971,2.99406 -0.74852,0.72079 -1.79043,1.08119 -3.12574,1.08119 -1.33994,0 -2.38879,-0.3604 -3.14654,-1.08119 -0.75314,-0.72079 -1.12971,-1.71881 -1.1297,-2.99406 -1e-5,-1.27525 0.37656,-2.27327 1.1297,-2.99406 0.75775,-0.72079 1.8066,-1.08119 3.14654,-1.08119"
         style="font-weight:bold;fill:#cccccc"
         id="path3065" />
      <path
         d="m 271.35556,724.12433 0,-4.74059 2.49505,0 0,0.77623 c 0,0.42047 -0.002,0.94952 -0.007,1.58713 -0.005,0.63301 -0.007,1.05578 -0.007,1.26832 0,0.62377 0.0162,1.07426 0.0485,1.35149 0.0323,0.27261 0.0878,0.47129 0.16633,0.59604 0.10165,0.16172 0.23333,0.28647 0.39505,0.37426 0.16634,0.0878 0.35578,0.13168 0.56832,0.13168 0.51749,0 0.92409,-0.19868 1.2198,-0.59604 0.29571,-0.39736 0.44356,-0.9495 0.44357,-1.65644 l 0,-3.83267 2.48119,0 0,7.76238 -2.48119,0 0,-1.12278 c -0.37426,0.45281 -0.77162,0.78779 -1.19208,1.00496 -0.41585,0.21254 -0.87558,0.31881 -1.37921,0.31881 -0.89637,0 -1.5802,-0.27492 -2.05149,-0.82475 -0.46667,-0.54984 -0.7,-1.34918 -0.7,-2.39803"
         style="font-weight:bold;fill:#cccccc"
         id="path3067" />
      <path
         d="m 287.62191,719.62631 0,1.88515 c -0.53136,-0.22178 -1.04423,-0.38811 -1.53861,-0.49901 -0.4944,-0.11089 -0.96106,-0.16633 -1.4,-0.16634 -0.47129,1e-5 -0.82245,0.0601 -1.05347,0.1802 -0.22641,0.11552 -0.33961,0.29572 -0.3396,0.5406 -1e-5,0.19868 0.0855,0.35116 0.25643,0.45742 0.17558,0.10628 0.48746,0.18483 0.93565,0.23565 l 0.43663,0.0624 c 1.27062,0.16172 2.12541,0.4274 2.56436,0.79703 0.43894,0.36964 0.65841,0.94951 0.65842,1.73961 -1e-5,0.82706 -0.30496,1.44851 -0.91486,1.86436 -0.6099,0.41584 -1.52014,0.62376 -2.73069,0.62376 -0.51288,0 -1.04423,-0.0416 -1.59406,-0.12475 -0.54522,-0.0785 -1.10661,-0.19868 -1.68416,-0.3604 l 0,-1.88515 c 0.49439,0.24027 1.00033,0.42046 1.51782,0.54059 0.52211,0.12014 1.05115,0.1802 1.58713,0.1802 0.48514,0 0.85016,-0.067 1.09505,-0.20099 0.24488,-0.13399 0.36732,-0.33267 0.36733,-0.59604 -10e-6,-0.22178 -0.0855,-0.3858 -0.25644,-0.49208 -0.16634,-0.11089 -0.50132,-0.19636 -1.00495,-0.25643 l -0.43663,-0.0554 c -1.1043,-0.13861 -1.87822,-0.39505 -2.32179,-0.76931 -0.44356,-0.37425 -0.66535,-0.94257 -0.66535,-1.70495 0,-0.82244 0.28185,-1.43234 0.84555,-1.8297 0.56369,-0.39736 1.42772,-0.59604 2.59208,-0.59604 0.45742,0 0.93795,0.0347 1.44159,0.10396 0.50362,0.0693 1.05115,0.17789 1.64257,0.32574"
         style="font-weight:bold;fill:#cccccc"
         id="path3069" />
      <path
         d="m 294.25459,719.38374 2.41188,0 1.30298,5.35049 1.3099,-5.35049 2.07228,0 1.30297,5.29505 1.3099,-5.29505 2.41188,0 -2.04455,7.76238 -2.70991,0 -1.3099,-5.33664 -1.30297,5.33664 -2.7099,0 -2.04456,-7.76238"
         style="font-weight:bold;fill:#cccccc"
         id="path3071" />
      <path
         d="m 315.80906,723.24413 0,0.70694 -5.80099,0 c 0.0601,0.58218 0.27029,1.01881 0.63069,1.3099 0.36039,0.29109 0.86402,0.43663 1.51089,0.43663 0.52211,0 1.05577,-0.0762 1.601,-0.22871 0.54982,-0.1571 1.11352,-0.39274 1.69109,-0.70693 l 0,1.91287 c -0.58681,0.22178 -1.17361,0.38812 -1.7604,0.49901 -0.58681,0.11551 -1.17361,0.17327 -1.7604,0.17327 -1.40462,0 -2.49736,-0.35578 -3.27822,-1.06733 -0.77624,-0.71617 -1.16436,-1.71881 -1.16436,-3.00792 0,-1.26601 0.38119,-2.26171 1.14357,-2.98713 0.76699,-0.72541 1.82046,-1.08812 3.1604,-1.08812 1.21979,0 2.19471,0.36733 2.92475,1.10198 0.73465,0.73466 1.10197,1.71651 1.10198,2.94554 m -2.55049,-0.82475 c -1e-5,-0.47128 -0.13862,-0.85016 -0.41585,-1.13663 -0.27261,-0.29109 -0.63069,-0.43663 -1.07425,-0.43664 -0.48054,1e-5 -0.87097,0.13631 -1.17129,0.40891 -0.30034,0.268 -0.48746,0.65612 -0.56139,1.16436 l 3.22278,0"
         style="font-weight:bold;fill:#cccccc"
         id="path3073" />
      <path
         d="m 321.81105,725.54513 c 0.53135,0 0.93564,-0.19406 1.21287,-0.58218 0.28184,-0.38812 0.42277,-0.95181 0.42278,-1.69109 -1e-5,-0.73927 -0.14094,-1.30297 -0.42278,-1.69109 -0.27723,-0.38812 -0.68152,-0.58218 -1.21287,-0.58218 -0.53136,0 -0.94027,0.19637 -1.22673,0.58911 -0.28186,0.38812 -0.42278,0.94951 -0.42278,1.68416 0,0.73465 0.14092,1.29835 0.42278,1.69109 0.28646,0.38812 0.69537,0.58218 1.22673,0.58218 m -1.64951,-5.02476 c 0.34191,-0.4528 0.72079,-0.78547 1.13664,-0.99802 0.41584,-0.21715 0.89405,-0.32574 1.43465,-0.32574 0.95643,0 1.74191,0.38119 2.35644,1.14356 0.61451,0.75776 0.92177,1.73499 0.92178,2.93169 -1e-5,1.1967 -0.30727,2.17624 -0.92178,2.93861 -0.61453,0.75776 -1.40001,1.13664 -2.35644,1.13664 -0.5406,0 -1.01881,-0.10627 -1.43465,-0.31881 -0.41585,-0.21717 -0.79473,-0.55215 -1.13664,-1.00496 l 0,1.12278 -2.48119,0 0,-10.78417 2.48119,0 0,4.15842"
         style="font-weight:bold;fill:#cccccc"
         id="path3075" />
      <path
         d="m 336.48334,720.97087 c -0.54984,0 -0.9703,0.19868 -1.26139,0.59604 -0.28647,0.39274 -0.4297,0.96106 -0.4297,1.70495 0,0.7439 0.14323,1.31452 0.4297,1.71188 0.29109,0.39274 0.71155,0.58911 1.26139,0.58911 0.54059,0 0.95412,-0.19637 1.2406,-0.58911 0.28646,-0.39736 0.42969,-0.96798 0.4297,-1.71188 -10e-6,-0.74389 -0.14324,-1.31221 -0.4297,-1.70495 -0.28648,-0.39736 -0.70001,-0.59604 -1.2406,-0.59604 m 0,-1.77426 c 1.33531,0 2.37722,0.3604 3.12575,1.08119 0.75312,0.72079 1.12969,1.71881 1.1297,2.99406 -10e-6,1.27525 -0.37658,2.27327 -1.1297,2.99406 -0.74853,0.72079 -1.79044,1.08119 -3.12575,1.08119 -1.33994,0 -2.38878,-0.3604 -3.14654,-1.08119 -0.75313,-0.72079 -1.1297,-1.71881 -1.1297,-2.99406 0,-1.27525 0.37657,-2.27327 1.1297,-2.99406 0.75776,-0.72079 1.8066,-1.08119 3.14654,-1.08119"
         style="font-weight:bold;fill:#cccccc"
         id="path3077" />
      <path
         d="m 345.02889,726.02334 0,4.07526 -2.48119,0 0,-10.71486 2.48119,0 0,1.13663 c 0.34191,-0.4528 0.72079,-0.78547 1.13664,-0.99802 0.41583,-0.21715 0.89405,-0.32574 1.43465,-0.32574 0.95643,0 1.74191,0.38119 2.35644,1.14356 0.61451,0.75776 0.92177,1.73499 0.92178,2.93169 -10e-6,1.1967 -0.30727,2.17624 -0.92178,2.93861 -0.61453,0.75776 -1.40001,1.13664 -2.35644,1.13664 -0.5406,0 -1.01882,-0.10627 -1.43465,-0.31881 -0.41585,-0.21717 -0.79473,-0.55215 -1.13664,-1.00496 m 1.64951,-5.02475 c -0.53136,0 -0.94027,0.19637 -1.22674,0.58911 -0.28185,0.38812 -0.42277,0.94951 -0.42277,1.68416 0,0.73465 0.14092,1.29835 0.42277,1.69109 0.28647,0.38812 0.69538,0.58218 1.22674,0.58218 0.53135,0 0.93564,-0.19406 1.21287,-0.58218 0.28184,-0.38812 0.42277,-0.95181 0.42277,-1.69109 0,-0.73927 -0.14093,-1.30297 -0.42277,-1.69109 -0.27723,-0.38812 -0.68152,-0.58218 -1.21287,-0.58218"
         style="font-weight:bold;fill:#cccccc"
         id="path3079" />
      <path
         d="m 360.47049,723.24413 0,0.70694 -5.80099,0 c 0.0601,0.58218 0.27029,1.01881 0.63069,1.3099 0.36039,0.29109 0.86402,0.43663 1.51089,0.43663 0.52211,0 1.05577,-0.0762 1.601,-0.22871 0.54982,-0.1571 1.11352,-0.39274 1.69109,-0.70693 l 0,1.91287 c -0.58681,0.22178 -1.17361,0.38812 -1.7604,0.49901 -0.58681,0.11551 -1.1736,0.17327 -1.7604,0.17327 -1.40462,0 -2.49736,-0.35578 -3.27822,-1.06733 -0.77624,-0.71617 -1.16436,-1.71881 -1.16436,-3.00792 0,-1.26601 0.38119,-2.26171 1.14357,-2.98713 0.76699,-0.72541 1.82046,-1.08812 3.1604,-1.08812 1.21979,0 2.19471,0.36733 2.92475,1.10198 0.73465,0.73466 1.10197,1.71651 1.10198,2.94554 M 357.92,722.41938 c -1e-5,-0.47128 -0.13862,-0.85016 -0.41585,-1.13663 -0.27261,-0.29109 -0.63069,-0.43663 -1.07425,-0.43664 -0.48054,1e-5 -0.87097,0.13631 -1.17129,0.40891 -0.30034,0.268 -0.48746,0.65612 -0.56139,1.16436 l 3.22278,0"
         style="font-weight:bold;fill:#cccccc"
         id="path3081" />
      <path
         d="m 368.10813,721.4976 c -0.21717,-0.10165 -0.43433,-0.17557 -0.65149,-0.22178 -0.21255,-0.0508 -0.4274,-0.0762 -0.64455,-0.0762 -0.63763,0 -1.12971,0.20561 -1.47624,0.61683 -0.34192,0.40661 -0.51288,0.99109 -0.51288,1.75347 l 0,3.57624 -2.48119,0 0,-7.76238 2.48119,0 0,1.27524 c 0.31881,-0.50824 0.68383,-0.87788 1.09505,-1.10891 0.41584,-0.23563 0.91254,-0.35346 1.49011,-0.35346 0.0832,0 0.17326,0.005 0.27029,0.0139 0.097,0.005 0.23795,0.0185 0.42278,0.0416 l 0.007,2.24555"
         style="font-weight:bold;fill:#cccccc"
         id="path3083" />
      <path
         d="m 372.83485,723.65305 c -0.5175,0 -0.90793,0.0878 -1.17129,0.26336 -0.25875,0.17558 -0.38812,0.43433 -0.38812,0.77624 0,0.31419 0.10396,0.56139 0.31188,0.74159 0.21254,0.17557 0.50594,0.26336 0.8802,0.26336 0.46667,0 0.8594,-0.16633 1.17822,-0.49901 0.31881,-0.33729 0.47821,-0.75775 0.47822,-1.26139 l 0,-0.28415 -1.28911,0 m 3.79109,-0.93565 0,4.42872 -2.50198,0 0,-1.1505 c -0.33268,0.47129 -0.70694,0.81551 -1.12277,1.03268 -0.41585,0.21254 -0.92179,0.31881 -1.51783,0.31881 -0.80396,0 -1.45776,-0.23334 -1.96138,-0.7 -0.49902,-0.47129 -0.74852,-1.08119 -0.74852,-1.82971 0,-0.91023 0.31188,-1.57788 0.93564,-2.00297 0.62839,-0.42508 1.61254,-0.63762 2.95248,-0.63762 l 1.46238,0 0,-0.19406 c -1e-5,-0.39274 -0.15479,-0.67921 -0.46436,-0.85941 -0.30957,-0.18481 -0.79241,-0.27722 -1.44851,-0.27723 -0.53136,1e-5 -1.02575,0.0531 -1.48317,0.15941 -0.45743,0.10628 -0.88251,0.26568 -1.27525,0.47822 l 0,-1.89208 c 0.53135,-0.12937 1.06501,-0.2264 1.60099,-0.29109 0.53597,-0.0693 1.07194,-0.10396 1.60792,-0.10396 1.4,0 2.40957,0.27723 3.02872,0.83168 0.62375,0.54984 0.93563,1.44621 0.93564,2.68911"
         style="font-weight:bold;fill:#cccccc"
         id="path3085" />
      <path
         d="m 381.65764,717.17977 0,2.20397 2.55743,0 0,1.77425 -2.55743,0 0,3.29209 c 0,0.36039 0.0716,0.60528 0.21486,0.73465 0.14323,0.12475 0.42738,0.18713 0.85247,0.18713 l 1.27525,0 0,1.77426 -2.12772,0 c -0.97955,0 -1.67493,-0.2033 -2.08614,-0.6099 -0.40661,-0.41122 -0.60991,-1.1066 -0.60991,-2.08614 l 0,-3.29209 -1.23366,0 0,-1.77425 1.23366,0 0,-2.20397 2.48119,0"
         style="font-weight:bold;fill:#cccccc"
         id="path3087" />
      <path
         d="m 385.73982,719.38374 2.4812,0 0,7.76238 -2.4812,0 0,-7.76238 m 0,-3.02179 2.4812,0 0,2.02376 -2.4812,0 0,-2.02376"
         style="font-weight:bold;fill:#cccccc"
         id="path3089" />
      <path
         d="m 398.423,722.41938 0,4.72674 -2.49505,0 0,-0.76931 0,-2.84852 c 0,-0.66996 -0.0162,-1.13201 -0.0485,-1.38614 -0.0277,-0.25412 -0.0786,-0.44125 -0.15248,-0.56138 -0.097,-0.16171 -0.22872,-0.28647 -0.39505,-0.37426 -0.16634,-0.0924 -0.35578,-0.13861 -0.56832,-0.13861 -0.51749,0 -0.92409,0.20099 -1.2198,0.60297 -0.29571,0.39736 -0.44357,0.94951 -0.44356,1.65643 l 0,3.81882 -2.48119,0 0,-7.76238 2.48119,0 0,1.13663 c 0.37425,-0.4528 0.77161,-0.78547 1.19208,-0.99802 0.42045,-0.21715 0.88481,-0.32574 1.39307,-0.32574 0.89636,0 1.57557,0.27492 2.03762,0.82475 0.46666,0.54984 0.69999,1.34918 0.7,2.39802"
         style="font-weight:bold;fill:#cccccc"
         id="path3091" />
      <path
         d="m 406.01905,725.82929 c -0.34192,0.4528 -0.71849,0.78548 -1.1297,0.99802 -0.41123,0.21254 -0.88714,0.31881 -1.42773,0.31881 -0.9472,0 -1.73037,-0.37195 -2.34951,-1.11584 -0.61914,-0.74852 -0.92871,-1.70033 -0.92871,-2.85545 0,-1.15973 0.30957,-2.10924 0.92871,-2.84852 0.61914,-0.74389 1.40231,-1.11583 2.34951,-1.11584 0.54059,10e-6 1.0165,0.10628 1.42773,0.31881 0.41121,0.21255 0.78778,0.54753 1.1297,1.00495 l 0,-1.15049 2.49505,0 0,6.97921 c -10e-6,1.24752 -0.39506,2.19934 -1.18515,2.85545 -0.78548,0.66072 -1.92674,0.99108 -3.42376,0.99109 -0.48516,-10e-6 -0.95413,-0.037 -1.40694,-0.11089 -0.4528,-0.0739 -0.90792,-0.18714 -1.36534,-0.33961 l 0,-1.93366 c 0.43432,0.2495 0.8594,0.43432 1.27525,0.55445 0.41583,0.12475 0.83399,0.18713 1.25445,0.18713 0.8132,0 1.40924,-0.17789 1.78812,-0.53366 0.37887,-0.35578 0.56831,-0.91254 0.56832,-1.6703 l 0,-0.53366 m -1.63565,-4.8307 c -0.51287,0 -0.91254,0.18944 -1.19901,0.56832 -0.28647,0.37888 -0.4297,0.91485 -0.4297,1.60792 0,0.71155 0.13861,1.25215 0.41584,1.62178 0.27723,0.36502 0.68152,0.54753 1.21287,0.54753 0.51749,0 0.91947,-0.18944 1.20595,-0.56832 0.28646,-0.37888 0.42969,-0.91254 0.4297,-1.60099 -10e-6,-0.69307 -0.14324,-1.22904 -0.4297,-1.60792 -0.28648,-0.37888 -0.68846,-0.56832 -1.20595,-0.56832"
         style="font-weight:bold;fill:#cccccc"
         id="path3093" />
      <path
         d="m 421.91114,719.62631 0,1.88515 c -0.53136,-0.22178 -1.04424,-0.38811 -1.53862,-0.49901 -0.49439,-0.11089 -0.96106,-0.16633 -1.4,-0.16634 -0.47129,1e-5 -0.82245,0.0601 -1.05347,0.1802 -0.2264,0.11552 -0.3396,0.29572 -0.3396,0.5406 0,0.19868 0.0855,0.35116 0.25643,0.45742 0.17558,0.10628 0.48746,0.18483 0.93565,0.23565 l 0.43663,0.0624 c 1.27063,0.16172 2.12541,0.4274 2.56436,0.79703 0.43894,0.36964 0.65841,0.94951 0.65842,1.73961 -1e-5,0.82706 -0.30496,1.44851 -0.91485,1.86436 -0.60991,0.41584 -1.52014,0.62376 -2.7307,0.62376 -0.51288,0 -1.04423,-0.0416 -1.59406,-0.12475 -0.54522,-0.0785 -1.1066,-0.19868 -1.68416,-0.3604 l 0,-1.88515 c 0.49439,0.24027 1.00033,0.42046 1.51782,0.54059 0.52211,0.12014 1.05116,0.1802 1.58713,0.1802 0.48515,0 0.85016,-0.067 1.09505,-0.20099 0.24488,-0.13399 0.36732,-0.33267 0.36733,-0.59604 -10e-6,-0.22178 -0.0855,-0.3858 -0.25644,-0.49208 -0.16634,-0.11089 -0.50132,-0.19636 -1.00495,-0.25643 l -0.43663,-0.0554 c -1.10429,-0.13861 -1.87822,-0.39505 -2.32179,-0.76931 -0.44356,-0.37425 -0.66534,-0.94257 -0.66534,-1.70495 0,-0.82244 0.28185,-1.43234 0.84554,-1.8297 0.5637,-0.39736 1.42772,-0.59604 2.59208,-0.59604 0.45743,0 0.93795,0.0347 1.44159,0.10396 0.50362,0.0693 1.05115,0.17789 1.64258,0.32574"
         style="font-weight:bold;fill:#cccccc"
         id="path3095" />
      <path
         d="m 423.28342,719.38374 2.48119,0 2.08614,5.26733 1.77426,-5.26733 2.48119,0 -3.26436,8.49703 c -0.32806,0.86403 -0.71156,1.467 -1.15049,1.80891 -0.43433,0.34654 -1.00958,0.5198 -1.72575,0.51981 l -1.43465,0 0,-1.62872 0.77623,0 c 0.42046,0 0.72542,-0.067 0.91486,-0.20099 0.19405,-0.13399 0.34422,-0.37426 0.45049,-0.72079 l 0.0693,-0.21485 -3.45842,-8.0604"
         style="font-weight:bold;fill:#cccccc"
         id="path3097" />
      <path
         d="m 439.62601,719.62631 0,1.88515 c -0.53136,-0.22178 -1.04423,-0.38811 -1.53862,-0.49901 -0.49439,-0.11089 -0.96106,-0.16633 -1.4,-0.16634 -0.47129,1e-5 -0.82244,0.0601 -1.05346,0.1802 -0.22641,0.11552 -0.33961,0.29572 -0.33961,0.5406 0,0.19868 0.0855,0.35116 0.25644,0.45742 0.17557,0.10628 0.48745,0.18483 0.93564,0.23565 l 0.43664,0.0624 c 1.27062,0.16172 2.1254,0.4274 2.56436,0.79703 0.43893,0.36964 0.6584,0.94951 0.65841,1.73961 -10e-6,0.82706 -0.30496,1.44851 -0.91485,1.86436 -0.60991,0.41584 -1.52014,0.62376 -2.7307,0.62376 -0.51287,0 -1.04422,-0.0416 -1.59406,-0.12475 -0.54521,-0.0785 -1.1066,-0.19868 -1.68416,-0.3604 l 0,-1.88515 c 0.49439,0.24027 1.00033,0.42046 1.51783,0.54059 0.52211,0.12014 1.05115,0.1802 1.58713,0.1802 0.48514,0 0.85016,-0.067 1.09505,-0.20099 0.24488,-0.13399 0.36732,-0.33267 0.36732,-0.59604 0,-0.22178 -0.0855,-0.3858 -0.25643,-0.49208 -0.16634,-0.11089 -0.50133,-0.19636 -1.00495,-0.25643 l -0.43664,-0.0554 c -1.10429,-0.13861 -1.87822,-0.39505 -2.32178,-0.76931 -0.44357,-0.37425 -0.66535,-0.94257 -0.66535,-1.70495 0,-0.82244 0.28185,-1.43234 0.84555,-1.8297 0.56369,-0.39736 1.42772,-0.59604 2.59208,-0.59604 0.45742,0 0.93795,0.0347 1.44158,0.10396 0.50363,0.0693 1.05115,0.17789 1.64258,0.32574"
         style="font-weight:bold;fill:#cccccc"
         id="path3099" />
      <path
         d="m 444.727,717.17977 0,2.20397 2.55742,0 0,1.77425 -2.55742,0 0,3.29209 c -10e-6,0.36039 0.0716,0.60528 0.21485,0.73465 0.14323,0.12475 0.42739,0.18713 0.85247,0.18713 l 1.27525,0 0,1.77426 -2.12772,0 c -0.97954,0 -1.67492,-0.2033 -2.08614,-0.6099 -0.40661,-0.41122 -0.60991,-1.1066 -0.6099,-2.08614 l 0,-3.29209 -1.23367,0 0,-1.77425 1.23367,0 0,-2.20397 2.48119,0"
         style="font-weight:bold;fill:#cccccc"
         id="path3101" />
      <path
         d="m 456.5577,723.24413 0,0.70694 -5.801,0 c 0.0601,0.58218 0.2703,1.01881 0.6307,1.3099 0.36039,0.29109 0.86402,0.43663 1.51089,0.43663 0.52211,0 1.05577,-0.0762 1.60099,-0.22871 0.54983,-0.1571 1.11352,-0.39274 1.69109,-0.70693 l 0,1.91287 c -0.58681,0.22178 -1.17361,0.38812 -1.7604,0.49901 -0.5868,0.11551 -1.1736,0.17327 -1.76039,0.17327 -1.40463,0 -2.49737,-0.35578 -3.27823,-1.06733 -0.77623,-0.71617 -1.16435,-1.71881 -1.16435,-3.00792 0,-1.26601 0.38118,-2.26171 1.14356,-2.98713 0.767,-0.72541 1.82046,-1.08812 3.1604,-1.08812 1.2198,0 2.19472,0.36733 2.92476,1.10198 0.73464,0.73466 1.10197,1.71651 1.10198,2.94554 m -2.5505,-0.82475 c -1e-5,-0.47128 -0.13862,-0.85016 -0.41584,-1.13663 -0.27261,-0.29109 -0.6307,-0.43663 -1.07426,-0.43664 -0.48053,1e-5 -0.87096,0.13631 -1.17129,0.40891 -0.30033,0.268 -0.48746,0.65612 -0.56138,1.16436 l 3.22277,0"
         style="font-weight:bold;fill:#cccccc"
         id="path3103" />
      <path
         d="m 465.62305,720.67285 c 0.31419,-0.48053 0.68613,-0.84554 1.11585,-1.09506 0.43431,-0.25411 0.91022,-0.38118 1.42772,-0.38118 0.89174,0 1.57095,0.27492 2.03763,0.82475 0.46665,0.54984 0.69998,1.34918 0.7,2.39802 l 0,4.72674 -2.49506,0 0,-4.04753 c 0.005,-0.0601 0.007,-0.12244 0.007,-0.18713 0.005,-0.0647 0.007,-0.15709 0.007,-0.27723 -1e-5,-0.54983 -0.0809,-0.94719 -0.24258,-1.19208 -0.16173,-0.2495 -0.42278,-0.37425 -0.78317,-0.37425 -0.47129,0 -0.83631,0.19406 -1.09505,0.58217 -0.25413,0.38813 -0.38582,0.94951 -0.39505,1.68416 l 0,3.81189 -2.49505,0 0,-4.04753 c -10e-6,-0.8594 -0.0739,-1.41155 -0.22178,-1.65644 -0.14786,-0.2495 -0.41123,-0.37425 -0.7901,-0.37425 -0.47591,0 -0.84324,0.19637 -1.10198,0.5891 -0.25875,0.38813 -0.38813,0.94489 -0.38812,1.6703 l 0,3.81882 -2.49505,0 0,-7.76238 2.49505,0 0,1.13663 c 0.30495,-0.43894 0.65379,-0.7693 1.04653,-0.99109 0.39736,-0.22177 0.83399,-0.33267 1.30991,-0.33267 0.53596,0 1.00956,0.12938 1.42079,0.38812 0.41121,0.25875 0.72309,0.62146 0.93564,1.08812"
         style="font-weight:bold;fill:#cccccc"
         id="path3105" />
    </g>
    <g
       id="g3731"
       style="filter:url(#filter3742)"
       inkscape:export-filename="/home/andrei/Desktop/logo-16x16.png"
       inkscape:export-xdpi="21.41"
       inkscape:export-ydpi="21.41"
       transform="translate(-63.747856,13.59864)">
      <path
         inkscape:connector-curvature="0"
         id="rect3707"
         d="m 231.63559,673.53464 c -0.16761,0 -0.31564,0.11675 -0.31564,0.2428 l 0,36.03188 c 0,0.12605 0.14803,0.21852 0.31564,0.21852 l 35.8862,0 c 0.16762,0 0.29136,-0.0925 0.29136,-0.21852 l 0,-36.03188 c 0,-0.12605 -0.12374,-0.2428 -0.29136,-0.2428 l -35.8862,0 z m 4.61325,4.71036 26.63543,0 c 0.12436,0 0.21852,0.0765 0.21852,0.16996 l 0,26.75683 c 0,0.0935 -0.0942,0.14568 -0.21852,0.14568 l -26.63543,0 c -0.12436,0 -0.21852,-0.0521 -0.21852,-0.14568 l 0,-26.75683 c 0,-0.0935 0.0942,-0.16996 0.21852,-0.16996 z"
         style="fill:#4d4d4d;fill-opacity:1;stroke:none" />
      <path
         inkscape:connector-curvature="0"
         style="fill:#ff6600;fill-opacity:1;stroke:none"
         d="m 242.68174,662.93908 c -0.16761,0 -0.31564,0.11675 -0.31564,0.2428 l 0,36.03188 c 0,0.12605 0.14803,0.21852 0.31564,0.21852 l 35.8862,0 c 0.16762,0 0.29137,-0.0925 0.29137,-0.21852 l 0,-36.03188 c 0,-0.12605 -0.12375,-0.2428 -0.29137,-0.2428 l -35.8862,0 z m 4.61325,4.71037 26.63543,0 c 0.12436,0 0.21852,0.0765 0.21852,0.16996 l 0,26.75683 c 0,0.0935 -0.0942,0.14568 -0.21852,0.14568 l -26.63543,0 c -0.12436,0 -0.21852,-0.0521 -0.21852,-0.14568 l 0,-26.75683 c 0,-0.0935 0.0942,-0.16996 0.21852,-0.16996 z"
         id="path3713" />
      <path
         id="path3715"
         d="m 251.2025,682.67313 c -0.16761,0 -0.31564,0.11676 -0.31564,0.24281 l 0,36.03188 c 0,0.12604 0.14803,0.21852 0.31564,0.21852 l 35.8862,0 c 0.16762,0 0.29137,-0.0925 0.29137,-0.21852 l 0,-36.03188 c 0,-0.12605 -0.12375,-0.24281 -0.29137,-0.24281 l -35.8862,0 z m 4.61325,4.71037 26.63543,0 c 0.12436,0 0.21852,0.0765 0.21852,0.16996 l 0,26.75683 c 0,0.0935 -0.0942,0.14568 -0.21852,0.14568 l -26.63543,0 c -0.12436,0 -0.21852,-0.0521 -0.21852,-0.14568 l 0,-26.75683 c 0,-0.0935 0.0942,-0.16996 0.21852,-0.16996 z"
         style="fill:#00aad4;fill-opacity:1;stroke:none"
         inkscape:connector-curvature="0" />
      <rect
         ry="0.19479175"
         rx="0.25902182"
         y="682.71936"
         x="263.08035"
         height="4.6428571"
         width="4.6428571"
         id="rect3719"
         style="fill:#ffffff;fill-opacity:1;stroke:none" />
      <rect
         style="fill:#ffffff;fill-opacity:1;stroke:none"
         id="rect3721"
         width="4.6428571"
         height="4.6428571"
         x="274.15179"
         y="682.71936"
         rx="0.25902182"
         ry="0.19479175" />
      <rect
         ry="0.19479175"
         rx="0.25902182"
         y="694.72827"
         x="263.125"
         height="4.6428571"
         width="4.6428571"
         id="rect3723"
         style="fill:#ffffff;fill-opacity:1;stroke:none" />
      <rect
         style="fill:#ffffff;fill-opacity:1;stroke:none"
         id="rect3725"
         width="4.6428571"
         height="4.6428571"
         x="250.89285"
         y="694.72827"
         rx="0.25902182"
         ry="0.19479175" />
      <rect
         ry="0.19479175"
         rx="0.25902182"
         y="705.26398"
         x="250.89285"
         height="4.6428571"
         width="4.6428571"
         id="rect3727"
         style="fill:#ffffff;fill-opacity:1;stroke:none" />
      <rect
         style="fill:#ffffff;fill-opacity:1;stroke:none"
         id="rect3729"
         width="4.6428571"
         height="4.6428571"
         x="242.30655"
         y="673.69672"
         rx="0.25902182"
         ry="0.19479175" />
    </g>
    <g
       style="font-size:39.81831741px;font-style:normal;font-weight:normal;line-height:125%;letter-spacing:0px;word-spacing:0px;fill:#ffffff;fill-opacity:1;stroke:none;filter:url(#filter3396);font-family:Sans"
       id="text3060">
      <path
         d="m 242.86965,692.15124 c 1.1795,2e-5 2.07385,-0.25922 2.68307,-0.7777 0.60918,-0.51845 0.91378,-1.28319 0.9138,-2.29422 -2e-5,-0.99803 -0.30462,-1.75629 -0.9138,-2.27478 -0.60922,-0.5314 -1.50357,-0.79712 -2.68307,-0.79714 l -4.14126,0 0,6.14384 4.14126,0 m 0.25275,12.69598 c 1.50354,0 2.63121,-0.31756 3.383,-0.95269 0.76472,-0.63511 1.14709,-1.59428 1.14711,-2.87749 -2e-5,-1.25728 -0.37591,-2.197 -1.12766,-2.81917 -0.7518,-0.63511 -1.88595,-0.95267 -3.40245,-0.95269 l -4.39401,0 0,7.60204 4.39401,0 m 6.96043,-10.44065 c 1.60723,0.46664 2.85155,1.32859 3.73297,2.58586 0.88137,1.2573 1.32206,2.79974 1.32209,4.62733 -3e-5,2.79973 -0.94623,4.88656 -2.83861,6.26049 -1.89243,1.37394 -4.76992,2.06091 -8.63249,2.06091 l -12.42378,0 0,-29.02771 11.23779,0 c 4.03107,3e-5 6.94744,0.60923 8.74914,1.8276 1.81461,1.21843 2.72193,3.16916 2.72196,5.85221 -3e-5,1.41284 -0.33055,2.61828 -0.99157,3.61631 -0.66107,0.9851 -1.62024,1.71744 -2.8775,2.197"
         style="font-weight:bold;fill:#ffffff"
         id="path3414" />
      <path
         d="m 277.43848,694.09549 c -0.60922,-0.28514 -1.21842,-0.49252 -1.8276,-0.62216 -0.59625,-0.14256 -1.19897,-0.21385 -1.80815,-0.21387 -1.78873,2e-5 -3.16915,0.57682 -4.14126,1.73039 -0.95918,1.14064 -1.43876,2.7803 -1.43875,4.91896 l 0,10.03235 -6.96043,0 0,-21.77564 6.96043,0 0,3.57743 c 0.89434,-1.42577 1.91832,-2.4627 3.07192,-3.11081 1.16654,-0.66102 2.55992,-0.99155 4.18014,-0.99157 0.2333,2e-5 0.48605,0.013 0.75826,0.0389 0.27218,0.013 0.66751,0.0519 1.186,0.11665 l 0.0194,6.29938"
         style="font-weight:bold;fill:#ffffff"
         id="path3416" />
      <path
         d="m 291.30101,692.61786 c -1.54245,2e-5 -2.72197,0.55737 -3.53854,1.67206 -0.80364,1.10176 -1.20545,2.69604 -1.20544,4.78286 -10e-6,2.08684 0.4018,3.68761 1.20544,4.80231 0.81657,1.10175 1.99609,1.65262 3.53854,1.65262 1.5165,0 2.67657,-0.55087 3.48021,-1.65262 0.80361,-1.1147 1.20542,-2.71547 1.20544,-4.80231 -2e-5,-2.08682 -0.40183,-3.6811 -1.20544,-4.78286 -0.80364,-1.11469 -1.96371,-1.67204 -3.48021,-1.67206 m 0,-4.97729 c 3.74591,2e-5 6.66877,1.01103 8.76858,3.03304 2.11274,2.02204 3.16911,4.82176 3.16914,8.39917 -3e-5,3.57744 -1.0564,6.37716 -3.16914,8.39918 -2.09981,2.02202 -5.02267,3.03304 -8.76858,3.03304 -3.7589,0 -6.7012,-1.01102 -8.82691,-3.03304 -2.11276,-2.02202 -3.16914,-4.82174 -3.16914,-8.39918 0,-3.57741 1.05638,-6.37713 3.16914,-8.39917 2.12571,-2.02201 5.06801,-3.03302 8.82691,-3.03304"
         style="font-weight:bold;fill:#ffffff"
         id="path3418" />
      <path
         d="m 306.36898,688.16552 6.766,0 3.6552,15.00964 3.67464,-15.00964 5.81332,0 3.65519,14.8541 3.67464,-14.8541 6.76601,0 -5.73555,21.77564 -7.60203,0 -3.67464,-14.97075 -3.6552,14.97075 -7.60203,0 -5.73555,-21.77564"
         style="font-weight:bold;fill:#ffffff"
         id="path3420" />
      <path
         d="m 362.11073,688.84601 0,5.28837 c -1.49061,-0.62215 -2.92936,-1.08877 -4.31624,-1.39986 -1.38692,-0.31107 -2.69605,-0.46661 -3.92739,-0.46662 -1.32211,10e-6 -2.3072,0.16851 -2.95527,0.5055 -0.63513,0.32406 -0.95269,0.82957 -0.95268,1.51652 -1e-5,0.55737 0.23978,0.9851 0.71937,1.28321 0.49253,0.29813 1.36745,0.51848 2.62474,0.66104 l 1.22488,0.17499 c 3.56445,0.45367 5.96236,1.19896 7.19374,2.23589 1.23134,1.03694 1.84702,2.66363 1.84704,4.88007 -2e-5,2.32015 -0.85549,4.0635 -2.56641,5.23005 -1.71096,1.16655 -4.26441,1.74983 -7.66036,1.74983 -1.43876,0 -2.92935,-0.11666 -4.47179,-0.34997 -1.52948,-0.22035 -3.10433,-0.55735 -4.72453,-1.01101 l 0,-5.28837 c 1.38689,0.67401 2.8062,1.17952 4.25791,1.51652 1.46467,0.337 2.94878,0.50551 4.45234,0.5055 1.36097,1e-5 2.38494,-0.18794 3.07192,-0.56383 0.68696,-0.37589 1.03044,-0.93324 1.03046,-1.67206 -2e-5,-0.62215 -0.23981,-1.08229 -0.71937,-1.38042 -0.46664,-0.31107 -1.40636,-0.55086 -2.81917,-0.71937 l -1.22488,-0.15554 c -3.09785,-0.38885 -5.26894,-1.10822 -6.51325,-2.15813 -1.24433,-1.04988 -1.86649,-2.64417 -1.86649,-4.78286 0,-2.30716 0.79066,-4.01811 2.37199,-5.13283 1.58132,-1.11468 4.00516,-1.67204 7.27151,-1.67206 1.2832,2e-5 2.63121,0.0972 4.04405,0.29164 1.41281,0.19445 2.94877,0.49905 4.60788,0.9138"
         style="font-weight:bold;fill:#ffffff"
         id="path3422" />
      <path
         d="m 390.55516,698.99501 0,1.98314 -16.2734,0 c 0.16849,1.63318 0.75825,2.85806 1.76927,3.67464 1.011,0.81659 2.42382,1.22489 4.23847,1.22488 1.46466,1e-5 2.96173,-0.21386 4.49123,-0.6416 1.54242,-0.44069 3.12374,-1.10174 4.74398,-1.98314 l 0,5.36614 c -1.64616,0.62216 -3.29229,1.08878 -4.93841,1.39986 -1.64615,0.32404 -3.29228,0.48607 -4.9384,0.48607 -3.94037,0 -7.0058,-0.99805 -9.19632,-2.99416 -2.17757,-2.00905 -3.26635,-4.82174 -3.26635,-8.43806 0,-3.55149 1.06934,-6.34473 3.20802,-8.37973 2.15163,-2.03496 5.1069,-3.05246 8.8658,-3.05248 3.42187,2e-5 6.15678,1.03048 8.20475,3.09136 2.06088,2.06093 3.09134,4.81529 3.09136,8.26308 m -7.15485,-2.31366 c -2e-5,-1.32208 -0.38887,-2.38493 -1.16655,-3.18857 -0.76476,-0.81657 -1.76929,-1.22487 -3.0136,-1.22488 -1.34803,10e-6 -2.44329,0.38238 -3.28579,1.1471 -0.84252,0.7518 -1.36746,1.84058 -1.57484,3.26635 l 9.04078,0"
         style="font-weight:bold;fill:#ffffff"
         id="path3424" />
      <path
         d="m 411.98085,694.09549 c -0.60922,-0.28514 -1.21842,-0.49252 -1.8276,-0.62216 -0.59625,-0.14256 -1.19897,-0.21385 -1.80816,-0.21387 -1.78872,2e-5 -3.16914,0.57682 -4.14126,1.73039 -0.95917,1.14064 -1.43875,2.7803 -1.43874,4.91896 l 0,10.03235 -6.96043,0 0,-21.77564 6.96043,0 0,3.57743 c 0.89434,-1.42577 1.91831,-2.4627 3.07192,-3.11081 1.16653,-0.66102 2.55991,-0.99155 4.18014,-0.99157 0.2333,2e-5 0.48605,0.013 0.75826,0.0389 0.27218,0.013 0.66751,0.0519 1.186,0.11665 l 0.0194,6.29938"
         style="font-weight:bold;fill:#ffffff"
         id="path3426" />
    </g>
    <g
       style="font-size:37.70412445px;font-style:normal;font-weight:normal;line-height:125%;letter-spacing:0px;word-spacing:0px;fill:#d40000;fill-opacity:1;stroke:none;filter:url(#filter3384);font-family:Sans"
       id="text3064">
      <path
         d="m 432.36558,686.61886 c -2.16014,3e-5 -3.83547,0.7978 -5.02599,2.39333 -1.19053,1.59557 -1.7858,3.84162 -1.78579,6.73814 -1e-5,2.88428 0.59526,5.12419 1.78579,6.71973 1.19052,1.59556 2.86585,2.39333 5.02599,2.39333 2.17239,0 3.85385,-0.79777 5.0444,-2.39333 1.19051,-1.59554 1.78577,-3.83545 1.78579,-6.71973 -2e-5,-2.89652 -0.59528,-5.14257 -1.78579,-6.73814 -1.19055,-1.59553 -2.87201,-2.3933 -5.0444,-2.39333 m 0,-5.13645 c 4.41843,3e-5 7.87955,1.2642 10.38337,3.79251 2.50376,2.52836 3.75565,6.02016 3.75568,10.47541 -3e-5,4.44301 -1.25192,7.92867 -3.75568,10.457 -2.50382,2.52834 -5.96494,3.79251 -10.38337,3.79251 -4.40619,0 -7.8673,-1.26417 -10.38336,-3.79251 -2.50379,-2.52833 -3.75569,-6.01399 -3.75568,-10.457 -10e-6,-4.45525 1.25189,-7.94705 3.75568,-10.47541 2.51606,-2.52831 5.97717,-3.79248 10.38336,-3.79251"
         style="font-weight:bold;fill:#d40000"
         id="path3409" />
      <path
         d="m 470.97181,682.84477 0,5.81763 c -1.50966,-0.67502 -2.98248,-1.18437 -4.41845,-1.52805 -1.43602,-0.34364 -2.79223,-0.51546 -4.06866,-0.51549 -1.69375,3e-5 -2.94565,0.23322 -3.75569,0.69959 -0.81005,0.46642 -1.21508,1.19055 -1.21507,2.17241 -10e-6,0.73642 0.27001,1.31328 0.81005,1.73056 0.5523,0.40504 1.54645,0.75483 2.98246,1.04938 l 3.01927,0.60754 c 3.05608,0.61369 5.22848,1.54647 6.51722,2.79835 1.28869,1.25191 1.93305,3.03156 1.93307,5.33896 -2e-5,3.03156 -0.90212,5.28987 -2.7063,6.77496 -1.79195,1.47282 -4.53507,2.20923 -8.22937,2.20923 -1.74284,0 -3.49181,-0.16569 -5.24691,-0.49708 -1.75511,-0.33138 -3.51022,-0.82232 -5.26532,-1.47281 l 0,-5.98333 c 1.7551,0.9328 3.44884,1.63852 5.08122,2.11718 1.64463,0.4664 3.22791,0.69959 4.74983,0.69959 1.54645,0 2.73084,-0.25774 3.55318,-0.77323 0.8223,-0.51548 1.23346,-1.25189 1.23348,-2.20923 -2e-5,-0.85913 -0.28231,-1.5219 -0.84687,-1.9883 -0.55232,-0.46638 -1.66307,-0.88368 -3.33225,-1.2519 l -2.74312,-0.60753 c -2.74927,-0.58912 -4.76212,-1.52804 -6.03855,-2.81677 -1.26417,-1.2887 -1.89626,-3.02539 -1.89626,-5.21009 0,-2.73696 0.88369,-4.84186 2.65108,-6.3147 1.76737,-1.47279 4.30798,-2.2092 7.62183,-2.20923 1.50962,3e-5 3.06221,0.11663 4.65778,0.3498 1.59553,0.22095 3.24631,0.55847 4.95235,1.01256"
         style="font-weight:bold;fill:#d40000"
         id="path3411" />
    </g>
  </g>
</svg>
