<?xml version="1.0" encoding="UTF-8" standalone="no"?>
<!-- Created with Inkscape (http://www.inkscape.org/) -->

<svg
   xmlns:dc="http://purl.org/dc/elements/1.1/"
   xmlns:cc="http://creativecommons.org/ns#"
   xmlns:rdf="http://www.w3.org/1999/02/22-rdf-syntax-ns#"
   xmlns:svg="http://www.w3.org/2000/svg"
   xmlns="http://www.w3.org/2000/svg"
   xmlns:sodipodi="http://sodipodi.sourceforge.net/DTD/sodipodi-0.dtd"
   xmlns:inkscape="http://www.inkscape.org/namespaces/inkscape"
   width="420.22345"
   height="35.355339"
   id="svg3602"
   version="1.1"
   inkscape:version="0.48.3.1 r9886"
   sodipodi:docname="webkit.svg">
  <defs
     id="defs3604" />
  <sodipodi:namedview
     id="base"
     pagecolor="#ffffff"
     bordercolor="#666666"
     borderopacity="1.0"
     inkscape:pageopacity="0.0"
     inkscape:pageshadow="2"
     inkscape:zoom="1.979899"
     inkscape:cx="223.96128"
     inkscape:cy="-45.998912"
     inkscape:document-units="px"
     inkscape:current-layer="layer1"
     showgrid="false"
     fit-margin-top="0"
     fit-margin-left="0"
     fit-margin-right="0"
     fit-margin-bottom="0"
     inkscape:window-width="1535"
     inkscape:window-height="876"
     inkscape:window-x="65"
     inkscape:window-y="24"
     inkscape:window-maximized="1" />
  <metadata
     id="metadata3607">
    <rdf:RDF>
      <cc:Work
         rdf:about="">
        <dc:format>image/svg+xml</dc:format>
        <dc:type
           rdf:resource="http://purl.org/dc/dcmitype/StillImage" />
        <dc:title></dc:title>
      </cc:Work>
    </rdf:RDF>
  </metadata>
  <g
     inkscape:label="Layer 1"
     inkscape:groupmode="layer"
     id="layer1"
     transform="translate(-139.40105,-52.311165)">
    <g
       id="g3792"
       style="font-size:12px;font-style:normal;font-weight:normal;line-height:125%;letter-spacing:0px;word-spacing:0px;fill:#000000;fill-opacity:1;stroke:none;font-family:Sans"
       transform="translate(0.50507627,0.50507627)">
      <path
         id="path3794"
         style="fill:#000000"
         d="m 153.8842,66.254059 0,3.287109 1.48828,0 c 0.55078,5e-6 0.97656,-0.142573 1.27735,-0.427734 0.30077,-0.285151 0.45116,-0.691401 0.45117,-1.21875 -1e-5,-0.523431 -0.1504,-0.927727 -0.45117,-1.212891 -0.30079,-0.285148 -0.72657,-0.427726 -1.27735,-0.427734 l -1.48828,0 m -1.18359,-0.972656 2.67187,0 c 0.98047,8e-6 1.7207,0.222664 2.22071,0.667968 0.5039,0.441414 0.75585,1.089851 0.75585,1.945313 0,0.863286 -0.25195,1.515629 -0.75585,1.957031 -0.50001,0.44141 -1.24024,0.662113 -2.22071,0.662109 l -1.48828,0 0,3.515625 -1.18359,0 0,-8.748046"
         inkscape:connector-curvature="0" />
      <path
         id="path3796"
         style="fill:#000000"
         d="m 159.89592,64.912262 1.07812,0 0,9.117187 -1.07812,0 0,-9.117187"
         inkscape:connector-curvature="0" />
      <path
         id="path3798"
         style="fill:#000000"
         d="m 168.83733,70.478668 0,0.527344 -4.95704,0 c 0.0469,0.74219 0.26953,1.308595 0.66797,1.699219 0.40234,0.386719 0.96094,0.580079 1.67578,0.580078 0.41406,10e-7 0.81445,-0.05078 1.20118,-0.152344 0.39062,-0.101561 0.77733,-0.253905 1.16015,-0.457031 l 0,1.019531 c -0.38672,0.164063 -0.78321,0.289063 -1.18945,0.375 -0.40626,0.08594 -0.81836,0.128906 -1.23633,0.128906 -1.04688,0 -1.87695,-0.304687 -2.49023,-0.914062 -0.60938,-0.609374 -0.91407,-1.433592 -0.91407,-2.472656 0,-1.074215 0.28907,-1.925777 0.86719,-2.554688 0.58203,-0.632806 1.36523,-0.949212 2.34961,-0.949219 0.88281,7e-6 1.58007,0.285163 2.0918,0.855469 0.51562,0.566412 0.77343,1.337895 0.77344,2.314453 m -1.07813,-0.316406 c -0.008,-0.589839 -0.17383,-1.060542 -0.49805,-1.412109 -0.32031,-0.351557 -0.74609,-0.527338 -1.27734,-0.527344 -0.60157,6e-6 -1.08399,0.169927 -1.44727,0.509765 -0.35937,0.339849 -0.5664,0.818364 -0.62109,1.435547 l 3.84375,-0.0059"
         inkscape:connector-curvature="0" />
      <path
         id="path3800"
         style="fill:#000000"
         d="m 173.58928,70.730621 c -0.8711,4e-6 -1.47461,0.09961 -1.81055,0.298828 -0.33594,0.199222 -0.50391,0.539065 -0.5039,1.019532 -1e-5,0.382814 0.12499,0.687501 0.375,0.914062 0.2539,0.222657 0.59765,0.333985 1.03125,0.333985 0.59765,0 1.07616,-0.210937 1.43554,-0.632813 0.36328,-0.425779 0.54492,-0.990232 0.54492,-1.693359 l 0,-0.240235 -1.07226,0 m 2.15039,-0.445312 0,3.74414 -1.07813,0 0,-0.996093 c -0.24609,0.398438 -0.55273,0.693359 -0.91992,0.884765 -0.36719,0.1875 -0.81641,0.28125 -1.34765,0.28125 -0.67188,0 -1.20704,-0.1875 -1.60547,-0.5625 -0.39453,-0.378905 -0.5918,-0.884764 -0.5918,-1.517578 0,-0.738278 0.24609,-1.294918 0.73828,-1.669922 0.49609,-0.374996 1.23437,-0.562496 2.21485,-0.5625 l 1.51171,0 0,-0.105468 c 0,-0.496089 -0.16406,-0.878902 -0.49218,-1.148438 -0.32423,-0.273432 -0.78126,-0.41015 -1.3711,-0.410156 -0.375,6e-6 -0.74023,0.04493 -1.0957,0.134765 -0.35547,0.08985 -0.69727,0.224615 -1.02539,0.404297 l 0,-0.996093 c 0.39453,-0.152338 0.77734,-0.265619 1.14844,-0.339844 0.37109,-0.07812 0.73242,-0.117181 1.08398,-0.117188 0.94922,7e-6 1.6582,0.246101 2.12695,0.738282 0.46875,0.492193 0.70312,1.238286 0.70313,2.238281"
         inkscape:connector-curvature="0" />
      <path
         id="path3802"
         style="fill:#000000"
         d="m 182.14983,67.660309 0,1.019531 c -0.3047,-0.156244 -0.6211,-0.273432 -0.94922,-0.351562 -0.32813,-0.07812 -0.66798,-0.117182 -1.01953,-0.117188 -0.53516,6e-6 -0.93751,0.08204 -1.20704,0.246094 -0.26562,0.164068 -0.39843,0.410161 -0.39843,0.738281 0,0.250005 0.0957,0.44727 0.28711,0.591797 0.1914,0.140629 0.57617,0.275395 1.15429,0.404297 l 0.36914,0.08203 c 0.76562,0.164066 1.30859,0.396488 1.62891,0.697266 0.32421,0.296877 0.48632,0.712893 0.48633,1.248047 -10e-6,0.609376 -0.24219,1.091797 -0.72656,1.447265 -0.48048,0.355469 -1.14259,0.533203 -1.98633,0.533203 -0.35157,0 -0.71875,-0.03516 -1.10156,-0.105468 -0.37891,-0.06641 -0.7793,-0.167969 -1.20118,-0.304688 l 0,-1.113281 c 0.39844,0.207032 0.79102,0.363282 1.17774,0.46875 0.38671,0.101563 0.76953,0.152344 1.14844,0.152344 0.5078,0 0.89843,-0.08594 1.17187,-0.257813 0.27343,-0.17578 0.41015,-0.421874 0.41016,-0.738281 -1e-5,-0.292967 -0.0996,-0.517576 -0.29883,-0.673828 -0.19532,-0.156248 -0.62696,-0.306638 -1.29492,-0.451172 l -0.375,-0.08789 c -0.66797,-0.140622 -1.1504,-0.355465 -1.44727,-0.644531 -0.29687,-0.292965 -0.44531,-0.693355 -0.44531,-1.201172 0,-0.617182 0.21875,-1.093744 0.65625,-1.429687 0.4375,-0.335931 1.05859,-0.5039 1.86328,-0.503907 0.39843,7e-6 0.77343,0.0293 1.125,0.08789 0.35156,0.0586 0.67578,0.146491 0.97266,0.263672"
         inkscape:connector-curvature="0" />
      <path
         id="path3804"
         style="fill:#000000"
         d="m 189.83733,70.478668 0,0.527344 -4.95704,0 c 0.0469,0.74219 0.26953,1.308595 0.66797,1.699219 0.40234,0.386719 0.96094,0.580079 1.67578,0.580078 0.41406,10e-7 0.81445,-0.05078 1.20118,-0.152344 0.39062,-0.101561 0.77733,-0.253905 1.16015,-0.457031 l 0,1.019531 c -0.38672,0.164063 -0.78321,0.289063 -1.18945,0.375 -0.40626,0.08594 -0.81836,0.128906 -1.23633,0.128906 -1.04688,0 -1.87695,-0.304687 -2.49023,-0.914062 -0.60938,-0.609374 -0.91407,-1.433592 -0.91407,-2.472656 0,-1.074215 0.28907,-1.925777 0.86719,-2.554688 0.58203,-0.632806 1.36523,-0.949212 2.34961,-0.949219 0.88281,7e-6 1.58007,0.285163 2.0918,0.855469 0.51562,0.566412 0.77343,1.337895 0.77344,2.314453 m -1.07813,-0.316406 c -0.008,-0.589839 -0.17383,-1.060542 -0.49805,-1.412109 -0.32031,-0.351557 -0.74609,-0.527338 -1.27734,-0.527344 -0.60157,6e-6 -1.08399,0.169927 -1.44727,0.509765 -0.35937,0.339849 -0.5664,0.818364 -0.62109,1.435547 l 3.84375,-0.0059"
         inkscape:connector-curvature="0" />
      <path
         id="path3806"
         style="fill:#000000"
         d="m 195.31584,71.439606 0,-3.972657 1.07813,0 0,3.931641 c -1e-5,0.621096 0.12109,1.087892 0.36328,1.400391 0.24218,0.308594 0.60546,0.462891 1.08984,0.46289 0.58203,10e-7 1.04101,-0.185546 1.37695,-0.55664 0.33984,-0.371092 0.50976,-0.876951 0.50977,-1.517578 l 0,-3.720704 1.07813,0 0,6.5625 -1.07813,0 0,-1.007812 c -0.26172,0.398438 -0.56641,0.695313 -0.91406,0.890625 -0.34376,0.191406 -0.74415,0.287109 -1.20117,0.287109 -0.75391,0 -1.32618,-0.234375 -1.7168,-0.703125 -0.39063,-0.468749 -0.58594,-1.154295 -0.58594,-2.05664 m 2.71289,-4.13086 0,0"
         inkscape:connector-curvature="0" />
      <path
         id="path3808"
         style="fill:#000000"
         d="m 207.22795,67.660309 0,1.019531 c -0.30469,-0.156244 -0.6211,-0.273432 -0.94922,-0.351562 -0.32813,-0.07812 -0.66797,-0.117182 -1.01953,-0.117188 -0.53516,6e-6 -0.9375,0.08204 -1.20703,0.246094 -0.26563,0.164068 -0.39844,0.410161 -0.39844,0.738281 0,0.250005 0.0957,0.44727 0.28711,0.591797 0.19141,0.140629 0.57617,0.275395 1.1543,0.404297 l 0.36914,0.08203 c 0.76562,0.164066 1.30859,0.396488 1.62891,0.697266 0.32421,0.296877 0.48632,0.712893 0.48632,1.248047 0,0.609376 -0.24219,1.091797 -0.72656,1.447265 -0.48047,0.355469 -1.14258,0.533203 -1.98633,0.533203 -0.35156,0 -0.71875,-0.03516 -1.10156,-0.105468 -0.37891,-0.06641 -0.7793,-0.167969 -1.20117,-0.304688 l 0,-1.113281 c 0.39844,0.207032 0.79101,0.363282 1.17773,0.46875 0.38672,0.101563 0.76953,0.152344 1.14844,0.152344 0.50781,0 0.89843,-0.08594 1.17188,-0.257813 0.27343,-0.17578 0.41015,-0.421874 0.41015,-0.738281 0,-0.292967 -0.0996,-0.517576 -0.29883,-0.673828 -0.19531,-0.156248 -0.62695,-0.306638 -1.29492,-0.451172 l -0.375,-0.08789 c -0.66797,-0.140622 -1.15039,-0.355465 -1.44726,-0.644531 -0.29688,-0.292965 -0.44532,-0.693355 -0.44532,-1.201172 0,-0.617182 0.21875,-1.093744 0.65625,-1.429687 0.4375,-0.335931 1.05859,-0.5039 1.86328,-0.503907 0.39844,7e-6 0.77344,0.0293 1.125,0.08789 0.35156,0.0586 0.67578,0.146491 0.97266,0.263672"
         inkscape:connector-curvature="0" />
      <path
         id="path3810"
         style="fill:#000000"
         d="m 214.91545,70.478668 0,0.527344 -4.95703,0 c 0.0469,0.74219 0.26953,1.308595 0.66797,1.699219 0.40234,0.386719 0.96093,0.580079 1.67578,0.580078 0.41406,10e-7 0.81445,-0.05078 1.20117,-0.152344 0.39062,-0.101561 0.77734,-0.253905 1.16016,-0.457031 l 0,1.019531 c -0.38673,0.164063 -0.78321,0.289063 -1.18946,0.375 -0.40625,0.08594 -0.81836,0.128906 -1.23632,0.128906 -1.04688,0 -1.87696,-0.304687 -2.49024,-0.914062 -0.60937,-0.609374 -0.91406,-1.433592 -0.91406,-2.472656 0,-1.074215 0.28906,-1.925777 0.86719,-2.554688 0.58203,-0.632806 1.36523,-0.949212 2.34961,-0.949219 0.8828,7e-6 1.58007,0.285163 2.09179,0.855469 0.51562,0.566412 0.77343,1.337895 0.77344,2.314453 m -1.07812,-0.316406 c -0.008,-0.589839 -0.17384,-1.060542 -0.49805,-1.412109 -0.32032,-0.351557 -0.7461,-0.527338 -1.27734,-0.527344 -0.60157,6e-6 -1.08399,0.169927 -1.44727,0.509765 -0.35938,0.339849 -0.56641,0.818364 -0.62109,1.435547 l 3.84375,-0.0059"
         inkscape:connector-curvature="0" />
      <path
         id="path3812"
         style="fill:#000000"
         d="m 223.48772,70.730621 c -0.8711,4e-6 -1.47462,0.09961 -1.81055,0.298828 -0.33594,0.199222 -0.50391,0.539065 -0.50391,1.019532 0,0.382814 0.125,0.687501 0.375,0.914062 0.25391,0.222657 0.59766,0.333985 1.03125,0.333985 0.59766,0 1.07617,-0.210937 1.43555,-0.632813 0.36328,-0.425779 0.54492,-0.990232 0.54492,-1.693359 l 0,-0.240235 -1.07226,0 m 2.15039,-0.445312 0,3.74414 -1.07813,0 0,-0.996093 c -0.2461,0.398438 -0.55274,0.693359 -0.91992,0.884765 -0.36719,0.1875 -0.81641,0.28125 -1.34766,0.28125 -0.67187,0 -1.20703,-0.1875 -1.60546,-0.5625 -0.39454,-0.378905 -0.5918,-0.884764 -0.5918,-1.517578 0,-0.738278 0.24609,-1.294918 0.73828,-1.669922 0.49609,-0.374996 1.23437,-0.562496 2.21484,-0.5625 l 1.51172,0 0,-0.105468 c 0,-0.496089 -0.16407,-0.878902 -0.49219,-1.148438 -0.32422,-0.273432 -0.78125,-0.41015 -1.37109,-0.410156 -0.375,6e-6 -0.74024,0.04493 -1.0957,0.134765 -0.35547,0.08985 -0.69727,0.224615 -1.02539,0.404297 l 0,-0.996093 c 0.39453,-0.152338 0.77734,-0.265619 1.14843,-0.339844 0.3711,-0.07812 0.73242,-0.117181 1.08399,-0.117188 0.94921,7e-6 1.6582,0.246101 2.12695,0.738282 0.46875,0.492193 0.70312,1.238286 0.70313,2.238281"
         inkscape:connector-curvature="0" />
      <path
         id="path3814"
         style="fill:#000000"
         d="m 231.05803,67.466949 1.07812,0 1.34766,5.121094 1.3418,-5.121094 1.27148,0 1.34766,5.121094 1.34179,-5.121094 1.07813,0 -1.7168,6.5625 -1.27148,0 -1.41211,-5.378906 -1.41797,5.378906 -1.27148,0 -1.7168,-6.5625"
         inkscape:connector-curvature="0" />
      <path
         id="path3816"
         style="fill:#000000"
         d="m 247.11858,70.478668 0,0.527344 -4.95704,0 c 0.0469,0.74219 0.26953,1.308595 0.66797,1.699219 0.40234,0.386719 0.96094,0.580079 1.67578,0.580078 0.41406,10e-7 0.81445,-0.05078 1.20118,-0.152344 0.39062,-0.101561 0.77733,-0.253905 1.16015,-0.457031 l 0,1.019531 c -0.38672,0.164063 -0.78321,0.289063 -1.18945,0.375 -0.40626,0.08594 -0.81836,0.128906 -1.23633,0.128906 -1.04688,0 -1.87695,-0.304687 -2.49023,-0.914062 -0.60938,-0.609374 -0.91407,-1.433592 -0.91407,-2.472656 0,-1.074215 0.28907,-1.925777 0.86719,-2.554688 0.58203,-0.632806 1.36523,-0.949212 2.34961,-0.949219 0.88281,7e-6 1.58007,0.285163 2.0918,0.855469 0.51562,0.566412 0.77343,1.337895 0.77344,2.314453 m -1.07813,-0.316406 c -0.008,-0.589839 -0.17383,-1.060542 -0.49805,-1.412109 -0.32031,-0.351557 -0.74609,-0.527338 -1.27734,-0.527344 -0.60157,6e-6 -1.08399,0.169927 -1.44727,0.509765 -0.35937,0.339849 -0.5664,0.818364 -0.62109,1.435547 l 3.84375,-0.0059"
         inkscape:connector-curvature="0" />
      <path
         id="path3818"
         style="fill:#000000"
         d="m 253.59904,70.754059 c 0,-0.792965 -0.16406,-1.414058 -0.49218,-1.863281 -0.32423,-0.45312 -0.77149,-0.679682 -1.3418,-0.679688 -0.57032,6e-6 -1.01953,0.226568 -1.34766,0.679688 -0.32422,0.449223 -0.48633,1.070316 -0.48632,1.863281 -1e-5,0.792971 0.1621,1.416017 0.48632,1.86914 0.32813,0.44922 0.77734,0.673829 1.34766,0.673829 0.57031,0 1.01757,-0.224609 1.3418,-0.673829 0.32812,-0.453123 0.49218,-1.076169 0.49218,-1.86914 m -3.66796,-2.291016 c 0.22656,-0.390619 0.51171,-0.679681 0.85546,-0.867187 0.34766,-0.1914 0.76172,-0.287103 1.24219,-0.28711 0.79687,7e-6 1.44336,0.316413 1.93946,0.949219 0.49999,0.632818 0.74999,1.464848 0.75,2.496094 -1e-5,1.031252 -0.25001,1.863282 -0.75,2.496094 -0.4961,0.632812 -1.14259,0.949218 -1.93946,0.949218 -0.48047,0 -0.89453,-0.09375 -1.24219,-0.28125 -0.34375,-0.191406 -0.6289,-0.482421 -0.85546,-0.873047 l 0,0.984375 -1.08399,0 0,-9.117187 1.08399,0 0,3.550781"
         inkscape:connector-curvature="0" />
      <path
         id="path3820"
         style="fill:#000000"
         d="m 256.46428,64.912262 1.08398,0 0,5.384766 3.2168,-2.830079 1.37695,0 -3.48047,3.070313 3.62696,3.492187 -1.40625,0 -3.33399,-3.205078 0,3.205078 -1.08398,0 0,-9.117187"
         inkscape:connector-curvature="0" />
      <path
         id="path3822"
         style="fill:#000000"
         d="m 263.46623,67.466949 1.07813,0 0,6.5625 -1.07813,0 0,-6.5625 m 0,-2.554687 1.07813,0 0,1.365234 -1.07813,0 0,-1.365234"
         inkscape:connector-curvature="0" />
      <path
         id="path3824"
         style="fill:#000000"
         d="m 267.86076,65.603668 0,1.863281 2.22071,0 0,0.837891 -2.22071,0 0,3.5625 c 0,0.535158 0.0723,0.878908 0.2168,1.03125 0.14844,0.152345 0.44726,0.228517 0.89648,0.228516 l 1.10743,0 0,0.902343 -1.10743,0 c -0.83203,0 -1.40625,-0.154296 -1.72265,-0.46289 -0.31641,-0.312499 -0.47461,-0.878905 -0.47461,-1.699219 l 0,-3.5625 -0.79102,0 0,-0.837891 0.79102,0 0,-1.863281 1.08398,0"
         inkscape:connector-curvature="0" />
      <path
         id="path3826"
         style="fill:#000000"
         d="m 270.96037,70.261871 3.15821,0 0,0.960938 -3.15821,0 0,-0.960938"
         inkscape:connector-curvature="0" />
      <path
         id="path3828"
         style="fill:#000000"
         d="m 280.55217,70.754059 c -10e-6,-0.792965 -0.16407,-1.414058 -0.49219,-1.863281 -0.32422,-0.45312 -0.77149,-0.679682 -1.34179,-0.679688 -0.57032,6e-6 -1.01954,0.226568 -1.34766,0.679688 -0.32422,0.449223 -0.48633,1.070316 -0.48633,1.863281 0,0.792971 0.16211,1.416017 0.48633,1.86914 0.32812,0.44922 0.77734,0.673829 1.34766,0.673829 0.5703,0 1.01757,-0.224609 1.34179,-0.673829 0.32812,-0.453123 0.49218,-1.076169 0.49219,-1.86914 m -3.66797,-2.291016 c 0.22656,-0.390619 0.51172,-0.679681 0.85547,-0.867187 0.34765,-0.1914 0.76171,-0.287103 1.24219,-0.28711 0.79687,7e-6 1.44335,0.316413 1.93945,0.949219 0.49999,0.632818 0.74999,1.464848 0.75,2.496094 -1e-5,1.031252 -0.25001,1.863282 -0.75,2.496094 -0.4961,0.632812 -1.14258,0.949218 -1.93945,0.949218 -0.48048,0 -0.89454,-0.09375 -1.24219,-0.28125 -0.34375,-0.191406 -0.62891,-0.482421 -0.85547,-0.873047 l 0,0.984375 -1.08398,0 0,-9.117187 1.08398,0 0,3.550781"
         inkscape:connector-curvature="0" />
      <path
         id="path3830"
         style="fill:#000000"
         d="m 286.44084,70.730621 c -0.8711,4e-6 -1.47461,0.09961 -1.81055,0.298828 -0.33593,0.199222 -0.5039,0.539065 -0.5039,1.019532 0,0.382814 0.125,0.687501 0.375,0.914062 0.2539,0.222657 0.59765,0.333985 1.03125,0.333985 0.59765,0 1.07617,-0.210937 1.43555,-0.632813 0.36327,-0.425779 0.54491,-0.990232 0.54492,-1.693359 l 0,-0.240235 -1.07227,0 m 2.15039,-0.445312 0,3.74414 -1.07812,0 0,-0.996093 c -0.2461,0.398438 -0.55274,0.693359 -0.91992,0.884765 -0.3672,0.1875 -0.81641,0.28125 -1.34766,0.28125 -0.67188,0 -1.20703,-0.1875 -1.60547,-0.5625 -0.39453,-0.378905 -0.5918,-0.884764 -0.5918,-1.517578 0,-0.738278 0.2461,-1.294918 0.73828,-1.669922 0.4961,-0.374996 1.23438,-0.562496 2.21485,-0.5625 l 1.51172,0 0,-0.105468 c -10e-6,-0.496089 -0.16407,-0.878902 -0.49219,-1.148438 -0.32422,-0.273432 -0.78125,-0.41015 -1.37109,-0.410156 -0.37501,6e-6 -0.74024,0.04493 -1.09571,0.134765 -0.35547,0.08985 -0.69726,0.224615 -1.02539,0.404297 l 0,-0.996093 c 0.39453,-0.152338 0.77734,-0.265619 1.14844,-0.339844 0.37109,-0.07812 0.73242,-0.117181 1.08398,-0.117188 0.94922,7e-6 1.6582,0.246101 2.12696,0.738282 0.46874,0.492193 0.70312,1.238286 0.70312,2.238281"
         inkscape:connector-curvature="0" />
      <path
         id="path3832"
         style="fill:#000000"
         d="m 295.00139,67.660309 0,1.019531 c -0.30469,-0.156244 -0.6211,-0.273432 -0.94922,-0.351562 -0.32813,-0.07812 -0.66797,-0.117182 -1.01953,-0.117188 -0.53516,6e-6 -0.9375,0.08204 -1.20703,0.246094 -0.26563,0.164068 -0.39844,0.410161 -0.39844,0.738281 0,0.250005 0.0957,0.44727 0.28711,0.591797 0.1914,0.140629 0.57617,0.275395 1.1543,0.404297 l 0.36914,0.08203 c 0.76562,0.164066 1.30859,0.396488 1.6289,0.697266 0.32422,0.296877 0.48633,0.712893 0.48633,1.248047 0,0.609376 -0.24219,1.091797 -0.72656,1.447265 -0.48047,0.355469 -1.14258,0.533203 -1.98633,0.533203 -0.35156,0 -0.71875,-0.03516 -1.10156,-0.105468 -0.37891,-0.06641 -0.7793,-0.167969 -1.20117,-0.304688 l 0,-1.113281 c 0.39843,0.207032 0.79101,0.363282 1.17773,0.46875 0.38672,0.101563 0.76953,0.152344 1.14844,0.152344 0.50781,0 0.89843,-0.08594 1.17187,-0.257813 0.27344,-0.17578 0.41015,-0.421874 0.41016,-0.738281 -10e-6,-0.292967 -0.0996,-0.517576 -0.29883,-0.673828 -0.19532,-0.156248 -0.62696,-0.306638 -1.29492,-0.451172 l -0.375,-0.08789 c -0.66797,-0.140622 -1.15039,-0.355465 -1.44727,-0.644531 -0.29687,-0.292965 -0.44531,-0.693355 -0.44531,-1.201172 0,-0.617182 0.21875,-1.093744 0.65625,-1.429687 0.4375,-0.335931 1.05859,-0.5039 1.86328,-0.503907 0.39844,7e-6 0.77344,0.0293 1.125,0.08789 0.35156,0.0586 0.67578,0.146491 0.97266,0.263672"
         inkscape:connector-curvature="0" />
      <path
         id="path3834"
         style="fill:#000000"
         d="m 302.68889,70.478668 0,0.527344 -4.95703,0 c 0.0469,0.74219 0.26953,1.308595 0.66797,1.699219 0.40234,0.386719 0.96093,0.580079 1.67578,0.580078 0.41406,10e-7 0.81445,-0.05078 1.20117,-0.152344 0.39062,-0.101561 0.77734,-0.253905 1.16016,-0.457031 l 0,1.019531 c -0.38673,0.164063 -0.78321,0.289063 -1.18946,0.375 -0.40625,0.08594 -0.81836,0.128906 -1.23633,0.128906 -1.04687,0 -1.87695,-0.304687 -2.49023,-0.914062 -0.60938,-0.609374 -0.91406,-1.433592 -0.91406,-2.472656 0,-1.074215 0.28906,-1.925777 0.86718,-2.554688 0.58203,-0.632806 1.36524,-0.949212 2.34961,-0.949219 0.88281,7e-6 1.58008,0.285163 2.0918,0.855469 0.51562,0.566412 0.77343,1.337895 0.77344,2.314453 m -1.07813,-0.316406 c -0.008,-0.589839 -0.17383,-1.060542 -0.49804,-1.412109 -0.32032,-0.351557 -0.7461,-0.527338 -1.27735,-0.527344 -0.60156,6e-6 -1.08398,0.169927 -1.44726,0.509765 -0.35938,0.339849 -0.56641,0.818364 -0.6211,1.435547 l 3.84375,-0.0059"
         inkscape:connector-curvature="0" />
      <path
         id="path3836"
         style="fill:#000000"
         d="m 308.77678,68.463043 0,-3.550781 1.07812,0 0,9.117187 -1.07812,0 0,-0.984375 c -0.22657,0.390626 -0.51368,0.681641 -0.86133,0.873047 -0.34375,0.1875 -0.75782,0.28125 -1.24219,0.28125 -0.79297,0 -1.43945,-0.316406 -1.93945,-0.949218 -0.49609,-0.632812 -0.74414,-1.464842 -0.74414,-2.496094 0,-1.031246 0.24805,-1.863276 0.74414,-2.496094 0.5,-0.632806 1.14648,-0.949212 1.93945,-0.949219 0.48437,7e-6 0.89844,0.09571 1.24219,0.28711 0.34765,0.187506 0.63476,0.476568 0.86133,0.867187 m -3.67383,2.291016 c 0,0.792971 0.16211,1.416017 0.48633,1.86914 0.32812,0.44922 0.77734,0.673829 1.34766,0.673829 0.5703,0 1.01952,-0.224609 1.34765,-0.673829 0.32812,-0.453123 0.49218,-1.076169 0.49219,-1.86914 -10e-6,-0.792965 -0.16407,-1.414058 -0.49219,-1.863281 -0.32813,-0.45312 -0.77735,-0.679682 -1.34765,-0.679688 -0.57032,6e-6 -1.01954,0.226568 -1.34766,0.679688 -0.32422,0.449223 -0.48633,1.070316 -0.48633,1.863281"
         inkscape:connector-curvature="0" />
      <path
         id="path3838"
         style="fill:#000000"
         d="m 320.60686,70.754059 c -10e-6,-0.792965 -0.16407,-1.414058 -0.49219,-1.863281 -0.32422,-0.45312 -0.77149,-0.679682 -1.3418,-0.679688 -0.57031,6e-6 -1.01953,0.226568 -1.34765,0.679688 -0.32422,0.449223 -0.48633,1.070316 -0.48633,1.863281 0,0.792971 0.16211,1.416017 0.48633,1.86914 0.32812,0.44922 0.77734,0.673829 1.34765,0.673829 0.57031,0 1.01758,-0.224609 1.3418,-0.673829 0.32812,-0.453123 0.49218,-1.076169 0.49219,-1.86914 m -3.66797,-2.291016 c 0.22656,-0.390619 0.51171,-0.679681 0.85547,-0.867187 0.34765,-0.1914 0.76171,-0.287103 1.24218,-0.28711 0.79687,7e-6 1.44336,0.316413 1.93946,0.949219 0.49999,0.632818 0.74999,1.464848 0.75,2.496094 -10e-6,1.031252 -0.25001,1.863282 -0.75,2.496094 -0.4961,0.632812 -1.14259,0.949218 -1.93946,0.949218 -0.48047,0 -0.89453,-0.09375 -1.24218,-0.28125 -0.34376,-0.191406 -0.62891,-0.482421 -0.85547,-0.873047 l 0,0.984375 -1.08399,0 0,-9.117187 1.08399,0 0,3.550781"
         inkscape:connector-curvature="0" />
      <path
         id="path3840"
         style="fill:#000000"
         d="m 327.31584,68.474762 c -0.1211,-0.07031 -0.25391,-0.121088 -0.39844,-0.152344 -0.14063,-0.03515 -0.29688,-0.05273 -0.46875,-0.05273 -0.60937,6e-6 -1.07812,0.199224 -1.40625,0.597656 -0.32422,0.394536 -0.48633,0.962895 -0.48632,1.705078 l 0,3.457031 -1.08399,0 0,-6.5625 1.08399,0 0,1.019532 c 0.22656,-0.398432 0.52148,-0.693353 0.88476,-0.884766 0.36328,-0.195306 0.80469,-0.292962 1.32422,-0.292969 0.0742,7e-6 0.15625,0.0059 0.24609,0.01758 0.0898,0.0078 0.18945,0.02149 0.29883,0.04102 l 0.006,1.107422"
         inkscape:connector-curvature="0" />
      <path
         id="path3842"
         style="fill:#000000"
         d="m 330.74358,68.222809 c -0.57813,6e-6 -1.03516,0.226568 -1.3711,0.679687 -0.33594,0.449224 -0.50391,1.066411 -0.5039,1.851563 -1e-5,0.785159 0.16601,1.404299 0.49804,1.857422 0.33594,0.449219 0.79492,0.673829 1.37696,0.673828 0.57421,10e-7 1.02929,-0.226562 1.36523,-0.679688 0.33593,-0.453123 0.5039,-1.07031 0.50391,-1.851562 -1e-5,-0.77734 -0.16798,-1.392574 -0.50391,-1.845703 -0.33594,-0.457026 -0.79102,-0.685541 -1.36523,-0.685547 m 0,-0.914063 c 0.93749,7e-6 1.67382,0.304694 2.20898,0.914063 0.53515,0.60938 0.80273,1.453129 0.80273,2.53125 0,1.074221 -0.26758,1.91797 -0.80273,2.53125 -0.53516,0.609375 -1.27149,0.914062 -2.20898,0.914062 -0.94141,0 -1.67969,-0.304687 -2.21485,-0.914062 -0.53125,-0.61328 -0.79687,-1.457029 -0.79687,-2.53125 0,-1.078121 0.26562,-1.92187 0.79687,-2.53125 0.53516,-0.609369 1.27344,-0.914056 2.21485,-0.914063"
         inkscape:connector-curvature="0" />
      <path
         id="path3844"
         style="fill:#000000"
         d="m 334.90959,67.466949 1.07813,0 1.34765,5.121094 1.3418,-5.121094 1.27148,0 1.34766,5.121094 1.3418,-5.121094 1.07812,0 -1.71679,6.5625 -1.27149,0 -1.41211,-5.378906 -1.41797,5.378906 -1.27148,0 -1.7168,-6.5625"
         inkscape:connector-curvature="0" />
      <path
         id="path3846"
         style="fill:#000000"
         d="m 349.54045,67.660309 0,1.019531 c -0.30469,-0.156244 -0.6211,-0.273432 -0.94922,-0.351562 -0.32813,-0.07812 -0.66797,-0.117182 -1.01953,-0.117188 -0.53516,6e-6 -0.9375,0.08204 -1.20703,0.246094 -0.26563,0.164068 -0.39844,0.410161 -0.39844,0.738281 0,0.250005 0.0957,0.44727 0.28711,0.591797 0.19141,0.140629 0.57617,0.275395 1.1543,0.404297 l 0.36914,0.08203 c 0.76562,0.164066 1.30859,0.396488 1.62891,0.697266 0.32421,0.296877 0.48632,0.712893 0.48632,1.248047 0,0.609376 -0.24219,1.091797 -0.72656,1.447265 -0.48047,0.355469 -1.14258,0.533203 -1.98633,0.533203 -0.35156,0 -0.71875,-0.03516 -1.10156,-0.105468 -0.37891,-0.06641 -0.7793,-0.167969 -1.20117,-0.304688 l 0,-1.113281 c 0.39844,0.207032 0.79101,0.363282 1.17773,0.46875 0.38672,0.101563 0.76953,0.152344 1.14844,0.152344 0.50781,0 0.89843,-0.08594 1.17188,-0.257813 0.27343,-0.17578 0.41015,-0.421874 0.41015,-0.738281 0,-0.292967 -0.0996,-0.517576 -0.29883,-0.673828 -0.19531,-0.156248 -0.62695,-0.306638 -1.29492,-0.451172 l -0.375,-0.08789 c -0.66797,-0.140622 -1.15039,-0.355465 -1.44726,-0.644531 -0.29688,-0.292965 -0.44532,-0.693355 -0.44532,-1.201172 0,-0.617182 0.21875,-1.093744 0.65625,-1.429687 0.4375,-0.335931 1.05859,-0.5039 1.86328,-0.503907 0.39844,7e-6 0.77344,0.0293 1.125,0.08789 0.35156,0.0586 0.67578,0.146491 0.97266,0.263672"
         inkscape:connector-curvature="0" />
      <path
         id="path3848"
         style="fill:#000000"
         d="m 357.22795,70.478668 0,0.527344 -4.95703,0 c 0.0469,0.74219 0.26953,1.308595 0.66797,1.699219 0.40234,0.386719 0.96093,0.580079 1.67578,0.580078 0.41406,10e-7 0.81445,-0.05078 1.20117,-0.152344 0.39062,-0.101561 0.77734,-0.253905 1.16016,-0.457031 l 0,1.019531 c -0.38673,0.164063 -0.78321,0.289063 -1.18946,0.375 -0.40625,0.08594 -0.81836,0.128906 -1.23632,0.128906 -1.04688,0 -1.87696,-0.304687 -2.49024,-0.914062 -0.60937,-0.609374 -0.91406,-1.433592 -0.91406,-2.472656 0,-1.074215 0.28906,-1.925777 0.86719,-2.554688 0.58203,-0.632806 1.36523,-0.949212 2.34961,-0.949219 0.8828,7e-6 1.58007,0.285163 2.09179,0.855469 0.51562,0.566412 0.77343,1.337895 0.77344,2.314453 m -1.07812,-0.316406 c -0.008,-0.589839 -0.17384,-1.060542 -0.49805,-1.412109 -0.32032,-0.351557 -0.7461,-0.527338 -1.27734,-0.527344 -0.60157,6e-6 -1.08399,0.169927 -1.44727,0.509765 -0.35938,0.339849 -0.56641,0.818364 -0.62109,1.435547 l 3.84375,-0.0059"
         inkscape:connector-curvature="0" />
      <path
         id="path3850"
         style="fill:#000000"
         d="m 362.80022,68.474762 c -0.1211,-0.07031 -0.25391,-0.121088 -0.39844,-0.152344 -0.14063,-0.03515 -0.29688,-0.05273 -0.46875,-0.05273 -0.60938,6e-6 -1.07813,0.199224 -1.40625,0.597656 -0.32422,0.394536 -0.48633,0.962895 -0.48633,1.705078 l 0,3.457031 -1.08398,0 0,-6.5625 1.08398,0 0,1.019532 c 0.22656,-0.398432 0.52148,-0.693353 0.88477,-0.884766 0.36327,-0.195306 0.80468,-0.292962 1.32422,-0.292969 0.0742,7e-6 0.15624,0.0059 0.24609,0.01758 0.0898,0.0078 0.18945,0.02149 0.29883,0.04102 l 0.006,1.107422"
         inkscape:connector-curvature="0" />
      <path
         id="path3852"
         style="fill:#000000"
         d="m 367.76311,67.466949 1.07812,0 0,6.5625 -1.07812,0 0,-6.5625 m 0,-2.554687 1.07812,0 0,1.365234 -1.07812,0 0,-1.365234"
         inkscape:connector-curvature="0" />
      <path
         id="path3854"
         style="fill:#000000"
         d="m 376.54631,70.068512 0,3.960937 -1.07812,0 0,-3.925781 c -10e-6,-0.621089 -0.1211,-1.085932 -0.36329,-1.394531 -0.24219,-0.308588 -0.60547,-0.462885 -1.08984,-0.462891 -0.58203,6e-6 -1.04102,0.185553 -1.37695,0.556641 -0.33594,0.371099 -0.50391,0.876957 -0.50391,1.517578 l 0,3.708984 -1.08398,0 0,-6.5625 1.08398,0 0,1.019532 c 0.25781,-0.394526 0.56055,-0.689447 0.9082,-0.884766 0.35156,-0.195306 0.75586,-0.292962 1.21289,-0.292969 0.75391,7e-6 1.32422,0.234382 1.71094,0.703125 0.38671,0.46485 0.58007,1.150396 0.58008,2.056641"
         inkscape:connector-curvature="0" />
      <path
         id="path3856"
         style="fill:#000000"
         d="m 385.0717,68.222809 c -0.57813,6e-6 -1.03516,0.226568 -1.37109,0.679687 -0.33594,0.449224 -0.50391,1.066411 -0.50391,1.851563 0,0.785159 0.16601,1.404299 0.49805,1.857422 0.33593,0.449219 0.79492,0.673829 1.37695,0.673828 0.57422,10e-7 1.02929,-0.226562 1.36524,-0.679688 0.33593,-0.453123 0.5039,-1.07031 0.5039,-1.851562 0,-0.77734 -0.16797,-1.392574 -0.5039,-1.845703 -0.33595,-0.457026 -0.79102,-0.685541 -1.36524,-0.685547 m 0,-0.914063 c 0.9375,7e-6 1.67382,0.304694 2.20899,0.914063 0.53515,0.60938 0.80272,1.453129 0.80273,2.53125 -10e-6,1.074221 -0.26758,1.91797 -0.80273,2.53125 -0.53517,0.609375 -1.27149,0.914062 -2.20899,0.914062 -0.94141,0 -1.67969,-0.304687 -2.21484,-0.914062 -0.53125,-0.61328 -0.79688,-1.457029 -0.79688,-2.53125 0,-1.078121 0.26563,-1.92187 0.79688,-2.53125 0.53515,-0.609369 1.27343,-0.914056 2.21484,-0.914063"
         inkscape:connector-curvature="0" />
      <path
         id="path3858"
         style="fill:#000000"
         d="m 393.6674,68.474762 c -0.12109,-0.07031 -0.25391,-0.121088 -0.39843,-0.152344 -0.14063,-0.03515 -0.29688,-0.05273 -0.46875,-0.05273 -0.60938,6e-6 -1.07813,0.199224 -1.40625,0.597656 -0.32422,0.394536 -0.48633,0.962895 -0.48633,1.705078 l 0,3.457031 -1.08399,0 0,-6.5625 1.08399,0 0,1.019532 c 0.22656,-0.398432 0.52148,-0.693353 0.88476,-0.884766 0.36328,-0.195306 0.80469,-0.292962 1.32422,-0.292969 0.0742,7e-6 0.15625,0.0059 0.2461,0.01758 0.0898,0.0078 0.18944,0.02149 0.29882,0.04102 l 0.006,1.107422"
         inkscape:connector-curvature="0" />
      <path
         id="path3860"
         style="fill:#000000"
         d="m 398.9174,68.463043 0,-3.550781 1.07813,0 0,9.117187 -1.07813,0 0,-0.984375 c -0.22656,0.390626 -0.51367,0.681641 -0.86132,0.873047 -0.34376,0.1875 -0.75782,0.28125 -1.24219,0.28125 -0.79297,0 -1.43946,-0.316406 -1.93945,-0.949218 -0.4961,-0.632812 -0.74415,-1.464842 -0.74415,-2.496094 0,-1.031246 0.24805,-1.863276 0.74415,-2.496094 0.49999,-0.632806 1.14648,-0.949212 1.93945,-0.949219 0.48437,7e-6 0.89843,0.09571 1.24219,0.28711 0.34765,0.187506 0.63476,0.476568 0.86132,0.867187 m -3.67382,2.291016 c -1e-5,0.792971 0.1621,1.416017 0.48632,1.86914 0.32813,0.44922 0.77734,0.673829 1.34766,0.673829 0.57031,0 1.01953,-0.224609 1.34766,-0.673829 0.32812,-0.453123 0.49218,-1.076169 0.49218,-1.86914 0,-0.792965 -0.16406,-1.414058 -0.49218,-1.863281 -0.32813,-0.45312 -0.77735,-0.679682 -1.34766,-0.679688 -0.57032,6e-6 -1.01953,0.226568 -1.34766,0.679688 -0.32422,0.449223 -0.48633,1.070316 -0.48632,1.863281"
         inkscape:connector-curvature="0" />
      <path
         id="path3862"
         style="fill:#000000"
         d="m 407.82951,70.478668 0,0.527344 -4.95703,0 c 0.0469,0.74219 0.26953,1.308595 0.66797,1.699219 0.40234,0.386719 0.96094,0.580079 1.67578,0.580078 0.41406,10e-7 0.81445,-0.05078 1.20117,-0.152344 0.39062,-0.101561 0.77734,-0.253905 1.16016,-0.457031 l 0,1.019531 c -0.38672,0.164063 -0.78321,0.289063 -1.18945,0.375 -0.40626,0.08594 -0.81837,0.128906 -1.23633,0.128906 -1.04688,0 -1.87696,-0.304687 -2.49024,-0.914062 -0.60937,-0.609374 -0.91406,-1.433592 -0.91406,-2.472656 0,-1.074215 0.28906,-1.925777 0.86719,-2.554688 0.58203,-0.632806 1.36523,-0.949212 2.34961,-0.949219 0.88281,7e-6 1.58007,0.285163 2.0918,0.855469 0.51561,0.566412 0.77343,1.337895 0.77343,2.314453 m -1.07812,-0.316406 c -0.008,-0.589839 -0.17384,-1.060542 -0.49805,-1.412109 -0.32032,-0.351557 -0.7461,-0.527338 -1.27734,-0.527344 -0.60157,6e-6 -1.08399,0.169927 -1.44727,0.509765 -0.35937,0.339849 -0.56641,0.818364 -0.62109,1.435547 l 3.84375,-0.0059"
         inkscape:connector-curvature="0" />
      <path
         id="path3864"
         style="fill:#000000"
         d="m 413.40178,68.474762 c -0.1211,-0.07031 -0.25391,-0.121088 -0.39844,-0.152344 -0.14063,-0.03515 -0.29688,-0.05273 -0.46875,-0.05273 -0.60938,6e-6 -1.07813,0.199224 -1.40625,0.597656 -0.32422,0.394536 -0.48633,0.962895 -0.48633,1.705078 l 0,3.457031 -1.08398,0 0,-6.5625 1.08398,0 0,1.019532 c 0.22656,-0.398432 0.52149,-0.693353 0.88477,-0.884766 0.36328,-0.195306 0.80468,-0.292962 1.32422,-0.292969 0.0742,7e-6 0.15624,0.0059 0.24609,0.01758 0.0898,0.0078 0.18945,0.02149 0.29883,0.04102 l 0.006,1.107422"
         inkscape:connector-curvature="0" />
      <path
         id="path3866"
         style="fill:#000000"
         d="m 419.43108,65.603668 0,1.863281 2.2207,0 0,0.837891 -2.2207,0 0,3.5625 c -1e-5,0.535158 0.0723,0.878908 0.21679,1.03125 0.14844,0.152345 0.44727,0.228517 0.89649,0.228516 l 1.10742,0 0,0.902343 -1.10742,0 c -0.83204,0 -1.40625,-0.154296 -1.72266,-0.46289 -0.31641,-0.312499 -0.47461,-0.878905 -0.47461,-1.699219 l 0,-3.5625 -0.79101,0 0,-0.837891 0.79101,0 0,-1.863281 1.08399,0"
         inkscape:connector-curvature="0" />
      <path
         id="path3868"
         style="fill:#000000"
         d="m 425.61858,68.222809 c -0.57813,6e-6 -1.03516,0.226568 -1.3711,0.679687 -0.33594,0.449224 -0.50391,1.066411 -0.5039,1.851563 -1e-5,0.785159 0.16601,1.404299 0.49804,1.857422 0.33594,0.449219 0.79492,0.673829 1.37696,0.673828 0.57421,10e-7 1.02929,-0.226562 1.36523,-0.679688 0.33593,-0.453123 0.5039,-1.07031 0.50391,-1.851562 -1e-5,-0.77734 -0.16798,-1.392574 -0.50391,-1.845703 -0.33594,-0.457026 -0.79102,-0.685541 -1.36523,-0.685547 m 0,-0.914063 c 0.93749,7e-6 1.67382,0.304694 2.20898,0.914063 0.53515,0.60938 0.80273,1.453129 0.80273,2.53125 0,1.074221 -0.26758,1.91797 -0.80273,2.53125 -0.53516,0.609375 -1.27149,0.914062 -2.20898,0.914062 -0.94141,0 -1.67969,-0.304687 -2.21485,-0.914062 -0.53125,-0.61328 -0.79687,-1.457029 -0.79687,-2.53125 0,-1.078121 0.26562,-1.92187 0.79687,-2.53125 0.53516,-0.609369 1.27344,-0.914056 2.21485,-0.914063"
         inkscape:connector-curvature="0" />
      <path
         id="path3870"
         style="fill:#000000"
         d="m 434.12053,71.439606 0,-3.972657 1.07812,0 0,3.931641 c 0,0.621096 0.1211,1.087892 0.36329,1.400391 0.24218,0.308594 0.60546,0.462891 1.08984,0.46289 0.58203,10e-7 1.04101,-0.185546 1.37695,-0.55664 0.33984,-0.371092 0.50976,-0.876951 0.50977,-1.517578 l 0,-3.720704 1.07812,0 0,6.5625 -1.07812,0 0,-1.007812 c -0.26173,0.398438 -0.56641,0.695313 -0.91406,0.890625 -0.34376,0.191406 -0.74415,0.287109 -1.20118,0.287109 -0.75391,0 -1.32617,-0.234375 -1.71679,-0.703125 -0.39063,-0.468749 -0.58594,-1.154295 -0.58594,-2.05664 m 2.71289,-4.13086 0,0"
         inkscape:connector-curvature="0" />
      <path
         id="path3872"
         style="fill:#000000"
         d="m 446.03264,67.660309 0,1.019531 c -0.30469,-0.156244 -0.6211,-0.273432 -0.94922,-0.351562 -0.32813,-0.07812 -0.66797,-0.117182 -1.01953,-0.117188 -0.53516,6e-6 -0.9375,0.08204 -1.20703,0.246094 -0.26563,0.164068 -0.39844,0.410161 -0.39844,0.738281 0,0.250005 0.0957,0.44727 0.28711,0.591797 0.1914,0.140629 0.57617,0.275395 1.1543,0.404297 l 0.36914,0.08203 c 0.76562,0.164066 1.30859,0.396488 1.6289,0.697266 0.32422,0.296877 0.48633,0.712893 0.48633,1.248047 0,0.609376 -0.24219,1.091797 -0.72656,1.447265 -0.48047,0.355469 -1.14258,0.533203 -1.98633,0.533203 -0.35156,0 -0.71875,-0.03516 -1.10156,-0.105468 -0.37891,-0.06641 -0.7793,-0.167969 -1.20117,-0.304688 l 0,-1.113281 c 0.39843,0.207032 0.79101,0.363282 1.17773,0.46875 0.38672,0.101563 0.76953,0.152344 1.14844,0.152344 0.50781,0 0.89843,-0.08594 1.17187,-0.257813 0.27344,-0.17578 0.41015,-0.421874 0.41016,-0.738281 -10e-6,-0.292967 -0.0996,-0.517576 -0.29883,-0.673828 -0.19532,-0.156248 -0.62696,-0.306638 -1.29492,-0.451172 l -0.375,-0.08789 c -0.66797,-0.140622 -1.15039,-0.355465 -1.44727,-0.644531 -0.29687,-0.292965 -0.44531,-0.693355 -0.44531,-1.201172 0,-0.617182 0.21875,-1.093744 0.65625,-1.429687 0.4375,-0.335931 1.05859,-0.5039 1.86328,-0.503907 0.39844,7e-6 0.77344,0.0293 1.125,0.08789 0.35156,0.0586 0.67578,0.146491 0.97266,0.263672"
         inkscape:connector-curvature="0" />
      <path
         id="path3874"
         style="fill:#000000"
         d="m 453.72014,70.478668 0,0.527344 -4.95703,0 c 0.0469,0.74219 0.26953,1.308595 0.66797,1.699219 0.40234,0.386719 0.96093,0.580079 1.67578,0.580078 0.41406,10e-7 0.81445,-0.05078 1.20117,-0.152344 0.39062,-0.101561 0.77734,-0.253905 1.16016,-0.457031 l 0,1.019531 c -0.38673,0.164063 -0.78321,0.289063 -1.18946,0.375 -0.40625,0.08594 -0.81836,0.128906 -1.23633,0.128906 -1.04687,0 -1.87695,-0.304687 -2.49023,-0.914062 -0.60938,-0.609374 -0.91406,-1.433592 -0.91406,-2.472656 0,-1.074215 0.28906,-1.925777 0.86718,-2.554688 0.58203,-0.632806 1.36524,-0.949212 2.34961,-0.949219 0.88281,7e-6 1.58008,0.285163 2.0918,0.855469 0.51562,0.566412 0.77343,1.337895 0.77344,2.314453 m -1.07813,-0.316406 c -0.008,-0.589839 -0.17383,-1.060542 -0.49804,-1.412109 -0.32032,-0.351557 -0.7461,-0.527338 -1.27735,-0.527344 -0.60156,6e-6 -1.08398,0.169927 -1.44726,0.509765 -0.35938,0.339849 -0.56641,0.818364 -0.6211,1.435547 l 3.84375,-0.0059"
         inkscape:connector-curvature="0" />
      <path
         id="path3876"
         style="fill:#000000"
         d="m 460.37639,65.603668 0,1.863281 2.2207,0 0,0.837891 -2.2207,0 0,3.5625 c 0,0.535158 0.0723,0.878908 0.2168,1.03125 0.14843,0.152345 0.44726,0.228517 0.89648,0.228516 l 1.10742,0 0,0.902343 -1.10742,0 c -0.83203,0 -1.40625,-0.154296 -1.72266,-0.46289 -0.3164,-0.312499 -0.47461,-0.878905 -0.47461,-1.699219 l 0,-3.5625 -0.79101,0 0,-0.837891 0.79101,0 0,-1.863281 1.08399,0"
         inkscape:connector-curvature="0" />
      <path
         id="path3878"
         style="fill:#000000"
         d="m 469.476,70.068512 0,3.960937 -1.07813,0 0,-3.925781 c 0,-0.621089 -0.1211,-1.085932 -0.36328,-1.394531 -0.24219,-0.308588 -0.60547,-0.462885 -1.08984,-0.462891 -0.58204,6e-6 -1.04102,0.185553 -1.37696,0.556641 -0.33594,0.371099 -0.5039,0.876957 -0.5039,1.517578 l 0,3.708984 -1.08399,0 0,-9.117187 1.08399,0 0,3.574219 c 0.25781,-0.394526 0.56054,-0.689447 0.9082,-0.884766 0.35156,-0.195306 0.75586,-0.292962 1.21289,-0.292969 0.7539,7e-6 1.32422,0.234382 1.71094,0.703125 0.38671,0.46485 0.58007,1.150396 0.58008,2.056641"
         inkscape:connector-curvature="0" />
      <path
         id="path3880"
         style="fill:#000000"
         d="m 471.63811,67.466949 1.07812,0 0,6.5625 -1.07812,0 0,-6.5625 m 0,-2.554687 1.07812,0 0,1.365234 -1.07812,0 0,-1.365234"
         inkscape:connector-curvature="0" />
      <path
         id="path3882"
         style="fill:#000000"
         d="m 479.14983,67.660309 0,1.019531 c -0.3047,-0.156244 -0.6211,-0.273432 -0.94922,-0.351562 -0.32813,-0.07812 -0.66798,-0.117182 -1.01953,-0.117188 -0.53516,6e-6 -0.93751,0.08204 -1.20704,0.246094 -0.26562,0.164068 -0.39843,0.410161 -0.39843,0.738281 0,0.250005 0.0957,0.44727 0.28711,0.591797 0.1914,0.140629 0.57617,0.275395 1.15429,0.404297 l 0.36914,0.08203 c 0.76562,0.164066 1.30859,0.396488 1.62891,0.697266 0.32421,0.296877 0.48632,0.712893 0.48633,1.248047 -1e-5,0.609376 -0.24219,1.091797 -0.72656,1.447265 -0.48048,0.355469 -1.14259,0.533203 -1.98633,0.533203 -0.35157,0 -0.71875,-0.03516 -1.10156,-0.105468 -0.37891,-0.06641 -0.7793,-0.167969 -1.20118,-0.304688 l 0,-1.113281 c 0.39844,0.207032 0.79102,0.363282 1.17774,0.46875 0.38671,0.101563 0.76953,0.152344 1.14844,0.152344 0.5078,0 0.89843,-0.08594 1.17187,-0.257813 0.27343,-0.17578 0.41015,-0.421874 0.41016,-0.738281 -1e-5,-0.292967 -0.0996,-0.517576 -0.29883,-0.673828 -0.19532,-0.156248 -0.62696,-0.306638 -1.29492,-0.451172 l -0.375,-0.08789 c -0.66797,-0.140622 -1.1504,-0.355465 -1.44727,-0.644531 -0.29687,-0.292965 -0.44531,-0.693355 -0.44531,-1.201172 0,-0.617182 0.21875,-1.093744 0.65625,-1.429687 0.4375,-0.335931 1.05859,-0.5039 1.86328,-0.503907 0.39843,7e-6 0.77343,0.0293 1.125,0.08789 0.35156,0.0586 0.67578,0.146491 0.97266,0.263672"
         inkscape:connector-curvature="0" />
      <path
         id="path3884"
         style="fill:#000000"
         d="m 488.02678,70.730621 c -0.8711,4e-6 -1.47461,0.09961 -1.81055,0.298828 -0.33594,0.199222 -0.50391,0.539065 -0.5039,1.019532 -1e-5,0.382814 0.12499,0.687501 0.375,0.914062 0.2539,0.222657 0.59765,0.333985 1.03125,0.333985 0.59765,0 1.07616,-0.210937 1.43554,-0.632813 0.36328,-0.425779 0.54492,-0.990232 0.54492,-1.693359 l 0,-0.240235 -1.07226,0 m 2.15039,-0.445312 0,3.74414 -1.07813,0 0,-0.996093 c -0.24609,0.398438 -0.55273,0.693359 -0.91992,0.884765 -0.36719,0.1875 -0.81641,0.28125 -1.34765,0.28125 -0.67188,0 -1.20704,-0.1875 -1.60547,-0.5625 -0.39453,-0.378905 -0.5918,-0.884764 -0.5918,-1.517578 0,-0.738278 0.24609,-1.294918 0.73828,-1.669922 0.49609,-0.374996 1.23437,-0.562496 2.21485,-0.5625 l 1.51171,0 0,-0.105468 c 0,-0.496089 -0.16406,-0.878902 -0.49218,-1.148438 -0.32423,-0.273432 -0.78126,-0.41015 -1.3711,-0.410156 -0.375,6e-6 -0.74023,0.04493 -1.0957,0.134765 -0.35547,0.08985 -0.69727,0.224615 -1.02539,0.404297 l 0,-0.996093 c 0.39453,-0.152338 0.77734,-0.265619 1.14844,-0.339844 0.37109,-0.07812 0.73242,-0.117181 1.08398,-0.117188 0.94922,7e-6 1.6582,0.246101 2.12695,0.738282 0.46875,0.492193 0.70312,1.238286 0.70313,2.238281"
         inkscape:connector-curvature="0" />
      <path
         id="path3886"
         style="fill:#000000"
         d="m 493.4467,73.045074 0,3.480469 -1.08398,0 0,-9.058594 1.08398,0 0,0.996094 c 0.22656,-0.390619 0.51172,-0.679681 0.85547,-0.867187 0.34765,-0.1914 0.76171,-0.287103 1.24219,-0.28711 0.79687,7e-6 1.44335,0.316413 1.93945,0.949219 0.49999,0.632818 0.74999,1.464848 0.75,2.496094 -1e-5,1.031252 -0.25001,1.863282 -0.75,2.496094 -0.4961,0.632812 -1.14258,0.949218 -1.93945,0.949218 -0.48048,0 -0.89454,-0.09375 -1.24219,-0.28125 -0.34375,-0.191406 -0.62891,-0.482421 -0.85547,-0.873047 m 3.66797,-2.291015 c -10e-6,-0.792965 -0.16407,-1.414058 -0.49219,-1.863281 -0.32422,-0.45312 -0.77149,-0.679682 -1.34179,-0.679688 -0.57032,6e-6 -1.01954,0.226568 -1.34766,0.679688 -0.32422,0.449223 -0.48633,1.070316 -0.48633,1.863281 0,0.792971 0.16211,1.416017 0.48633,1.86914 0.32812,0.44922 0.77734,0.673829 1.34766,0.673829 0.5703,0 1.01757,-0.224609 1.34179,-0.673829 0.32812,-0.453123 0.49218,-1.076169 0.49219,-1.86914"
         inkscape:connector-curvature="0" />
      <path
         id="path3888"
         style="fill:#000000"
         d="m 501.06389,73.045074 0,3.480469 -1.08399,0 0,-9.058594 1.08399,0 0,0.996094 c 0.22656,-0.390619 0.51171,-0.679681 0.85547,-0.867187 0.34765,-0.1914 0.76171,-0.287103 1.24218,-0.28711 0.79687,7e-6 1.44336,0.316413 1.93946,0.949219 0.49999,0.632818 0.74999,1.464848 0.75,2.496094 -10e-6,1.031252 -0.25001,1.863282 -0.75,2.496094 -0.4961,0.632812 -1.14259,0.949218 -1.93946,0.949218 -0.48047,0 -0.89453,-0.09375 -1.24218,-0.28125 -0.34376,-0.191406 -0.62891,-0.482421 -0.85547,-0.873047 m 3.66797,-2.291015 c -10e-6,-0.792965 -0.16407,-1.414058 -0.49219,-1.863281 -0.32422,-0.45312 -0.77149,-0.679682 -1.3418,-0.679688 -0.57031,6e-6 -1.01953,0.226568 -1.34765,0.679688 -0.32422,0.449223 -0.48633,1.070316 -0.48633,1.863281 0,0.792971 0.16211,1.416017 0.48633,1.86914 0.32812,0.44922 0.77734,0.673829 1.34765,0.673829 0.57031,0 1.01758,-0.224609 1.3418,-0.673829 0.32812,-0.453123 0.49218,-1.076169 0.49219,-1.86914"
         inkscape:connector-curvature="0" />
      <path
         id="path3890"
         style="fill:#000000"
         d="m 507.63811,64.912262 1.07812,0 0,9.117187 -1.07812,0 0,-9.117187"
         inkscape:connector-curvature="0" />
      <path
         id="path3892"
         style="fill:#000000"
         d="m 510.96623,67.466949 1.07813,0 0,6.5625 -1.07813,0 0,-6.5625 m 0,-2.554687 1.07813,0 0,1.365234 -1.07813,0 0,-1.365234"
         inkscape:connector-curvature="0" />
      <path
         id="path3894"
         style="fill:#000000"
         d="m 519.01701,67.718903 0,1.007812 c -0.30469,-0.167963 -0.61133,-0.292963 -0.91992,-0.375 -0.30469,-0.08593 -0.61328,-0.1289 -0.92578,-0.128906 -0.69922,6e-6 -1.24219,0.222662 -1.62891,0.667969 -0.38672,0.441411 -0.58008,1.062504 -0.58007,1.863281 -10e-6,0.800784 0.19335,1.42383 0.58007,1.86914 0.38672,0.441408 0.92969,0.662111 1.62891,0.66211 0.3125,10e-7 0.62109,-0.04102 0.92578,-0.123047 0.30859,-0.08594 0.61523,-0.21289 0.91992,-0.380859 l 0,0.996093 c -0.30078,0.140625 -0.61328,0.246094 -0.9375,0.316407 -0.32031,0.07031 -0.66211,0.105468 -1.02539,0.105468 -0.98828,0 -1.77344,-0.310546 -2.35547,-0.93164 -0.58203,-0.621093 -0.87304,-1.458982 -0.87304,-2.513672 0,-1.070308 0.29297,-1.912104 0.8789,-2.525391 0.58985,-0.613275 1.39648,-0.919915 2.41993,-0.919922 0.33202,7e-6 0.65624,0.03516 0.97265,0.105469 0.3164,0.06641 0.62304,0.167975 0.91992,0.304688"
         inkscape:connector-curvature="0" />
      <path
         id="path3896"
         style="fill:#000000"
         d="m 523.88615,70.730621 c -0.87109,4e-6 -1.47461,0.09961 -1.81054,0.298828 -0.33594,0.199222 -0.50391,0.539065 -0.50391,1.019532 0,0.382814 0.125,0.687501 0.375,0.914062 0.2539,0.222657 0.59765,0.333985 1.03125,0.333985 0.59765,0 1.07617,-0.210937 1.43555,-0.632813 0.36327,-0.425779 0.54491,-0.990232 0.54492,-1.693359 l 0,-0.240235 -1.07227,0 m 2.15039,-0.445312 0,3.74414 -1.07812,0 0,-0.996093 c -0.2461,0.398438 -0.55274,0.693359 -0.91992,0.884765 -0.36719,0.1875 -0.81641,0.28125 -1.34766,0.28125 -0.67188,0 -1.20703,-0.1875 -1.60547,-0.5625 -0.39453,-0.378905 -0.59179,-0.884764 -0.59179,-1.517578 0,-0.738278 0.24609,-1.294918 0.73828,-1.669922 0.49609,-0.374996 1.23437,-0.562496 2.21484,-0.5625 l 1.51172,0 0,-0.105468 c -1e-5,-0.496089 -0.16407,-0.878902 -0.49219,-1.148438 -0.32422,-0.273432 -0.78125,-0.41015 -1.37109,-0.410156 -0.375,6e-6 -0.74024,0.04493 -1.0957,0.134765 -0.35548,0.08985 -0.69727,0.224615 -1.0254,0.404297 l 0,-0.996093 c 0.39453,-0.152338 0.77735,-0.265619 1.14844,-0.339844 0.37109,-0.07812 0.73242,-0.117181 1.08399,-0.117188 0.94921,7e-6 1.65819,0.246101 2.12695,0.738282 0.46874,0.492193 0.70312,1.238286 0.70312,2.238281"
         inkscape:connector-curvature="0" />
      <path
         id="path3898"
         style="fill:#000000"
         d="m 529.32951,65.603668 0,1.863281 2.22071,0 0,0.837891 -2.22071,0 0,3.5625 c 0,0.535158 0.0723,0.878908 0.2168,1.03125 0.14844,0.152345 0.44726,0.228517 0.89648,0.228516 l 1.10743,0 0,0.902343 -1.10743,0 c -0.83203,0 -1.40625,-0.154296 -1.72265,-0.46289 -0.31641,-0.312499 -0.47461,-0.878905 -0.47461,-1.699219 l 0,-3.5625 -0.79102,0 0,-0.837891 0.79102,0 0,-1.863281 1.08398,0"
         inkscape:connector-curvature="0" />
      <path
         id="path3900"
         style="fill:#000000"
         d="m 532.97404,67.466949 1.07813,0 0,6.5625 -1.07813,0 0,-6.5625 m 0,-2.554687 1.07813,0 0,1.365234 -1.07813,0 0,-1.365234"
         inkscape:connector-curvature="0" />
      <path
         id="path3902"
         style="fill:#000000"
         d="m 538.84514,68.222809 c -0.57813,6e-6 -1.03516,0.226568 -1.3711,0.679687 -0.33593,0.449224 -0.5039,1.066411 -0.5039,1.851563 0,0.785159 0.16601,1.404299 0.49805,1.857422 0.33593,0.449219 0.79491,0.673829 1.37695,0.673828 0.57421,10e-7 1.02929,-0.226562 1.36523,-0.679688 0.33594,-0.453123 0.5039,-1.07031 0.50391,-1.851562 -10e-6,-0.77734 -0.16797,-1.392574 -0.50391,-1.845703 -0.33594,-0.457026 -0.79102,-0.685541 -1.36523,-0.685547 m 0,-0.914063 c 0.93749,7e-6 1.67382,0.304694 2.20898,0.914063 0.53515,0.60938 0.80273,1.453129 0.80274,2.53125 -10e-6,1.074221 -0.26759,1.91797 -0.80274,2.53125 -0.53516,0.609375 -1.27149,0.914062 -2.20898,0.914062 -0.94141,0 -1.67969,-0.304687 -2.21485,-0.914062 -0.53125,-0.61328 -0.79687,-1.457029 -0.79687,-2.53125 0,-1.078121 0.26562,-1.92187 0.79687,-2.53125 0.53516,-0.609369 1.27344,-0.914056 2.21485,-0.914063"
         inkscape:connector-curvature="0" />
      <path
         id="path3904"
         style="fill:#000000"
         d="m 549.09319,70.068512 0,3.960937 -1.07813,0 0,-3.925781 c -10e-6,-0.621089 -0.1211,-1.085932 -0.36328,-1.394531 -0.24219,-0.308588 -0.60547,-0.462885 -1.08984,-0.462891 -0.58204,6e-6 -1.04102,0.185553 -1.37696,0.556641 -0.33594,0.371099 -0.50391,0.876957 -0.5039,1.517578 l 0,3.708984 -1.08399,0 0,-6.5625 1.08399,0 0,1.019532 c 0.25781,-0.394526 0.56054,-0.689447 0.9082,-0.884766 0.35156,-0.195306 0.75585,-0.292962 1.21289,-0.292969 0.7539,7e-6 1.32421,0.234382 1.71094,0.703125 0.38671,0.46485 0.58007,1.150396 0.58008,2.056641"
         inkscape:connector-curvature="0" />
    </g>
    <g
       style="font-size:12px;font-style:normal;font-weight:normal;line-height:125%;letter-spacing:0px;word-spacing:0px;fill:#ffffff;fill-opacity:1;stroke:none;font-family:Sans"
       id="text3612"
       transform="translate(-0.50507627,-0.50507627)">
      <path
         d="m 153.8842,66.254059 0,3.287109 1.48828,0 c 0.55078,5e-6 0.97656,-0.142573 1.27735,-0.427734 0.30077,-0.285151 0.45116,-0.691401 0.45117,-1.21875 -1e-5,-0.523431 -0.1504,-0.927727 -0.45117,-1.212891 -0.30079,-0.285148 -0.72657,-0.427726 -1.27735,-0.427734 l -1.48828,0 m -1.18359,-0.972656 2.67187,0 c 0.98047,8e-6 1.7207,0.222664 2.22071,0.667968 0.5039,0.441414 0.75585,1.089851 0.75585,1.945313 0,0.863286 -0.25195,1.515629 -0.75585,1.957031 -0.50001,0.44141 -1.24024,0.662113 -2.22071,0.662109 l -1.48828,0 0,3.515625 -1.18359,0 0,-8.748046"
         id="path3680"
         inkscape:connector-curvature="0" />
      <path
         d="m 159.89592,64.912262 1.07812,0 0,9.117187 -1.07812,0 0,-9.117187"
         id="path3682"
         inkscape:connector-curvature="0" />
      <path
         d="m 168.83733,70.478668 0,0.527344 -4.95704,0 c 0.0469,0.74219 0.26953,1.308595 0.66797,1.699219 0.40234,0.386719 0.96094,0.580079 1.67578,0.580078 0.41406,10e-7 0.81445,-0.05078 1.20118,-0.152344 0.39062,-0.101561 0.77733,-0.253905 1.16015,-0.457031 l 0,1.019531 c -0.38672,0.164063 -0.78321,0.289063 -1.18945,0.375 -0.40626,0.08594 -0.81836,0.128906 -1.23633,0.128906 -1.04688,0 -1.87695,-0.304687 -2.49023,-0.914062 -0.60938,-0.609374 -0.91407,-1.433592 -0.91407,-2.472656 0,-1.074215 0.28907,-1.925777 0.86719,-2.554688 0.58203,-0.632806 1.36523,-0.949212 2.34961,-0.949219 0.88281,7e-6 1.58007,0.285163 2.0918,0.855469 0.51562,0.566412 0.77343,1.337895 0.77344,2.314453 m -1.07813,-0.316406 c -0.008,-0.589839 -0.17383,-1.060542 -0.49805,-1.412109 -0.32031,-0.351557 -0.74609,-0.527338 -1.27734,-0.527344 -0.60157,6e-6 -1.08399,0.169927 -1.44727,0.509765 -0.35937,0.339849 -0.5664,0.818364 -0.62109,1.435547 l 3.84375,-0.0059"
         id="path3684"
         inkscape:connector-curvature="0" />
      <path
         d="m 173.58928,70.730621 c -0.8711,4e-6 -1.47461,0.09961 -1.81055,0.298828 -0.33594,0.199222 -0.50391,0.539065 -0.5039,1.019532 -1e-5,0.382814 0.12499,0.687501 0.375,0.914062 0.2539,0.222657 0.59765,0.333985 1.03125,0.333985 0.59765,0 1.07616,-0.210937 1.43554,-0.632813 0.36328,-0.425779 0.54492,-0.990232 0.54492,-1.693359 l 0,-0.240235 -1.07226,0 m 2.15039,-0.445312 0,3.74414 -1.07813,0 0,-0.996093 c -0.24609,0.398438 -0.55273,0.693359 -0.91992,0.884765 -0.36719,0.1875 -0.81641,0.28125 -1.34765,0.28125 -0.67188,0 -1.20704,-0.1875 -1.60547,-0.5625 -0.39453,-0.378905 -0.5918,-0.884764 -0.5918,-1.517578 0,-0.738278 0.24609,-1.294918 0.73828,-1.669922 0.49609,-0.374996 1.23437,-0.562496 2.21485,-0.5625 l 1.51171,0 0,-0.105468 c 0,-0.496089 -0.16406,-0.878902 -0.49218,-1.148438 -0.32423,-0.273432 -0.78126,-0.41015 -1.3711,-0.410156 -0.375,6e-6 -0.74023,0.04493 -1.0957,0.134765 -0.35547,0.08985 -0.69727,0.224615 -1.02539,0.404297 l 0,-0.996093 c 0.39453,-0.152338 0.77734,-0.265619 1.14844,-0.339844 0.37109,-0.07812 0.73242,-0.117181 1.08398,-0.117188 0.94922,7e-6 1.6582,0.246101 2.12695,0.738282 0.46875,0.492193 0.70312,1.238286 0.70313,2.238281"
         id="path3686"
         inkscape:connector-curvature="0" />
      <path
         d="m 182.14983,67.660309 0,1.019531 c -0.3047,-0.156244 -0.6211,-0.273432 -0.94922,-0.351562 -0.32813,-0.07812 -0.66798,-0.117182 -1.01953,-0.117188 -0.53516,6e-6 -0.93751,0.08204 -1.20704,0.246094 -0.26562,0.164068 -0.39843,0.410161 -0.39843,0.738281 0,0.250005 0.0957,0.44727 0.28711,0.591797 0.1914,0.140629 0.57617,0.275395 1.15429,0.404297 l 0.36914,0.08203 c 0.76562,0.164066 1.30859,0.396488 1.62891,0.697266 0.32421,0.296877 0.48632,0.712893 0.48633,1.248047 -10e-6,0.609376 -0.24219,1.091797 -0.72656,1.447265 -0.48048,0.355469 -1.14259,0.533203 -1.98633,0.533203 -0.35157,0 -0.71875,-0.03516 -1.10156,-0.105468 -0.37891,-0.06641 -0.7793,-0.167969 -1.20118,-0.304688 l 0,-1.113281 c 0.39844,0.207032 0.79102,0.363282 1.17774,0.46875 0.38671,0.101563 0.76953,0.152344 1.14844,0.152344 0.5078,0 0.89843,-0.08594 1.17187,-0.257813 0.27343,-0.17578 0.41015,-0.421874 0.41016,-0.738281 -1e-5,-0.292967 -0.0996,-0.517576 -0.29883,-0.673828 -0.19532,-0.156248 -0.62696,-0.306638 -1.29492,-0.451172 l -0.375,-0.08789 c -0.66797,-0.140622 -1.1504,-0.355465 -1.44727,-0.644531 -0.29687,-0.292965 -0.44531,-0.693355 -0.44531,-1.201172 0,-0.617182 0.21875,-1.093744 0.65625,-1.429687 0.4375,-0.335931 1.05859,-0.5039 1.86328,-0.503907 0.39843,7e-6 0.77343,0.0293 1.125,0.08789 0.35156,0.0586 0.67578,0.146491 0.97266,0.263672"
         id="path3688"
         inkscape:connector-curvature="0" />
      <path
         d="m 189.83733,70.478668 0,0.527344 -4.95704,0 c 0.0469,0.74219 0.26953,1.308595 0.66797,1.699219 0.40234,0.386719 0.96094,0.580079 1.67578,0.580078 0.41406,10e-7 0.81445,-0.05078 1.20118,-0.152344 0.39062,-0.101561 0.77733,-0.253905 1.16015,-0.457031 l 0,1.019531 c -0.38672,0.164063 -0.78321,0.289063 -1.18945,0.375 -0.40626,0.08594 -0.81836,0.128906 -1.23633,0.128906 -1.04688,0 -1.87695,-0.304687 -2.49023,-0.914062 -0.60938,-0.609374 -0.91407,-1.433592 -0.91407,-2.472656 0,-1.074215 0.28907,-1.925777 0.86719,-2.554688 0.58203,-0.632806 1.36523,-0.949212 2.34961,-0.949219 0.88281,7e-6 1.58007,0.285163 2.0918,0.855469 0.51562,0.566412 0.77343,1.337895 0.77344,2.314453 m -1.07813,-0.316406 c -0.008,-0.589839 -0.17383,-1.060542 -0.49805,-1.412109 -0.32031,-0.351557 -0.74609,-0.527338 -1.27734,-0.527344 -0.60157,6e-6 -1.08399,0.169927 -1.44727,0.509765 -0.35937,0.339849 -0.5664,0.818364 -0.62109,1.435547 l 3.84375,-0.0059"
         id="path3690"
         inkscape:connector-curvature="0" />
      <path
         d="m 195.31584,71.439606 0,-3.972657 1.07813,0 0,3.931641 c -1e-5,0.621096 0.12109,1.087892 0.36328,1.400391 0.24218,0.308594 0.60546,0.462891 1.08984,0.46289 0.58203,10e-7 1.04101,-0.185546 1.37695,-0.55664 0.33984,-0.371092 0.50976,-0.876951 0.50977,-1.517578 l 0,-3.720704 1.07813,0 0,6.5625 -1.07813,0 0,-1.007812 c -0.26172,0.398438 -0.56641,0.695313 -0.91406,0.890625 -0.34376,0.191406 -0.74415,0.287109 -1.20117,0.287109 -0.75391,0 -1.32618,-0.234375 -1.7168,-0.703125 -0.39063,-0.468749 -0.58594,-1.154295 -0.58594,-2.05664 m 2.71289,-4.13086 0,0"
         id="path3692"
         inkscape:connector-curvature="0" />
      <path
         d="m 207.22795,67.660309 0,1.019531 c -0.30469,-0.156244 -0.6211,-0.273432 -0.94922,-0.351562 -0.32813,-0.07812 -0.66797,-0.117182 -1.01953,-0.117188 -0.53516,6e-6 -0.9375,0.08204 -1.20703,0.246094 -0.26563,0.164068 -0.39844,0.410161 -0.39844,0.738281 0,0.250005 0.0957,0.44727 0.28711,0.591797 0.19141,0.140629 0.57617,0.275395 1.1543,0.404297 l 0.36914,0.08203 c 0.76562,0.164066 1.30859,0.396488 1.62891,0.697266 0.32421,0.296877 0.48632,0.712893 0.48632,1.248047 0,0.609376 -0.24219,1.091797 -0.72656,1.447265 -0.48047,0.355469 -1.14258,0.533203 -1.98633,0.533203 -0.35156,0 -0.71875,-0.03516 -1.10156,-0.105468 -0.37891,-0.06641 -0.7793,-0.167969 -1.20117,-0.304688 l 0,-1.113281 c 0.39844,0.207032 0.79101,0.363282 1.17773,0.46875 0.38672,0.101563 0.76953,0.152344 1.14844,0.152344 0.50781,0 0.89843,-0.08594 1.17188,-0.257813 0.27343,-0.17578 0.41015,-0.421874 0.41015,-0.738281 0,-0.292967 -0.0996,-0.517576 -0.29883,-0.673828 -0.19531,-0.156248 -0.62695,-0.306638 -1.29492,-0.451172 l -0.375,-0.08789 c -0.66797,-0.140622 -1.15039,-0.355465 -1.44726,-0.644531 -0.29688,-0.292965 -0.44532,-0.693355 -0.44532,-1.201172 0,-0.617182 0.21875,-1.093744 0.65625,-1.429687 0.4375,-0.335931 1.05859,-0.5039 1.86328,-0.503907 0.39844,7e-6 0.77344,0.0293 1.125,0.08789 0.35156,0.0586 0.67578,0.146491 0.97266,0.263672"
         id="path3694"
         inkscape:connector-curvature="0" />
      <path
         d="m 214.91545,70.478668 0,0.527344 -4.95703,0 c 0.0469,0.74219 0.26953,1.308595 0.66797,1.699219 0.40234,0.386719 0.96093,0.580079 1.67578,0.580078 0.41406,10e-7 0.81445,-0.05078 1.20117,-0.152344 0.39062,-0.101561 0.77734,-0.253905 1.16016,-0.457031 l 0,1.019531 c -0.38673,0.164063 -0.78321,0.289063 -1.18946,0.375 -0.40625,0.08594 -0.81836,0.128906 -1.23632,0.128906 -1.04688,0 -1.87696,-0.304687 -2.49024,-0.914062 -0.60937,-0.609374 -0.91406,-1.433592 -0.91406,-2.472656 0,-1.074215 0.28906,-1.925777 0.86719,-2.554688 0.58203,-0.632806 1.36523,-0.949212 2.34961,-0.949219 0.8828,7e-6 1.58007,0.285163 2.09179,0.855469 0.51562,0.566412 0.77343,1.337895 0.77344,2.314453 m -1.07812,-0.316406 c -0.008,-0.589839 -0.17384,-1.060542 -0.49805,-1.412109 -0.32032,-0.351557 -0.7461,-0.527338 -1.27734,-0.527344 -0.60157,6e-6 -1.08399,0.169927 -1.44727,0.509765 -0.35938,0.339849 -0.56641,0.818364 -0.62109,1.435547 l 3.84375,-0.0059"
         id="path3696"
         inkscape:connector-curvature="0" />
      <path
         d="m 223.48772,70.730621 c -0.8711,4e-6 -1.47462,0.09961 -1.81055,0.298828 -0.33594,0.199222 -0.50391,0.539065 -0.50391,1.019532 0,0.382814 0.125,0.687501 0.375,0.914062 0.25391,0.222657 0.59766,0.333985 1.03125,0.333985 0.59766,0 1.07617,-0.210937 1.43555,-0.632813 0.36328,-0.425779 0.54492,-0.990232 0.54492,-1.693359 l 0,-0.240235 -1.07226,0 m 2.15039,-0.445312 0,3.74414 -1.07813,0 0,-0.996093 c -0.2461,0.398438 -0.55274,0.693359 -0.91992,0.884765 -0.36719,0.1875 -0.81641,0.28125 -1.34766,0.28125 -0.67187,0 -1.20703,-0.1875 -1.60546,-0.5625 -0.39454,-0.378905 -0.5918,-0.884764 -0.5918,-1.517578 0,-0.738278 0.24609,-1.294918 0.73828,-1.669922 0.49609,-0.374996 1.23437,-0.562496 2.21484,-0.5625 l 1.51172,0 0,-0.105468 c 0,-0.496089 -0.16407,-0.878902 -0.49219,-1.148438 -0.32422,-0.273432 -0.78125,-0.41015 -1.37109,-0.410156 -0.375,6e-6 -0.74024,0.04493 -1.0957,0.134765 -0.35547,0.08985 -0.69727,0.224615 -1.02539,0.404297 l 0,-0.996093 c 0.39453,-0.152338 0.77734,-0.265619 1.14843,-0.339844 0.3711,-0.07812 0.73242,-0.117181 1.08399,-0.117188 0.94921,7e-6 1.6582,0.246101 2.12695,0.738282 0.46875,0.492193 0.70312,1.238286 0.70313,2.238281"
         id="path3698"
         inkscape:connector-curvature="0" />
      <path
         d="m 231.05803,67.466949 1.07812,0 1.34766,5.121094 1.3418,-5.121094 1.27148,0 1.34766,5.121094 1.34179,-5.121094 1.07813,0 -1.7168,6.5625 -1.27148,0 -1.41211,-5.378906 -1.41797,5.378906 -1.27148,0 -1.7168,-6.5625"
         id="path3700"
         inkscape:connector-curvature="0" />
      <path
         d="m 247.11858,70.478668 0,0.527344 -4.95704,0 c 0.0469,0.74219 0.26953,1.308595 0.66797,1.699219 0.40234,0.386719 0.96094,0.580079 1.67578,0.580078 0.41406,10e-7 0.81445,-0.05078 1.20118,-0.152344 0.39062,-0.101561 0.77733,-0.253905 1.16015,-0.457031 l 0,1.019531 c -0.38672,0.164063 -0.78321,0.289063 -1.18945,0.375 -0.40626,0.08594 -0.81836,0.128906 -1.23633,0.128906 -1.04688,0 -1.87695,-0.304687 -2.49023,-0.914062 -0.60938,-0.609374 -0.91407,-1.433592 -0.91407,-2.472656 0,-1.074215 0.28907,-1.925777 0.86719,-2.554688 0.58203,-0.632806 1.36523,-0.949212 2.34961,-0.949219 0.88281,7e-6 1.58007,0.285163 2.0918,0.855469 0.51562,0.566412 0.77343,1.337895 0.77344,2.314453 m -1.07813,-0.316406 c -0.008,-0.589839 -0.17383,-1.060542 -0.49805,-1.412109 -0.32031,-0.351557 -0.74609,-0.527338 -1.27734,-0.527344 -0.60157,6e-6 -1.08399,0.169927 -1.44727,0.509765 -0.35937,0.339849 -0.5664,0.818364 -0.62109,1.435547 l 3.84375,-0.0059"
         id="path3702"
         inkscape:connector-curvature="0" />
      <path
         d="m 253.59904,70.754059 c 0,-0.792965 -0.16406,-1.414058 -0.49218,-1.863281 -0.32423,-0.45312 -0.77149,-0.679682 -1.3418,-0.679688 -0.57032,6e-6 -1.01953,0.226568 -1.34766,0.679688 -0.32422,0.449223 -0.48633,1.070316 -0.48632,1.863281 -1e-5,0.792971 0.1621,1.416017 0.48632,1.86914 0.32813,0.44922 0.77734,0.673829 1.34766,0.673829 0.57031,0 1.01757,-0.224609 1.3418,-0.673829 0.32812,-0.453123 0.49218,-1.076169 0.49218,-1.86914 m -3.66796,-2.291016 c 0.22656,-0.390619 0.51171,-0.679681 0.85546,-0.867187 0.34766,-0.1914 0.76172,-0.287103 1.24219,-0.28711 0.79687,7e-6 1.44336,0.316413 1.93946,0.949219 0.49999,0.632818 0.74999,1.464848 0.75,2.496094 -1e-5,1.031252 -0.25001,1.863282 -0.75,2.496094 -0.4961,0.632812 -1.14259,0.949218 -1.93946,0.949218 -0.48047,0 -0.89453,-0.09375 -1.24219,-0.28125 -0.34375,-0.191406 -0.6289,-0.482421 -0.85546,-0.873047 l 0,0.984375 -1.08399,0 0,-9.117187 1.08399,0 0,3.550781"
         id="path3704"
         inkscape:connector-curvature="0" />
      <path
         d="m 256.46428,64.912262 1.08398,0 0,5.384766 3.2168,-2.830079 1.37695,0 -3.48047,3.070313 3.62696,3.492187 -1.40625,0 -3.33399,-3.205078 0,3.205078 -1.08398,0 0,-9.117187"
         id="path3706"
         inkscape:connector-curvature="0" />
      <path
         d="m 263.46623,67.466949 1.07813,0 0,6.5625 -1.07813,0 0,-6.5625 m 0,-2.554687 1.07813,0 0,1.365234 -1.07813,0 0,-1.365234"
         id="path3708"
         inkscape:connector-curvature="0" />
      <path
         d="m 267.86076,65.603668 0,1.863281 2.22071,0 0,0.837891 -2.22071,0 0,3.5625 c 0,0.535158 0.0723,0.878908 0.2168,1.03125 0.14844,0.152345 0.44726,0.228517 0.89648,0.228516 l 1.10743,0 0,0.902343 -1.10743,0 c -0.83203,0 -1.40625,-0.154296 -1.72265,-0.46289 -0.31641,-0.312499 -0.47461,-0.878905 -0.47461,-1.699219 l 0,-3.5625 -0.79102,0 0,-0.837891 0.79102,0 0,-1.863281 1.08398,0"
         id="path3710"
         inkscape:connector-curvature="0" />
      <path
         d="m 270.96037,70.261871 3.15821,0 0,0.960938 -3.15821,0 0,-0.960938"
         id="path3712"
         inkscape:connector-curvature="0" />
      <path
         d="m 280.55217,70.754059 c -10e-6,-0.792965 -0.16407,-1.414058 -0.49219,-1.863281 -0.32422,-0.45312 -0.77149,-0.679682 -1.34179,-0.679688 -0.57032,6e-6 -1.01954,0.226568 -1.34766,0.679688 -0.32422,0.449223 -0.48633,1.070316 -0.48633,1.863281 0,0.792971 0.16211,1.416017 0.48633,1.86914 0.32812,0.44922 0.77734,0.673829 1.34766,0.673829 0.5703,0 1.01757,-0.224609 1.34179,-0.673829 0.32812,-0.453123 0.49218,-1.076169 0.49219,-1.86914 m -3.66797,-2.291016 c 0.22656,-0.390619 0.51172,-0.679681 0.85547,-0.867187 0.34765,-0.1914 0.76171,-0.287103 1.24219,-0.28711 0.79687,7e-6 1.44335,0.316413 1.93945,0.949219 0.49999,0.632818 0.74999,1.464848 0.75,2.496094 -1e-5,1.031252 -0.25001,1.863282 -0.75,2.496094 -0.4961,0.632812 -1.14258,0.949218 -1.93945,0.949218 -0.48048,0 -0.89454,-0.09375 -1.24219,-0.28125 -0.34375,-0.191406 -0.62891,-0.482421 -0.85547,-0.873047 l 0,0.984375 -1.08398,0 0,-9.117187 1.08398,0 0,3.550781"
         id="path3714"
         inkscape:connector-curvature="0" />
      <path
         d="m 286.44084,70.730621 c -0.8711,4e-6 -1.47461,0.09961 -1.81055,0.298828 -0.33593,0.199222 -0.5039,0.539065 -0.5039,1.019532 0,0.382814 0.125,0.687501 0.375,0.914062 0.2539,0.222657 0.59765,0.333985 1.03125,0.333985 0.59765,0 1.07617,-0.210937 1.43555,-0.632813 0.36327,-0.425779 0.54491,-0.990232 0.54492,-1.693359 l 0,-0.240235 -1.07227,0 m 2.15039,-0.445312 0,3.74414 -1.07812,0 0,-0.996093 c -0.2461,0.398438 -0.55274,0.693359 -0.91992,0.884765 -0.3672,0.1875 -0.81641,0.28125 -1.34766,0.28125 -0.67188,0 -1.20703,-0.1875 -1.60547,-0.5625 -0.39453,-0.378905 -0.5918,-0.884764 -0.5918,-1.517578 0,-0.738278 0.2461,-1.294918 0.73828,-1.669922 0.4961,-0.374996 1.23438,-0.562496 2.21485,-0.5625 l 1.51172,0 0,-0.105468 c -10e-6,-0.496089 -0.16407,-0.878902 -0.49219,-1.148438 -0.32422,-0.273432 -0.78125,-0.41015 -1.37109,-0.410156 -0.37501,6e-6 -0.74024,0.04493 -1.09571,0.134765 -0.35547,0.08985 -0.69726,0.224615 -1.02539,0.404297 l 0,-0.996093 c 0.39453,-0.152338 0.77734,-0.265619 1.14844,-0.339844 0.37109,-0.07812 0.73242,-0.117181 1.08398,-0.117188 0.94922,7e-6 1.6582,0.246101 2.12696,0.738282 0.46874,0.492193 0.70312,1.238286 0.70312,2.238281"
         id="path3716"
         inkscape:connector-curvature="0" />
      <path
         d="m 295.00139,67.660309 0,1.019531 c -0.30469,-0.156244 -0.6211,-0.273432 -0.94922,-0.351562 -0.32813,-0.07812 -0.66797,-0.117182 -1.01953,-0.117188 -0.53516,6e-6 -0.9375,0.08204 -1.20703,0.246094 -0.26563,0.164068 -0.39844,0.410161 -0.39844,0.738281 0,0.250005 0.0957,0.44727 0.28711,0.591797 0.1914,0.140629 0.57617,0.275395 1.1543,0.404297 l 0.36914,0.08203 c 0.76562,0.164066 1.30859,0.396488 1.6289,0.697266 0.32422,0.296877 0.48633,0.712893 0.48633,1.248047 0,0.609376 -0.24219,1.091797 -0.72656,1.447265 -0.48047,0.355469 -1.14258,0.533203 -1.98633,0.533203 -0.35156,0 -0.71875,-0.03516 -1.10156,-0.105468 -0.37891,-0.06641 -0.7793,-0.167969 -1.20117,-0.304688 l 0,-1.113281 c 0.39843,0.207032 0.79101,0.363282 1.17773,0.46875 0.38672,0.101563 0.76953,0.152344 1.14844,0.152344 0.50781,0 0.89843,-0.08594 1.17187,-0.257813 0.27344,-0.17578 0.41015,-0.421874 0.41016,-0.738281 -10e-6,-0.292967 -0.0996,-0.517576 -0.29883,-0.673828 -0.19532,-0.156248 -0.62696,-0.306638 -1.29492,-0.451172 l -0.375,-0.08789 c -0.66797,-0.140622 -1.15039,-0.355465 -1.44727,-0.644531 -0.29687,-0.292965 -0.44531,-0.693355 -0.44531,-1.201172 0,-0.617182 0.21875,-1.093744 0.65625,-1.429687 0.4375,-0.335931 1.05859,-0.5039 1.86328,-0.503907 0.39844,7e-6 0.77344,0.0293 1.125,0.08789 0.35156,0.0586 0.67578,0.146491 0.97266,0.263672"
         id="path3718"
         inkscape:connector-curvature="0" />
      <path
         d="m 302.68889,70.478668 0,0.527344 -4.95703,0 c 0.0469,0.74219 0.26953,1.308595 0.66797,1.699219 0.40234,0.386719 0.96093,0.580079 1.67578,0.580078 0.41406,10e-7 0.81445,-0.05078 1.20117,-0.152344 0.39062,-0.101561 0.77734,-0.253905 1.16016,-0.457031 l 0,1.019531 c -0.38673,0.164063 -0.78321,0.289063 -1.18946,0.375 -0.40625,0.08594 -0.81836,0.128906 -1.23633,0.128906 -1.04687,0 -1.87695,-0.304687 -2.49023,-0.914062 -0.60938,-0.609374 -0.91406,-1.433592 -0.91406,-2.472656 0,-1.074215 0.28906,-1.925777 0.86718,-2.554688 0.58203,-0.632806 1.36524,-0.949212 2.34961,-0.949219 0.88281,7e-6 1.58008,0.285163 2.0918,0.855469 0.51562,0.566412 0.77343,1.337895 0.77344,2.314453 m -1.07813,-0.316406 c -0.008,-0.589839 -0.17383,-1.060542 -0.49804,-1.412109 -0.32032,-0.351557 -0.7461,-0.527338 -1.27735,-0.527344 -0.60156,6e-6 -1.08398,0.169927 -1.44726,0.509765 -0.35938,0.339849 -0.56641,0.818364 -0.6211,1.435547 l 3.84375,-0.0059"
         id="path3720"
         inkscape:connector-curvature="0" />
      <path
         d="m 308.77678,68.463043 0,-3.550781 1.07812,0 0,9.117187 -1.07812,0 0,-0.984375 c -0.22657,0.390626 -0.51368,0.681641 -0.86133,0.873047 -0.34375,0.1875 -0.75782,0.28125 -1.24219,0.28125 -0.79297,0 -1.43945,-0.316406 -1.93945,-0.949218 -0.49609,-0.632812 -0.74414,-1.464842 -0.74414,-2.496094 0,-1.031246 0.24805,-1.863276 0.74414,-2.496094 0.5,-0.632806 1.14648,-0.949212 1.93945,-0.949219 0.48437,7e-6 0.89844,0.09571 1.24219,0.28711 0.34765,0.187506 0.63476,0.476568 0.86133,0.867187 m -3.67383,2.291016 c 0,0.792971 0.16211,1.416017 0.48633,1.86914 0.32812,0.44922 0.77734,0.673829 1.34766,0.673829 0.5703,0 1.01952,-0.224609 1.34765,-0.673829 0.32812,-0.453123 0.49218,-1.076169 0.49219,-1.86914 -10e-6,-0.792965 -0.16407,-1.414058 -0.49219,-1.863281 -0.32813,-0.45312 -0.77735,-0.679682 -1.34765,-0.679688 -0.57032,6e-6 -1.01954,0.226568 -1.34766,0.679688 -0.32422,0.449223 -0.48633,1.070316 -0.48633,1.863281"
         id="path3722"
         inkscape:connector-curvature="0" />
      <path
         d="m 320.60686,70.754059 c -10e-6,-0.792965 -0.16407,-1.414058 -0.49219,-1.863281 -0.32422,-0.45312 -0.77149,-0.679682 -1.3418,-0.679688 -0.57031,6e-6 -1.01953,0.226568 -1.34765,0.679688 -0.32422,0.449223 -0.48633,1.070316 -0.48633,1.863281 0,0.792971 0.16211,1.416017 0.48633,1.86914 0.32812,0.44922 0.77734,0.673829 1.34765,0.673829 0.57031,0 1.01758,-0.224609 1.3418,-0.673829 0.32812,-0.453123 0.49218,-1.076169 0.49219,-1.86914 m -3.66797,-2.291016 c 0.22656,-0.390619 0.51171,-0.679681 0.85547,-0.867187 0.34765,-0.1914 0.76171,-0.287103 1.24218,-0.28711 0.79687,7e-6 1.44336,0.316413 1.93946,0.949219 0.49999,0.632818 0.74999,1.464848 0.75,2.496094 -10e-6,1.031252 -0.25001,1.863282 -0.75,2.496094 -0.4961,0.632812 -1.14259,0.949218 -1.93946,0.949218 -0.48047,0 -0.89453,-0.09375 -1.24218,-0.28125 -0.34376,-0.191406 -0.62891,-0.482421 -0.85547,-0.873047 l 0,0.984375 -1.08399,0 0,-9.117187 1.08399,0 0,3.550781"
         id="path3724"
         inkscape:connector-curvature="0" />
      <path
         d="m 327.31584,68.474762 c -0.1211,-0.07031 -0.25391,-0.121088 -0.39844,-0.152344 -0.14063,-0.03515 -0.29688,-0.05273 -0.46875,-0.05273 -0.60937,6e-6 -1.07812,0.199224 -1.40625,0.597656 -0.32422,0.394536 -0.48633,0.962895 -0.48632,1.705078 l 0,3.457031 -1.08399,0 0,-6.5625 1.08399,0 0,1.019532 c 0.22656,-0.398432 0.52148,-0.693353 0.88476,-0.884766 0.36328,-0.195306 0.80469,-0.292962 1.32422,-0.292969 0.0742,7e-6 0.15625,0.0059 0.24609,0.01758 0.0898,0.0078 0.18945,0.02149 0.29883,0.04102 l 0.006,1.107422"
         id="path3726"
         inkscape:connector-curvature="0" />
      <path
         d="m 330.74358,68.222809 c -0.57813,6e-6 -1.03516,0.226568 -1.3711,0.679687 -0.33594,0.449224 -0.50391,1.066411 -0.5039,1.851563 -1e-5,0.785159 0.16601,1.404299 0.49804,1.857422 0.33594,0.449219 0.79492,0.673829 1.37696,0.673828 0.57421,10e-7 1.02929,-0.226562 1.36523,-0.679688 0.33593,-0.453123 0.5039,-1.07031 0.50391,-1.851562 -1e-5,-0.77734 -0.16798,-1.392574 -0.50391,-1.845703 -0.33594,-0.457026 -0.79102,-0.685541 -1.36523,-0.685547 m 0,-0.914063 c 0.93749,7e-6 1.67382,0.304694 2.20898,0.914063 0.53515,0.60938 0.80273,1.453129 0.80273,2.53125 0,1.074221 -0.26758,1.91797 -0.80273,2.53125 -0.53516,0.609375 -1.27149,0.914062 -2.20898,0.914062 -0.94141,0 -1.67969,-0.304687 -2.21485,-0.914062 -0.53125,-0.61328 -0.79687,-1.457029 -0.79687,-2.53125 0,-1.078121 0.26562,-1.92187 0.79687,-2.53125 0.53516,-0.609369 1.27344,-0.914056 2.21485,-0.914063"
         id="path3728"
         inkscape:connector-curvature="0" />
      <path
         d="m 334.90959,67.466949 1.07813,0 1.34765,5.121094 1.3418,-5.121094 1.27148,0 1.34766,5.121094 1.3418,-5.121094 1.07812,0 -1.71679,6.5625 -1.27149,0 -1.41211,-5.378906 -1.41797,5.378906 -1.27148,0 -1.7168,-6.5625"
         id="path3730"
         inkscape:connector-curvature="0" />
      <path
         d="m 349.54045,67.660309 0,1.019531 c -0.30469,-0.156244 -0.6211,-0.273432 -0.94922,-0.351562 -0.32813,-0.07812 -0.66797,-0.117182 -1.01953,-0.117188 -0.53516,6e-6 -0.9375,0.08204 -1.20703,0.246094 -0.26563,0.164068 -0.39844,0.410161 -0.39844,0.738281 0,0.250005 0.0957,0.44727 0.28711,0.591797 0.19141,0.140629 0.57617,0.275395 1.1543,0.404297 l 0.36914,0.08203 c 0.76562,0.164066 1.30859,0.396488 1.62891,0.697266 0.32421,0.296877 0.48632,0.712893 0.48632,1.248047 0,0.609376 -0.24219,1.091797 -0.72656,1.447265 -0.48047,0.355469 -1.14258,0.533203 -1.98633,0.533203 -0.35156,0 -0.71875,-0.03516 -1.10156,-0.105468 -0.37891,-0.06641 -0.7793,-0.167969 -1.20117,-0.304688 l 0,-1.113281 c 0.39844,0.207032 0.79101,0.363282 1.17773,0.46875 0.38672,0.101563 0.76953,0.152344 1.14844,0.152344 0.50781,0 0.89843,-0.08594 1.17188,-0.257813 0.27343,-0.17578 0.41015,-0.421874 0.41015,-0.738281 0,-0.292967 -0.0996,-0.517576 -0.29883,-0.673828 -0.19531,-0.156248 -0.62695,-0.306638 -1.29492,-0.451172 l -0.375,-0.08789 c -0.66797,-0.140622 -1.15039,-0.355465 -1.44726,-0.644531 -0.29688,-0.292965 -0.44532,-0.693355 -0.44532,-1.201172 0,-0.617182 0.21875,-1.093744 0.65625,-1.429687 0.4375,-0.335931 1.05859,-0.5039 1.86328,-0.503907 0.39844,7e-6 0.77344,0.0293 1.125,0.08789 0.35156,0.0586 0.67578,0.146491 0.97266,0.263672"
         id="path3732"
         inkscape:connector-curvature="0" />
      <path
         d="m 357.22795,70.478668 0,0.527344 -4.95703,0 c 0.0469,0.74219 0.26953,1.308595 0.66797,1.699219 0.40234,0.386719 0.96093,0.580079 1.67578,0.580078 0.41406,10e-7 0.81445,-0.05078 1.20117,-0.152344 0.39062,-0.101561 0.77734,-0.253905 1.16016,-0.457031 l 0,1.019531 c -0.38673,0.164063 -0.78321,0.289063 -1.18946,0.375 -0.40625,0.08594 -0.81836,0.128906 -1.23632,0.128906 -1.04688,0 -1.87696,-0.304687 -2.49024,-0.914062 -0.60937,-0.609374 -0.91406,-1.433592 -0.91406,-2.472656 0,-1.074215 0.28906,-1.925777 0.86719,-2.554688 0.58203,-0.632806 1.36523,-0.949212 2.34961,-0.949219 0.8828,7e-6 1.58007,0.285163 2.09179,0.855469 0.51562,0.566412 0.77343,1.337895 0.77344,2.314453 m -1.07812,-0.316406 c -0.008,-0.589839 -0.17384,-1.060542 -0.49805,-1.412109 -0.32032,-0.351557 -0.7461,-0.527338 -1.27734,-0.527344 -0.60157,6e-6 -1.08399,0.169927 -1.44727,0.509765 -0.35938,0.339849 -0.56641,0.818364 -0.62109,1.435547 l 3.84375,-0.0059"
         id="path3734"
         inkscape:connector-curvature="0" />
      <path
         d="m 362.80022,68.474762 c -0.1211,-0.07031 -0.25391,-0.121088 -0.39844,-0.152344 -0.14063,-0.03515 -0.29688,-0.05273 -0.46875,-0.05273 -0.60938,6e-6 -1.07813,0.199224 -1.40625,0.597656 -0.32422,0.394536 -0.48633,0.962895 -0.48633,1.705078 l 0,3.457031 -1.08398,0 0,-6.5625 1.08398,0 0,1.019532 c 0.22656,-0.398432 0.52148,-0.693353 0.88477,-0.884766 0.36327,-0.195306 0.80468,-0.292962 1.32422,-0.292969 0.0742,7e-6 0.15624,0.0059 0.24609,0.01758 0.0898,0.0078 0.18945,0.02149 0.29883,0.04102 l 0.006,1.107422"
         id="path3736"
         inkscape:connector-curvature="0" />
      <path
         d="m 367.76311,67.466949 1.07812,0 0,6.5625 -1.07812,0 0,-6.5625 m 0,-2.554687 1.07812,0 0,1.365234 -1.07812,0 0,-1.365234"
         id="path3738"
         inkscape:connector-curvature="0" />
      <path
         d="m 376.54631,70.068512 0,3.960937 -1.07812,0 0,-3.925781 c -10e-6,-0.621089 -0.1211,-1.085932 -0.36329,-1.394531 -0.24219,-0.308588 -0.60547,-0.462885 -1.08984,-0.462891 -0.58203,6e-6 -1.04102,0.185553 -1.37695,0.556641 -0.33594,0.371099 -0.50391,0.876957 -0.50391,1.517578 l 0,3.708984 -1.08398,0 0,-6.5625 1.08398,0 0,1.019532 c 0.25781,-0.394526 0.56055,-0.689447 0.9082,-0.884766 0.35156,-0.195306 0.75586,-0.292962 1.21289,-0.292969 0.75391,7e-6 1.32422,0.234382 1.71094,0.703125 0.38671,0.46485 0.58007,1.150396 0.58008,2.056641"
         id="path3740"
         inkscape:connector-curvature="0" />
      <path
         d="m 385.0717,68.222809 c -0.57813,6e-6 -1.03516,0.226568 -1.37109,0.679687 -0.33594,0.449224 -0.50391,1.066411 -0.50391,1.851563 0,0.785159 0.16601,1.404299 0.49805,1.857422 0.33593,0.449219 0.79492,0.673829 1.37695,0.673828 0.57422,10e-7 1.02929,-0.226562 1.36524,-0.679688 0.33593,-0.453123 0.5039,-1.07031 0.5039,-1.851562 0,-0.77734 -0.16797,-1.392574 -0.5039,-1.845703 -0.33595,-0.457026 -0.79102,-0.685541 -1.36524,-0.685547 m 0,-0.914063 c 0.9375,7e-6 1.67382,0.304694 2.20899,0.914063 0.53515,0.60938 0.80272,1.453129 0.80273,2.53125 -10e-6,1.074221 -0.26758,1.91797 -0.80273,2.53125 -0.53517,0.609375 -1.27149,0.914062 -2.20899,0.914062 -0.94141,0 -1.67969,-0.304687 -2.21484,-0.914062 -0.53125,-0.61328 -0.79688,-1.457029 -0.79688,-2.53125 0,-1.078121 0.26563,-1.92187 0.79688,-2.53125 0.53515,-0.609369 1.27343,-0.914056 2.21484,-0.914063"
         id="path3742"
         inkscape:connector-curvature="0" />
      <path
         d="m 393.6674,68.474762 c -0.12109,-0.07031 -0.25391,-0.121088 -0.39843,-0.152344 -0.14063,-0.03515 -0.29688,-0.05273 -0.46875,-0.05273 -0.60938,6e-6 -1.07813,0.199224 -1.40625,0.597656 -0.32422,0.394536 -0.48633,0.962895 -0.48633,1.705078 l 0,3.457031 -1.08399,0 0,-6.5625 1.08399,0 0,1.019532 c 0.22656,-0.398432 0.52148,-0.693353 0.88476,-0.884766 0.36328,-0.195306 0.80469,-0.292962 1.32422,-0.292969 0.0742,7e-6 0.15625,0.0059 0.2461,0.01758 0.0898,0.0078 0.18944,0.02149 0.29882,0.04102 l 0.006,1.107422"
         id="path3744"
         inkscape:connector-curvature="0" />
      <path
         d="m 398.9174,68.463043 0,-3.550781 1.07813,0 0,9.117187 -1.07813,0 0,-0.984375 c -0.22656,0.390626 -0.51367,0.681641 -0.86132,0.873047 -0.34376,0.1875 -0.75782,0.28125 -1.24219,0.28125 -0.79297,0 -1.43946,-0.316406 -1.93945,-0.949218 -0.4961,-0.632812 -0.74415,-1.464842 -0.74415,-2.496094 0,-1.031246 0.24805,-1.863276 0.74415,-2.496094 0.49999,-0.632806 1.14648,-0.949212 1.93945,-0.949219 0.48437,7e-6 0.89843,0.09571 1.24219,0.28711 0.34765,0.187506 0.63476,0.476568 0.86132,0.867187 m -3.67382,2.291016 c -1e-5,0.792971 0.1621,1.416017 0.48632,1.86914 0.32813,0.44922 0.77734,0.673829 1.34766,0.673829 0.57031,0 1.01953,-0.224609 1.34766,-0.673829 0.32812,-0.453123 0.49218,-1.076169 0.49218,-1.86914 0,-0.792965 -0.16406,-1.414058 -0.49218,-1.863281 -0.32813,-0.45312 -0.77735,-0.679682 -1.34766,-0.679688 -0.57032,6e-6 -1.01953,0.226568 -1.34766,0.679688 -0.32422,0.449223 -0.48633,1.070316 -0.48632,1.863281"
         id="path3746"
         inkscape:connector-curvature="0" />
      <path
         d="m 407.82951,70.478668 0,0.527344 -4.95703,0 c 0.0469,0.74219 0.26953,1.308595 0.66797,1.699219 0.40234,0.386719 0.96094,0.580079 1.67578,0.580078 0.41406,10e-7 0.81445,-0.05078 1.20117,-0.152344 0.39062,-0.101561 0.77734,-0.253905 1.16016,-0.457031 l 0,1.019531 c -0.38672,0.164063 -0.78321,0.289063 -1.18945,0.375 -0.40626,0.08594 -0.81837,0.128906 -1.23633,0.128906 -1.04688,0 -1.87696,-0.304687 -2.49024,-0.914062 -0.60937,-0.609374 -0.91406,-1.433592 -0.91406,-2.472656 0,-1.074215 0.28906,-1.925777 0.86719,-2.554688 0.58203,-0.632806 1.36523,-0.949212 2.34961,-0.949219 0.88281,7e-6 1.58007,0.285163 2.0918,0.855469 0.51561,0.566412 0.77343,1.337895 0.77343,2.314453 m -1.07812,-0.316406 c -0.008,-0.589839 -0.17384,-1.060542 -0.49805,-1.412109 -0.32032,-0.351557 -0.7461,-0.527338 -1.27734,-0.527344 -0.60157,6e-6 -1.08399,0.169927 -1.44727,0.509765 -0.35937,0.339849 -0.56641,0.818364 -0.62109,1.435547 l 3.84375,-0.0059"
         id="path3748"
         inkscape:connector-curvature="0" />
      <path
         d="m 413.40178,68.474762 c -0.1211,-0.07031 -0.25391,-0.121088 -0.39844,-0.152344 -0.14063,-0.03515 -0.29688,-0.05273 -0.46875,-0.05273 -0.60938,6e-6 -1.07813,0.199224 -1.40625,0.597656 -0.32422,0.394536 -0.48633,0.962895 -0.48633,1.705078 l 0,3.457031 -1.08398,0 0,-6.5625 1.08398,0 0,1.019532 c 0.22656,-0.398432 0.52149,-0.693353 0.88477,-0.884766 0.36328,-0.195306 0.80468,-0.292962 1.32422,-0.292969 0.0742,7e-6 0.15624,0.0059 0.24609,0.01758 0.0898,0.0078 0.18945,0.02149 0.29883,0.04102 l 0.006,1.107422"
         id="path3750"
         inkscape:connector-curvature="0" />
      <path
         d="m 419.43108,65.603668 0,1.863281 2.2207,0 0,0.837891 -2.2207,0 0,3.5625 c -1e-5,0.535158 0.0723,0.878908 0.21679,1.03125 0.14844,0.152345 0.44727,0.228517 0.89649,0.228516 l 1.10742,0 0,0.902343 -1.10742,0 c -0.83204,0 -1.40625,-0.154296 -1.72266,-0.46289 -0.31641,-0.312499 -0.47461,-0.878905 -0.47461,-1.699219 l 0,-3.5625 -0.79101,0 0,-0.837891 0.79101,0 0,-1.863281 1.08399,0"
         id="path3752"
         inkscape:connector-curvature="0" />
      <path
         d="m 425.61858,68.222809 c -0.57813,6e-6 -1.03516,0.226568 -1.3711,0.679687 -0.33594,0.449224 -0.50391,1.066411 -0.5039,1.851563 -1e-5,0.785159 0.16601,1.404299 0.49804,1.857422 0.33594,0.449219 0.79492,0.673829 1.37696,0.673828 0.57421,10e-7 1.02929,-0.226562 1.36523,-0.679688 0.33593,-0.453123 0.5039,-1.07031 0.50391,-1.851562 -1e-5,-0.77734 -0.16798,-1.392574 -0.50391,-1.845703 -0.33594,-0.457026 -0.79102,-0.685541 -1.36523,-0.685547 m 0,-0.914063 c 0.93749,7e-6 1.67382,0.304694 2.20898,0.914063 0.53515,0.60938 0.80273,1.453129 0.80273,2.53125 0,1.074221 -0.26758,1.91797 -0.80273,2.53125 -0.53516,0.609375 -1.27149,0.914062 -2.20898,0.914062 -0.94141,0 -1.67969,-0.304687 -2.21485,-0.914062 -0.53125,-0.61328 -0.79687,-1.457029 -0.79687,-2.53125 0,-1.078121 0.26562,-1.92187 0.79687,-2.53125 0.53516,-0.609369 1.27344,-0.914056 2.21485,-0.914063"
         id="path3754"
         inkscape:connector-curvature="0" />
      <path
         d="m 434.12053,71.439606 0,-3.972657 1.07812,0 0,3.931641 c 0,0.621096 0.1211,1.087892 0.36329,1.400391 0.24218,0.308594 0.60546,0.462891 1.08984,0.46289 0.58203,10e-7 1.04101,-0.185546 1.37695,-0.55664 0.33984,-0.371092 0.50976,-0.876951 0.50977,-1.517578 l 0,-3.720704 1.07812,0 0,6.5625 -1.07812,0 0,-1.007812 c -0.26173,0.398438 -0.56641,0.695313 -0.91406,0.890625 -0.34376,0.191406 -0.74415,0.287109 -1.20118,0.287109 -0.75391,0 -1.32617,-0.234375 -1.71679,-0.703125 -0.39063,-0.468749 -0.58594,-1.154295 -0.58594,-2.05664 m 2.71289,-4.13086 0,0"
         id="path3756"
         inkscape:connector-curvature="0" />
      <path
         d="m 446.03264,67.660309 0,1.019531 c -0.30469,-0.156244 -0.6211,-0.273432 -0.94922,-0.351562 -0.32813,-0.07812 -0.66797,-0.117182 -1.01953,-0.117188 -0.53516,6e-6 -0.9375,0.08204 -1.20703,0.246094 -0.26563,0.164068 -0.39844,0.410161 -0.39844,0.738281 0,0.250005 0.0957,0.44727 0.28711,0.591797 0.1914,0.140629 0.57617,0.275395 1.1543,0.404297 l 0.36914,0.08203 c 0.76562,0.164066 1.30859,0.396488 1.6289,0.697266 0.32422,0.296877 0.48633,0.712893 0.48633,1.248047 0,0.609376 -0.24219,1.091797 -0.72656,1.447265 -0.48047,0.355469 -1.14258,0.533203 -1.98633,0.533203 -0.35156,0 -0.71875,-0.03516 -1.10156,-0.105468 -0.37891,-0.06641 -0.7793,-0.167969 -1.20117,-0.304688 l 0,-1.113281 c 0.39843,0.207032 0.79101,0.363282 1.17773,0.46875 0.38672,0.101563 0.76953,0.152344 1.14844,0.152344 0.50781,0 0.89843,-0.08594 1.17187,-0.257813 0.27344,-0.17578 0.41015,-0.421874 0.41016,-0.738281 -10e-6,-0.292967 -0.0996,-0.517576 -0.29883,-0.673828 -0.19532,-0.156248 -0.62696,-0.306638 -1.29492,-0.451172 l -0.375,-0.08789 c -0.66797,-0.140622 -1.15039,-0.355465 -1.44727,-0.644531 -0.29687,-0.292965 -0.44531,-0.693355 -0.44531,-1.201172 0,-0.617182 0.21875,-1.093744 0.65625,-1.429687 0.4375,-0.335931 1.05859,-0.5039 1.86328,-0.503907 0.39844,7e-6 0.77344,0.0293 1.125,0.08789 0.35156,0.0586 0.67578,0.146491 0.97266,0.263672"
         id="path3758"
         inkscape:connector-curvature="0" />
      <path
         d="m 453.72014,70.478668 0,0.527344 -4.95703,0 c 0.0469,0.74219 0.26953,1.308595 0.66797,1.699219 0.40234,0.386719 0.96093,0.580079 1.67578,0.580078 0.41406,10e-7 0.81445,-0.05078 1.20117,-0.152344 0.39062,-0.101561 0.77734,-0.253905 1.16016,-0.457031 l 0,1.019531 c -0.38673,0.164063 -0.78321,0.289063 -1.18946,0.375 -0.40625,0.08594 -0.81836,0.128906 -1.23633,0.128906 -1.04687,0 -1.87695,-0.304687 -2.49023,-0.914062 -0.60938,-0.609374 -0.91406,-1.433592 -0.91406,-2.472656 0,-1.074215 0.28906,-1.925777 0.86718,-2.554688 0.58203,-0.632806 1.36524,-0.949212 2.34961,-0.949219 0.88281,7e-6 1.58008,0.285163 2.0918,0.855469 0.51562,0.566412 0.77343,1.337895 0.77344,2.314453 m -1.07813,-0.316406 c -0.008,-0.589839 -0.17383,-1.060542 -0.49804,-1.412109 -0.32032,-0.351557 -0.7461,-0.527338 -1.27735,-0.527344 -0.60156,6e-6 -1.08398,0.169927 -1.44726,0.509765 -0.35938,0.339849 -0.56641,0.818364 -0.6211,1.435547 l 3.84375,-0.0059"
         id="path3760"
         inkscape:connector-curvature="0" />
      <path
         d="m 460.37639,65.603668 0,1.863281 2.2207,0 0,0.837891 -2.2207,0 0,3.5625 c 0,0.535158 0.0723,0.878908 0.2168,1.03125 0.14843,0.152345 0.44726,0.228517 0.89648,0.228516 l 1.10742,0 0,0.902343 -1.10742,0 c -0.83203,0 -1.40625,-0.154296 -1.72266,-0.46289 -0.3164,-0.312499 -0.47461,-0.878905 -0.47461,-1.699219 l 0,-3.5625 -0.79101,0 0,-0.837891 0.79101,0 0,-1.863281 1.08399,0"
         id="path3762"
         inkscape:connector-curvature="0" />
      <path
         d="m 469.476,70.068512 0,3.960937 -1.07813,0 0,-3.925781 c 0,-0.621089 -0.1211,-1.085932 -0.36328,-1.394531 -0.24219,-0.308588 -0.60547,-0.462885 -1.08984,-0.462891 -0.58204,6e-6 -1.04102,0.185553 -1.37696,0.556641 -0.33594,0.371099 -0.5039,0.876957 -0.5039,1.517578 l 0,3.708984 -1.08399,0 0,-9.117187 1.08399,0 0,3.574219 c 0.25781,-0.394526 0.56054,-0.689447 0.9082,-0.884766 0.35156,-0.195306 0.75586,-0.292962 1.21289,-0.292969 0.7539,7e-6 1.32422,0.234382 1.71094,0.703125 0.38671,0.46485 0.58007,1.150396 0.58008,2.056641"
         id="path3764"
         inkscape:connector-curvature="0" />
      <path
         d="m 471.63811,67.466949 1.07812,0 0,6.5625 -1.07812,0 0,-6.5625 m 0,-2.554687 1.07812,0 0,1.365234 -1.07812,0 0,-1.365234"
         id="path3766"
         inkscape:connector-curvature="0" />
      <path
         d="m 479.14983,67.660309 0,1.019531 c -0.3047,-0.156244 -0.6211,-0.273432 -0.94922,-0.351562 -0.32813,-0.07812 -0.66798,-0.117182 -1.01953,-0.117188 -0.53516,6e-6 -0.93751,0.08204 -1.20704,0.246094 -0.26562,0.164068 -0.39843,0.410161 -0.39843,0.738281 0,0.250005 0.0957,0.44727 0.28711,0.591797 0.1914,0.140629 0.57617,0.275395 1.15429,0.404297 l 0.36914,0.08203 c 0.76562,0.164066 1.30859,0.396488 1.62891,0.697266 0.32421,0.296877 0.48632,0.712893 0.48633,1.248047 -1e-5,0.609376 -0.24219,1.091797 -0.72656,1.447265 -0.48048,0.355469 -1.14259,0.533203 -1.98633,0.533203 -0.35157,0 -0.71875,-0.03516 -1.10156,-0.105468 -0.37891,-0.06641 -0.7793,-0.167969 -1.20118,-0.304688 l 0,-1.113281 c 0.39844,0.207032 0.79102,0.363282 1.17774,0.46875 0.38671,0.101563 0.76953,0.152344 1.14844,0.152344 0.5078,0 0.89843,-0.08594 1.17187,-0.257813 0.27343,-0.17578 0.41015,-0.421874 0.41016,-0.738281 -1e-5,-0.292967 -0.0996,-0.517576 -0.29883,-0.673828 -0.19532,-0.156248 -0.62696,-0.306638 -1.29492,-0.451172 l -0.375,-0.08789 c -0.66797,-0.140622 -1.1504,-0.355465 -1.44727,-0.644531 -0.29687,-0.292965 -0.44531,-0.693355 -0.44531,-1.201172 0,-0.617182 0.21875,-1.093744 0.65625,-1.429687 0.4375,-0.335931 1.05859,-0.5039 1.86328,-0.503907 0.39843,7e-6 0.77343,0.0293 1.125,0.08789 0.35156,0.0586 0.67578,0.146491 0.97266,0.263672"
         id="path3768"
         inkscape:connector-curvature="0" />
      <path
         d="m 488.02678,70.730621 c -0.8711,4e-6 -1.47461,0.09961 -1.81055,0.298828 -0.33594,0.199222 -0.50391,0.539065 -0.5039,1.019532 -1e-5,0.382814 0.12499,0.687501 0.375,0.914062 0.2539,0.222657 0.59765,0.333985 1.03125,0.333985 0.59765,0 1.07616,-0.210937 1.43554,-0.632813 0.36328,-0.425779 0.54492,-0.990232 0.54492,-1.693359 l 0,-0.240235 -1.07226,0 m 2.15039,-0.445312 0,3.74414 -1.07813,0 0,-0.996093 c -0.24609,0.398438 -0.55273,0.693359 -0.91992,0.884765 -0.36719,0.1875 -0.81641,0.28125 -1.34765,0.28125 -0.67188,0 -1.20704,-0.1875 -1.60547,-0.5625 -0.39453,-0.378905 -0.5918,-0.884764 -0.5918,-1.517578 0,-0.738278 0.24609,-1.294918 0.73828,-1.669922 0.49609,-0.374996 1.23437,-0.562496 2.21485,-0.5625 l 1.51171,0 0,-0.105468 c 0,-0.496089 -0.16406,-0.878902 -0.49218,-1.148438 -0.32423,-0.273432 -0.78126,-0.41015 -1.3711,-0.410156 -0.375,6e-6 -0.74023,0.04493 -1.0957,0.134765 -0.35547,0.08985 -0.69727,0.224615 -1.02539,0.404297 l 0,-0.996093 c 0.39453,-0.152338 0.77734,-0.265619 1.14844,-0.339844 0.37109,-0.07812 0.73242,-0.117181 1.08398,-0.117188 0.94922,7e-6 1.6582,0.246101 2.12695,0.738282 0.46875,0.492193 0.70312,1.238286 0.70313,2.238281"
         id="path3770"
         inkscape:connector-curvature="0" />
      <path
         d="m 493.4467,73.045074 0,3.480469 -1.08398,0 0,-9.058594 1.08398,0 0,0.996094 c 0.22656,-0.390619 0.51172,-0.679681 0.85547,-0.867187 0.34765,-0.1914 0.76171,-0.287103 1.24219,-0.28711 0.79687,7e-6 1.44335,0.316413 1.93945,0.949219 0.49999,0.632818 0.74999,1.464848 0.75,2.496094 -1e-5,1.031252 -0.25001,1.863282 -0.75,2.496094 -0.4961,0.632812 -1.14258,0.949218 -1.93945,0.949218 -0.48048,0 -0.89454,-0.09375 -1.24219,-0.28125 -0.34375,-0.191406 -0.62891,-0.482421 -0.85547,-0.873047 m 3.66797,-2.291015 c -10e-6,-0.792965 -0.16407,-1.414058 -0.49219,-1.863281 -0.32422,-0.45312 -0.77149,-0.679682 -1.34179,-0.679688 -0.57032,6e-6 -1.01954,0.226568 -1.34766,0.679688 -0.32422,0.449223 -0.48633,1.070316 -0.48633,1.863281 0,0.792971 0.16211,1.416017 0.48633,1.86914 0.32812,0.44922 0.77734,0.673829 1.34766,0.673829 0.5703,0 1.01757,-0.224609 1.34179,-0.673829 0.32812,-0.453123 0.49218,-1.076169 0.49219,-1.86914"
         id="path3772"
         inkscape:connector-curvature="0" />
      <path
         d="m 501.06389,73.045074 0,3.480469 -1.08399,0 0,-9.058594 1.08399,0 0,0.996094 c 0.22656,-0.390619 0.51171,-0.679681 0.85547,-0.867187 0.34765,-0.1914 0.76171,-0.287103 1.24218,-0.28711 0.79687,7e-6 1.44336,0.316413 1.93946,0.949219 0.49999,0.632818 0.74999,1.464848 0.75,2.496094 -10e-6,1.031252 -0.25001,1.863282 -0.75,2.496094 -0.4961,0.632812 -1.14259,0.949218 -1.93946,0.949218 -0.48047,0 -0.89453,-0.09375 -1.24218,-0.28125 -0.34376,-0.191406 -0.62891,-0.482421 -0.85547,-0.873047 m 3.66797,-2.291015 c -10e-6,-0.792965 -0.16407,-1.414058 -0.49219,-1.863281 -0.32422,-0.45312 -0.77149,-0.679682 -1.3418,-0.679688 -0.57031,6e-6 -1.01953,0.226568 -1.34765,0.679688 -0.32422,0.449223 -0.48633,1.070316 -0.48633,1.863281 0,0.792971 0.16211,1.416017 0.48633,1.86914 0.32812,0.44922 0.77734,0.673829 1.34765,0.673829 0.57031,0 1.01758,-0.224609 1.3418,-0.673829 0.32812,-0.453123 0.49218,-1.076169 0.49219,-1.86914"
         id="path3774"
         inkscape:connector-curvature="0" />
      <path
         d="m 507.63811,64.912262 1.07812,0 0,9.117187 -1.07812,0 0,-9.117187"
         id="path3776"
         inkscape:connector-curvature="0" />
      <path
         d="m 510.96623,67.466949 1.07813,0 0,6.5625 -1.07813,0 0,-6.5625 m 0,-2.554687 1.07813,0 0,1.365234 -1.07813,0 0,-1.365234"
         id="path3778"
         inkscape:connector-curvature="0" />
      <path
         d="m 519.01701,67.718903 0,1.007812 c -0.30469,-0.167963 -0.61133,-0.292963 -0.91992,-0.375 -0.30469,-0.08593 -0.61328,-0.1289 -0.92578,-0.128906 -0.69922,6e-6 -1.24219,0.222662 -1.62891,0.667969 -0.38672,0.441411 -0.58008,1.062504 -0.58007,1.863281 -10e-6,0.800784 0.19335,1.42383 0.58007,1.86914 0.38672,0.441408 0.92969,0.662111 1.62891,0.66211 0.3125,10e-7 0.62109,-0.04102 0.92578,-0.123047 0.30859,-0.08594 0.61523,-0.21289 0.91992,-0.380859 l 0,0.996093 c -0.30078,0.140625 -0.61328,0.246094 -0.9375,0.316407 -0.32031,0.07031 -0.66211,0.105468 -1.02539,0.105468 -0.98828,0 -1.77344,-0.310546 -2.35547,-0.93164 -0.58203,-0.621093 -0.87304,-1.458982 -0.87304,-2.513672 0,-1.070308 0.29297,-1.912104 0.8789,-2.525391 0.58985,-0.613275 1.39648,-0.919915 2.41993,-0.919922 0.33202,7e-6 0.65624,0.03516 0.97265,0.105469 0.3164,0.06641 0.62304,0.167975 0.91992,0.304688"
         id="path3780"
         inkscape:connector-curvature="0" />
      <path
         d="m 523.88615,70.730621 c -0.87109,4e-6 -1.47461,0.09961 -1.81054,0.298828 -0.33594,0.199222 -0.50391,0.539065 -0.50391,1.019532 0,0.382814 0.125,0.687501 0.375,0.914062 0.2539,0.222657 0.59765,0.333985 1.03125,0.333985 0.59765,0 1.07617,-0.210937 1.43555,-0.632813 0.36327,-0.425779 0.54491,-0.990232 0.54492,-1.693359 l 0,-0.240235 -1.07227,0 m 2.15039,-0.445312 0,3.74414 -1.07812,0 0,-0.996093 c -0.2461,0.398438 -0.55274,0.693359 -0.91992,0.884765 -0.36719,0.1875 -0.81641,0.28125 -1.34766,0.28125 -0.67188,0 -1.20703,-0.1875 -1.60547,-0.5625 -0.39453,-0.378905 -0.59179,-0.884764 -0.59179,-1.517578 0,-0.738278 0.24609,-1.294918 0.73828,-1.669922 0.49609,-0.374996 1.23437,-0.562496 2.21484,-0.5625 l 1.51172,0 0,-0.105468 c -1e-5,-0.496089 -0.16407,-0.878902 -0.49219,-1.148438 -0.32422,-0.273432 -0.78125,-0.41015 -1.37109,-0.410156 -0.375,6e-6 -0.74024,0.04493 -1.0957,0.134765 -0.35548,0.08985 -0.69727,0.224615 -1.0254,0.404297 l 0,-0.996093 c 0.39453,-0.152338 0.77735,-0.265619 1.14844,-0.339844 0.37109,-0.07812 0.73242,-0.117181 1.08399,-0.117188 0.94921,7e-6 1.65819,0.246101 2.12695,0.738282 0.46874,0.492193 0.70312,1.238286 0.70312,2.238281"
         id="path3782"
         inkscape:connector-curvature="0" />
      <path
         d="m 529.32951,65.603668 0,1.863281 2.22071,0 0,0.837891 -2.22071,0 0,3.5625 c 0,0.535158 0.0723,0.878908 0.2168,1.03125 0.14844,0.152345 0.44726,0.228517 0.89648,0.228516 l 1.10743,0 0,0.902343 -1.10743,0 c -0.83203,0 -1.40625,-0.154296 -1.72265,-0.46289 -0.31641,-0.312499 -0.47461,-0.878905 -0.47461,-1.699219 l 0,-3.5625 -0.79102,0 0,-0.837891 0.79102,0 0,-1.863281 1.08398,0"
         id="path3784"
         inkscape:connector-curvature="0" />
      <path
         d="m 532.97404,67.466949 1.07813,0 0,6.5625 -1.07813,0 0,-6.5625 m 0,-2.554687 1.07813,0 0,1.365234 -1.07813,0 0,-1.365234"
         id="path3786"
         inkscape:connector-curvature="0" />
      <path
         d="m 538.84514,68.222809 c -0.57813,6e-6 -1.03516,0.226568 -1.3711,0.679687 -0.33593,0.449224 -0.5039,1.066411 -0.5039,1.851563 0,0.785159 0.16601,1.404299 0.49805,1.857422 0.33593,0.449219 0.79491,0.673829 1.37695,0.673828 0.57421,10e-7 1.02929,-0.226562 1.36523,-0.679688 0.33594,-0.453123 0.5039,-1.07031 0.50391,-1.851562 -10e-6,-0.77734 -0.16797,-1.392574 -0.50391,-1.845703 -0.33594,-0.457026 -0.79102,-0.685541 -1.36523,-0.685547 m 0,-0.914063 c 0.93749,7e-6 1.67382,0.304694 2.20898,0.914063 0.53515,0.60938 0.80273,1.453129 0.80274,2.53125 -10e-6,1.074221 -0.26759,1.91797 -0.80274,2.53125 -0.53516,0.609375 -1.27149,0.914062 -2.20898,0.914062 -0.94141,0 -1.67969,-0.304687 -2.21485,-0.914062 -0.53125,-0.61328 -0.79687,-1.457029 -0.79687,-2.53125 0,-1.078121 0.26562,-1.92187 0.79687,-2.53125 0.53516,-0.609369 1.27344,-0.914056 2.21485,-0.914063"
         id="path3788"
         inkscape:connector-curvature="0" />
      <path
         d="m 549.09319,70.068512 0,3.960937 -1.07813,0 0,-3.925781 c -10e-6,-0.621089 -0.1211,-1.085932 -0.36328,-1.394531 -0.24219,-0.308588 -0.60547,-0.462885 -1.08984,-0.462891 -0.58204,6e-6 -1.04102,0.185553 -1.37696,0.556641 -0.33594,0.371099 -0.50391,0.876957 -0.5039,1.517578 l 0,3.708984 -1.08399,0 0,-6.5625 1.08399,0 0,1.019532 c 0.25781,-0.394526 0.56054,-0.689447 0.9082,-0.884766 0.35156,-0.195306 0.75585,-0.292962 1.21289,-0.292969 0.7539,7e-6 1.32421,0.234382 1.71094,0.703125 0.38671,0.46485 0.58007,1.150396 0.58008,2.056641"
         id="path3790"
         inkscape:connector-curvature="0" />
    </g>
  </g>
</svg>
